<svg xmlns="http://www.w3.org/2000/svg" fill="none" viewBox="3.1909175999999997 0 1167.66 106.53658536585365" style="max-height: 500px" width="1167.66" height="106.53658536585365">
<path fill="#E0E0E0" d="M7.44961 239.26C8.59219 239.25 8.59219 239.25 9.76219 239.25C10.5757 239.25 11.3892 239.25 12.2302 239.25C14.9815 239.26 17.742 239.25 20.5024 239.24C22.4859 239.25 24.4786 239.25 26.4712 239.25C31.9922 239.26 37.5131 239.25 43.0341 239.25C48.3996 239.24 53.7743 239.25 59.1398 239.25C70.264 239.26 81.3881 239.25 92.5123 239.25C103.792 239.24 115.071 239.24 126.351 239.24C127.064 239.24 127.777 239.24 128.508 239.24C132.137 239.24 135.757 239.24 139.385 239.24C165.665 239.25 191.944 239.25 218.232 239.24C244.265 239.23 270.297 239.22 296.33 239.22C297.966 239.22 299.593 239.22 301.229 239.22C307.792 239.22 314.355 239.22 320.918 239.22C339.263 239.22 357.609 239.22 375.945 239.22C376.786 239.22 377.617 239.22 378.477 239.22C405.112 239.22 431.748 239.22 458.384 239.21C459.243 239.21 460.112 239.21 460.998 239.21C475.038 239.21 489.069 239.2 503.109 239.2C558.776 239.19 614.451 239.18 670.117 239.18C671.882 239.18 673.637 239.18 675.401 239.18C678.911 239.18 682.43 239.18 685.949 239.18C693.828 239.18 701.707 239.18 709.587 239.18C711.333 239.18 713.078 239.18 714.824 239.18C761.423 239.18 808.013 239.18 854.612 239.17C855.828 239.17 855.828 239.17 857.071 239.17C871.906 239.17 871.906 239.17 879.145 239.17C897.052 239.17 914.949 239.16 932.856 239.16C934.062 239.16 934.062 239.16 935.305 239.16C938.559 239.16 941.813 239.16 945.067 239.16C975.232 239.16 1005.4 239.16 1035.57 239.15C1038.46 239.15 1041.35 239.15 1044.23 239.15C1044.95 239.15 1045.65 239.14 1046.38 239.14C1057.63 239.14 1068.89 239.14 1080.14 239.14C1091.19 239.14 1102.23 239.14 1113.28 239.13C1119.2 239.13 1125.11 239.13 1131.03 239.13C1136.4 239.13 1141.77 239.13 1147.14 239.13C1149.09 239.12 1151.02 239.13 1152.97 239.13C1155.59 239.13 1158.2 239.13 1160.81 239.12C1161.58 239.12 1162.35 239.13 1163.14 239.13C1168.3 239.11 1168.3 239.11 1169.31 238C1169.41 235.74 1169.43 233.49 1169.43 231.23C1169.43 230.16 1169.43 230.16 1169.44 229.06C1169.44 226.65 1169.44 224.23 1169.43 221.81C1169.44 220.09 1169.44 218.36 1169.44 216.63C1169.44 211.93 1169.44 207.22 1169.44 202.51C1169.44 197.58 1169.44 192.64 1169.44 187.71C1169.44 179.41 1169.44 171.11 1169.43 162.8C1169.43 153.24 1169.43 143.68 1169.44 134.11C1169.44 125.89 1169.44 117.67 1169.44 109.44C1169.44 104.54 1169.44 99.63 1169.44 94.73C1169.44 90.1 1169.44 85.47 1169.44 80.84C1169.43 79.15 1169.43 77.47 1169.44 75.78C1169.45 67.33 1169.34 58.92 1168.91 50.48C1168.88 49.76 1168.84 49.03 1168.8 48.29C1168.52 43.24 1168.52 43.24 1167.49 41C1165.66 40.69 1165.66 40.69 1163.32 40.56C1157.65 40.05 1153.24 38.2 1148.18 35.43C1145.55 34 1145.55 34 1142.7 33.12C1138.92 31.51 1137.17 28.88 1135.56 24.87C1134.14 22.15 1132.6 21.28 1130.01 20C1126.98 19.81 1126.98 19.81 1124.53 20C1124.16 19.07 1124.16 19.07 1123.78 18.12C1122.7 16 1122.7 16 1119.95 14C1119.05 14 1118.15 14 1117.21 14C1116.91 14.66 1116.61 15.32 1116.3 16C1113.79 16.83 1112.08 17.07 1109.51 16.5C1107.16 16 1107.16 16 1104.48 16.56C1101.13 17.08 1099.31 16.37 1096.19 15C1095.38 14.69 1094.57 14.38 1093.74 14.06C1091.58 13.16 1091.58 13.16 1090.31 11.37C1088.88 10 1088.88 10 1085.97 9.81001C1085.12 9.87001 1084.27 9.93002 1083.39 10C1083.39 10.66 1083.39 11.32 1083.39 12C1082.76 11.97 1082.14 11.95 1081.48 11.93C1067.74 11.64 1067.74 11.64 1063.58 15.38C1062.37 17 1062.37 17 1061.45 20C1060.33 20.68 1060.33 20.68 1059.17 21.37C1056.88 23 1056.88 23 1056.14 25.68C1056.09 26.45 1056.03 27.21 1055.97 28C1055.37 28 1054.76 28 1054.14 28C1053.38 28.92 1053.38 28.92 1052.61 29.87C1049.94 32.55 1047.57 32.99 1044.09 34C1042.56 34.99 1041.04 35.99 1039.52 37C1037.06 37.7 1037.06 37.7 1034.95 38C1034.95 38.66 1034.95 39.32 1034.95 40C1034.34 39.96 1033.74 39.93 1033.11 39.89C1024.77 39.61 1024.77 39.61 1021.24 43C1020.86 44 1020.86 44 1020.48 45.03C1019.55 47.19 1019.55 47.19 1017.43 47.82C1016.69 47.96 1015.95 48.1 1015.19 48.25C1014.44 48.4 1013.7 48.54 1012.92 48.7C1012.06 48.85 1012.06 48.85 1011.18 49C1011.18 48.34 1011.18 47.68 1011.18 47C1010.32 46.56 1009.45 46.13 1008.56 45.68C1005.51 44.2 1005.51 44.2 1003.87 41C1002.06 40.66 1002.06 40.66 999.929 40.62C995.533 40.27 994.025 38.59 991.072 35C989.866 35 988.659 35 987.416 35C986.813 33.68 986.209 32.36 985.588 31C984.985 31 984.381 31 983.76 31C983.504 30.21 983.239 29.43 982.964 28.62C981.932 26 981.932 26 980.103 24C979.5 23.75 978.897 23.5 978.275 23.25C975.634 21.44 975.551 19.18 974.619 16C973.422 14.64 972.206 13.31 970.963 12C970.332 10.34 969.72 8.67002 969.135 7.00002C966.383 5.49002 963.952 5.82002 960.908 6.00002C960.003 6.66002 959.098 7.32002 958.166 8.00002C958.166 8.99002 958.166 9.98002 958.166 11C956.054 11.33 953.943 11.66 951.768 12C952.069 12.99 952.371 13.98 952.682 15C952.005 15.08 951.329 15.16 950.625 15.25C948.111 16 948.111 16 946.576 17.81C943.852 20.63 941.045 21.61 937.545 22.97C935.241 24.03 933.532 25.18 931.658 27C931.658 27.66 931.658 28.32 931.658 29C931.091 29.18 930.516 29.36 929.931 29.55C929.181 29.8 928.431 30.05 927.664 30.31C926.923 30.55 926.183 30.8 925.415 31.05C923.432 32 923.432 32 921.603 35C920.699 35 919.794 35 918.861 35C918.861 35.99 918.861 36.98 918.861 38C917.847 38.3 916.832 38.61 915.781 38.93C912.463 40 912.463 40 910.635 41C910.635 41.66 910.635 42.32 910.635 43C909.593 42.75 909.593 42.75 908.523 42.5C905.525 41.89 902.728 42 899.666 42C898.578 41.95 897.481 41.91 896.357 41.87C893.267 42 893.268 42 891.439 44C888.542 43.61 886.339 42.22 883.844 40.62C873.981 34.56 873.981 34.56 867.208 35.73C863.104 36.21 858.917 35.86 854.877 35C854.274 34.34 853.67 33.68 853.049 33C851.157 32.94 851.157 32.94 848.771 33.12C840.828 33.3 833.488 30.41 825.974 27.88C823.214 27.09 820.974 26.73 818.15 26.75C817.026 26.74 817.026 26.74 815.883 26.73C813.744 27 813.744 27 811.825 28.07C809.009 29.58 806.624 27.94 803.689 27C800.947 26.82 798.214 26.87 795.463 27C795.161 26.34 794.86 25.68 794.549 25C792.794 24.65 792.794 24.65 790.609 24.5C787.474 24.27 785.454 23.56 782.666 22C781.45 22.33 780.235 22.66 779.01 23C778.47 22.64 777.922 22.29 777.355 21.93C774.22 20.46 772.054 21.74 768.955 23C768.352 23.66 767.748 24.32 767.127 25C764.942 24.72 764.942 24.72 762.557 24C761.789 23.85 761.012 23.71 760.217 23.56C757.977 23.09 757.977 23.09 756.048 21.93C754.33 21 754.33 21 751.588 21C750.235 20.01 750.235 20.01 748.846 19C748.544 19.99 748.242 20.98 747.932 22C745.701 20.61 743.699 19.36 741.88 17.37C740.107 15.43 738.398 15.03 735.939 14.86C734.897 14.87 734.897 14.87 733.828 14.87C733.133 14.87 732.429 14.87 731.716 14.86C729.696 14.99 727.932 15.39 725.994 16C725.994 16.66 725.994 17.32 725.994 18C725.336 18.12 724.678 18.24 724.001 18.37C721.424 19 721.424 19 719.312 20C716.077 21.31 713.005 22.34 709.541 22C707.868 20.94 707.868 20.94 706.342 19.5C704.55 17.88 703.618 17.04 701.287 16.81C697.713 17.27 694.541 18.44 691.26 20C689.742 20.34 688.216 20.67 686.689 21C685.867 21.39 685.035 21.78 684.176 22.18C680.062 23.31 676.936 22.61 672.978 21C671.781 20.13 670.602 19.24 669.441 18.31C665.501 15.34 662.247 15.82 657.65 16.5C655.611 17 655.611 17 654.697 18C653.664 17.91 652.631 17.83 651.562 17.75C646.416 17.65 642.622 20.31 638.244 23C637.147 23.61 636.041 24.21 634.935 24.81C634.222 25.2 633.5 25.59 632.76 26C632.76 27.65 632.76 29.3 632.76 31C631.855 31.33 630.95 31.66 630.018 32C630.018 32.66 630.018 33.32 630.018 34C629.341 34.1 628.665 34.2 627.961 34.31C625.447 35 625.447 35 623.683 36.68C623.062 37.12 622.44 37.55 621.791 38C618.509 37.19 616.371 36.04 613.564 34C612.961 34.99 612.358 35.98 611.736 37C609.862 37.65 609.862 37.65 607.742 37.81C607.038 37.9 606.334 37.99 605.603 38.08C603.226 37.98 601.938 37.21 599.853 36C598.949 36 598.044 36 597.111 36C595.064 35.24 595.064 35.24 592.943 34.18C592.23 33.85 591.508 33.51 590.768 33.16C588.611 32.03 588.611 32.03 587.057 29C585.183 28.34 585.183 28.34 583.007 27.93C579.982 27.36 578.739 26.93 576.088 25C574.571 24.65 573.044 24.31 571.518 24C566.993 22.18 563.008 19.88 559.013 16.93C557.935 16.14 557.935 16.14 556.829 15.34C555.147 14.14 555.147 14.14 554.15 13C552.633 12.95 551.107 12.95 549.58 13C549.306 12.21 549.022 11.43 548.73 10.62C547.752 8.00001 547.752 8.00002 546.838 6.00002C546.235 6.00002 545.631 6.00002 545.01 6.00002C545.01 6.66002 545.01 7.32002 545.01 8.00002C543.721 7.88002 542.423 7.75001 541.125 7.62001C540.412 7.55001 539.69 7.48 538.94 7.41C535.613 6.77 533.657 5.58001 531.299 2.93001C529.388 0.900008 528.465 0.180015 525.814 1.52588e-05C524.909 0.660015 524.005 1.32002 523.072 2.00002C523.072 2.66002 523.072 3.32002 523.072 4.00002C521.966 3.50002 520.851 3.01002 519.708 2.50002C514.306 0.310015 514.306 0.310015 511.189 1.00002C509.535 3.00002 509.535 3.00002 508.447 5.00002C507.542 4.67002 506.637 4.34002 505.705 4.00002C504.16 4.96002 502.643 5.96002 501.135 7.00002C499.325 7.71002 497.497 8.39002 495.65 9.00002C495.65 9.66002 495.65 10.32 495.65 11C491.272 12.39 487.287 11.68 482.853 11C482.095 12.39 482.095 12.39 481.318 13.81C479.471 17.09 479.471 17.09 476.802 18.37C474.627 20 474.627 20 474.188 21.81C474.088 22.51 473.987 23.21 473.887 23.93C473.603 26.08 473.603 26.08 472.799 28C470.962 29.37 469.216 30.2 467.113 31.01C465.486 32 465.486 32 464.81 34.1C464.691 35.04 464.691 35.04 464.572 36C463.969 36 463.366 36 462.744 36C462.744 36.66 462.744 37.32 462.744 38C462.141 38 461.538 38 460.916 38C460.916 38.66 460.916 39.32 460.916 40C460.011 40.33 459.106 40.66 458.174 41C458.174 41.66 458.174 42.32 458.174 43C457.571 43 456.967 43 456.346 43C455.806 43.66 455.258 44.32 454.691 45C452.863 47.25 452.863 47.25 450.404 47.12C449.655 47.08 448.896 47.04 448.119 47C446.291 47.87 446.291 47.87 444.463 49C438.256 51.91 431.767 54.01 425.268 56C424.363 56.33 423.458 56.66 422.525 57C421.2 56.97 419.865 56.9 418.531 56.81C414.363 56.73 412.891 58 409.728 61C406.356 61.8 406.356 61.8 403.33 62C403.33 61.34 403.33 60.68 403.33 60C402.425 60 401.52 60 400.588 60C400.286 59.01 399.985 58.02 399.674 57C398.422 55.5 398.422 55.5 396.932 54C396.31 53.22 396.31 53.22 395.679 52.43C393.796 50.61 392.023 49.8 389.619 49C389.016 49.33 388.413 49.66 387.791 50C387.453 48.67 387.453 48.67 387.105 47.31C385.652 43.08 384.071 39.98 380.314 37.88C376.192 36.47 372.051 36.64 367.764 36.53C366.832 36.36 365.899 36.18 364.939 36C363.568 34.08 363.568 34.08 363.111 32C361.905 32.33 360.698 32.66 359.455 33C359.455 32.34 359.455 31.68 359.455 31C351.923 28.07 346.082 29.67 338.706 32.47C332.262 34.08 324.255 28.34 318.688 25.18C314.483 22.91 311.467 21.76 306.732 21.93C303.249 22.16 303.249 22.16 300.041 21C299.438 21.33 298.834 21.66 298.213 22C295.845 22.27 293.478 22.44 291.101 22.62C290.434 22.74 289.767 22.87 289.072 23C288.771 23.66 288.469 24.32 288.158 25C284.959 25.82 281.732 26.41 278.487 27.02C275.124 28.07 273.935 29.12 271.705 32C271.029 32.53 270.352 33.07 269.648 33.62C269.127 34.07 268.597 34.53 268.049 35C268.049 35.66 268.049 36.32 268.049 37C267.473 37.12 266.888 37.24 266.285 37.37C264.749 37.71 263.223 38.07 261.705 38.47C252.674 40.85 245.142 41.97 236.404 37.87C234.018 36.91 232.181 36.84 229.658 37C229.658 37.66 229.658 38.32 229.658 39C228.836 39.19 228.013 39.38 227.163 39.58C226.084 39.84 225.006 40.1 223.89 40.37C222.821 40.63 221.752 40.88 220.646 41.14C217.775 42 217.775 42 215.033 44C215.033 44.66 215.033 45.32 215.033 46C214.393 45.79 213.753 45.59 213.095 45.37C199.759 41.23 199.759 41.23 194.924 43C193.132 42.27 191.332 41.55 189.558 40.76C186.816 39.68 184.092 39.35 181.213 39C180.518 38.81 179.823 38.62 179.101 38.43C176.643 38 176.643 38 174.586 38.14C168.772 38.55 166.451 37.5 162.072 33.39C159.257 31.3 156.679 31.36 153.352 31.2C150.263 30.93 147.621 29.9 144.714 28.75C143.106 28.11 141.451 27.57 139.797 27.06C134.97 25.54 130.217 23.76 125.455 22C125.455 22.66 125.455 23.32 125.455 24C121.515 23.49 118.115 22.8 114.486 21C114.486 21.66 114.486 22.32 114.486 23C113.81 22.91 113.124 22.83 112.421 22.74C111.068 22.59 111.068 22.59 109.687 22.43C108.801 22.33 107.914 22.22 106.991 22.12C104.614 22 103.024 22.25 100.775 23C99.8156 23.16 98.8558 23.33 97.8687 23.5C95.291 24 95.291 24 94.3769 25C91.8998 25.07 89.4227 24.99 86.9365 24.93C84.4228 24.99 82.2016 25.37 79.7519 26C79.7519 26.66 79.7519 27.32 79.7519 28C78.2437 27.67 76.7355 27.34 75.1816 27C75.1816 27.66 75.1816 28.32 75.1816 29C72.4669 29.66 69.7521 30.32 66.9551 31C66.9551 31.66 66.9551 32.32 66.9551 33C66.2238 32.81 65.4926 32.62 64.7339 32.43C60.0173 31.8 55.1362 31.54 51.1327 34.62C50.6299 35.07 50.118 35.53 49.5879 36C49.0486 35.83 48.5002 35.67 47.9334 35.5C44.6885 34.68 42.4765 36.45 39.5332 38C39.5332 38.66 39.5332 39.32 39.5332 40C32.8971 40.38 32.8971 40.38 26.7363 38C26.133 37.01 25.5298 36.02 24.9082 35C21.3616 34.56 19.1039 34.71 15.8316 36.31C15.21 36.86 14.5884 37.42 13.9395 38C13.9395 38.99 13.9395 39.98 13.9395 41C13.3362 41 12.7329 41 12.1113 41C12.1113 41.66 12.1113 42.32 12.1113 43C11.2704 43.28 10.4203 43.57 9.54281 43.87C6.62695 45 6.62695 45 3.88477 47C2.07492 46.01 2.07492 46.01 0.228515 45C0.191953 69.99 0.15539 94.99 0.137109 119.99C0.127968 131.6 0.118828 143.21 0.0914057 154.81C0.0731245 164.93 0.0639841 175.04 0.0639841 185.15C0.0548435 190.51 0.0548437 195.87 0.0365625 201.23C0.0274218 206.26 0.0274216 211.3 0.0274216 216.34C0.0274216 218.19 0.0182808 220.05 0.0182808 221.9C0.00914017 224.42 0.00913996 226.94 0.00913996 229.47C0.00913996 230.21 0 230.95 0 231.71C0.0365625 238.38 1.48078 239.22 7.44961 239.26Z"/>
</svg>