<svg width="1170" height="58" viewBox="0 0 1170 58" fill="none" xmlns="http://www.w3.org/2000/svg">
<g clip-path="url(#clip0_170_697)">
<path d="M8.13125 -182.264C9.27383 -182.254 9.27383 -182.254 10.4438 -182.254C11.2573 -182.254 12.0709 -182.254 12.9118 -182.254C15.6631 -182.264 18.4236 -182.254 21.1841 -182.244C23.1676 -182.254 25.1602 -182.254 27.1529 -182.254C32.6738 -182.264 38.1948 -182.254 43.7157 -182.254C49.0812 -182.244 54.4559 -182.254 59.8215 -182.254C70.9456 -182.264 82.0698 -182.254 93.1939 -182.254C104.473 -182.244 115.753 -182.244 127.032 -182.244C127.745 -182.244 128.458 -182.244 129.19 -182.244C132.819 -182.244 136.438 -182.244 140.067 -182.244C166.346 -182.254 192.626 -182.254 218.914 -182.244C244.947 -182.234 270.979 -182.224 297.012 -182.224C298.648 -182.224 300.275 -182.224 301.911 -182.224C308.474 -182.224 315.037 -182.224 321.6 -182.224C339.945 -182.224 358.29 -182.224 376.626 -182.224C377.467 -182.224 378.299 -182.224 379.158 -182.224C405.794 -182.224 432.43 -182.224 459.066 -182.214C459.925 -182.214 460.793 -182.214 461.68 -182.214C475.72 -182.214 489.751 -182.204 503.791 -182.204C559.457 -182.194 615.133 -182.184 670.799 -182.184C672.563 -182.184 674.318 -182.184 676.082 -182.184C679.592 -182.184 683.112 -182.184 686.631 -182.184C694.51 -182.184 702.389 -182.184 710.268 -182.184C712.014 -182.184 713.76 -182.184 715.506 -182.184C762.105 -182.184 808.695 -182.184 855.293 -182.174C856.509 -182.174 856.509 -182.174 857.752 -182.174C872.588 -182.174 872.588 -182.174 879.827 -182.174C897.733 -182.174 915.631 -182.164 933.537 -182.164C934.744 -182.164 934.744 -182.164 935.987 -182.164C939.241 -182.164 942.495 -182.164 945.749 -182.164C975.913 -182.164 1006.09 -182.164 1036.25 -182.154C1039.14 -182.154 1042.03 -182.154 1044.92 -182.154C1045.63 -182.154 1046.33 -182.144 1047.06 -182.144C1058.32 -182.144 1069.57 -182.144 1080.82 -182.144C1091.87 -182.144 1102.91 -182.144 1113.96 -182.134C1119.88 -182.134 1125.79 -182.134 1131.72 -182.134C1137.08 -182.134 1142.46 -182.134 1147.82 -182.134C1149.77 -182.124 1151.71 -182.134 1153.65 -182.134C1156.27 -182.134 1158.88 -182.134 1161.5 -182.124C1162.26 -182.124 1163.03 -182.134 1163.82 -182.134C1168.98 -182.114 1168.98 -182.114 1170 -181.004C1170.09 -178.744 1170.11 -176.494 1170.11 -174.234C1170.11 -173.164 1170.11 -173.164 1170.12 -172.064C1170.12 -169.654 1170.12 -167.234 1170.11 -164.814C1170.12 -163.094 1170.12 -161.364 1170.12 -159.634C1170.12 -154.934 1170.12 -150.224 1170.12 -145.514C1170.12 -140.584 1170.12 -135.644 1170.12 -130.714C1170.12 -122.414 1170.12 -114.114 1170.11 -105.804C1170.11 -96.2444 1170.11 -86.6844 1170.12 -77.1144C1170.12 -68.8944 1170.12 -60.6744 1170.12 -52.4444C1170.12 -47.5444 1170.12 -42.6344 1170.12 -37.7344C1170.12 -33.1044 1170.12 -28.4744 1170.12 -23.8444C1170.11 -22.1544 1170.11 -20.4744 1170.12 -18.7844C1170.13 -10.3344 1170.02 -1.92441 1169.59 6.51559C1169.56 7.2356 1169.52 7.96559 1169.48 8.7056C1169.2 13.7556 1169.2 13.7556 1168.17 15.9956C1166.34 16.3056 1166.34 16.3056 1164 16.4356C1158.33 16.9456 1153.92 18.7956 1148.86 21.5656C1146.23 22.9956 1146.23 22.9956 1143.38 23.8756C1139.6 25.4856 1137.85 28.1156 1136.24 32.1256C1134.82 34.8456 1133.28 35.7156 1130.69 36.9956C1127.67 37.1856 1127.67 37.1856 1125.21 36.9956C1124.84 37.9256 1124.84 37.9256 1124.47 38.8756C1123.38 40.9956 1123.38 40.9956 1120.64 42.9956C1119.73 42.9956 1118.83 42.9956 1117.89 42.9956C1117.59 42.3356 1117.29 41.6756 1116.98 40.9956C1114.48 40.1656 1112.77 39.9256 1110.19 40.4956C1107.84 40.9956 1107.84 40.9956 1105.16 40.4356C1101.81 39.9156 1099.99 40.6256 1096.87 41.9956C1096.07 42.3056 1095.25 42.6156 1094.42 42.9356C1092.26 43.8356 1092.26 43.8356 1090.99 45.6256C1089.56 46.9956 1089.56 46.9956 1086.65 47.1856C1085.8 47.1256 1084.95 47.0656 1084.07 46.9956C1084.07 46.3356 1084.07 45.6756 1084.07 44.9956C1083.44 45.0256 1082.82 45.0456 1082.16 45.0656C1068.43 45.3556 1068.43 45.3556 1064.26 41.6156C1063.05 39.9956 1063.05 39.9956 1062.14 36.9956C1061.01 36.3156 1061.01 36.3156 1059.85 35.6256C1057.57 33.9956 1057.57 33.9956 1056.83 31.3156C1056.77 30.5456 1056.72 29.7856 1056.65 28.9956C1056.05 28.9956 1055.45 28.9956 1054.82 28.9956C1054.07 28.0756 1054.07 28.0756 1053.29 27.1256C1050.62 24.4456 1048.25 24.0056 1044.77 22.9956C1043.24 22.0056 1041.73 21.0056 1040.2 19.9956C1037.74 19.2956 1037.74 19.2956 1035.63 18.9956C1035.63 18.3356 1035.63 17.6756 1035.63 16.9956C1035.03 17.0356 1034.42 17.0656 1033.79 17.1056C1025.46 17.3856 1025.46 17.3856 1021.92 13.9956C1021.54 12.9956 1021.54 12.9956 1021.16 11.9656C1020.24 9.80559 1020.24 9.8056 1018.12 9.1756C1017.37 9.0356 1016.63 8.89558 1015.87 8.74559C1015.12 8.5956 1014.38 8.4556 1013.6 8.29559C1012.74 8.1456 1012.74 8.14558 1011.86 7.99559C1011.86 8.65559 1011.86 9.3156 1011.86 9.99559C1011 10.4356 1010.14 10.8656 1009.24 11.3156C1006.2 12.7956 1006.2 12.7956 1004.55 15.9956C1002.74 16.3356 1002.74 16.3356 1000.61 16.3756C996.214 16.7256 994.706 18.4056 991.754 21.9956C990.547 21.9956 989.341 21.9956 988.098 21.9956C987.494 23.3156 986.891 24.6356 986.269 25.9956C985.666 25.9956 985.063 25.9956 984.441 25.9956C984.185 26.7856 983.92 27.5656 983.646 28.3756C982.613 30.9956 982.613 30.9956 980.785 32.9956C980.182 33.2456 979.578 33.4956 978.957 33.7456C976.315 35.5556 976.233 37.8156 975.301 40.9956C974.103 42.3556 972.888 43.6856 971.644 44.9956C971.014 46.6556 970.401 48.3256 969.816 49.9956C967.065 51.5056 964.634 51.1756 961.59 50.9956C960.685 50.3356 959.78 49.6756 958.848 48.9956C958.848 48.0056 958.848 47.0156 958.848 45.9956C956.736 45.6656 954.625 45.3356 952.449 44.9956C952.751 44.0056 953.052 43.0156 953.363 41.9956C952.687 41.9156 952.01 41.8356 951.307 41.7456C948.793 40.9956 948.793 40.9956 947.257 39.1856C944.533 36.3656 941.727 35.3856 938.226 34.0256C935.923 32.9656 934.214 31.8156 932.34 29.9956C932.34 29.3356 932.34 28.6756 932.34 27.9956C931.773 27.8156 931.197 27.6356 930.612 27.4456C929.863 27.1956 929.113 26.9456 928.345 26.6856C927.605 26.4456 926.865 26.1956 926.097 25.9456C924.113 24.9956 924.113 24.9956 922.285 21.9956C921.38 21.9956 920.475 21.9956 919.543 21.9956C919.543 21.0056 919.543 20.0156 919.543 18.9956C918.528 18.6956 917.514 18.3856 916.462 18.0656C913.144 16.9956 913.144 16.9956 911.316 15.9956C911.316 15.3356 911.316 14.6756 911.316 13.9956C910.274 14.2456 910.274 14.2456 909.205 14.4956C906.207 15.1056 903.41 14.9956 900.348 14.9956C899.26 15.0456 898.163 15.0856 897.039 15.1256C893.949 14.9956 893.949 14.9956 892.121 12.9956C889.223 13.3856 887.021 14.7756 884.525 16.3756C874.662 22.4356 874.662 22.4356 867.889 21.2656C863.785 20.7856 859.599 21.1356 855.559 21.9956C854.955 22.6556 854.352 23.3156 853.73 23.9956C851.838 24.0556 851.838 24.0556 849.453 23.8756C841.509 23.6956 834.169 26.5856 826.656 29.1156C823.895 29.9056 821.656 30.2656 818.831 30.2456C817.707 30.2556 817.707 30.2556 816.565 30.2656C814.426 29.9956 814.426 29.9956 812.506 28.9256C809.691 27.4156 807.305 29.0556 804.371 29.9956C801.629 30.1756 798.896 30.1256 796.144 29.9956C795.843 30.6556 795.541 31.3156 795.23 31.9956C793.475 32.3456 793.475 32.3456 791.291 32.4956C788.156 32.7256 786.135 33.4356 783.348 34.9956C782.132 34.6656 780.916 34.3356 779.691 33.9956C779.152 34.3556 778.604 34.7056 778.037 35.0656C774.902 36.5356 772.735 35.2556 769.637 33.9956C769.033 33.3356 768.43 32.6756 767.809 31.9956C765.624 32.2756 765.624 32.2756 763.238 32.9956C762.47 33.1456 761.693 33.2856 760.898 33.4356C758.659 33.9056 758.659 33.9056 756.73 35.0656C755.012 35.9956 755.012 35.9956 752.269 35.9956C750.917 36.9856 750.917 36.9856 749.527 37.9956C749.226 37.0056 748.924 36.0156 748.613 34.9956C746.383 36.3856 744.381 37.6356 742.562 39.6256C740.789 41.5656 739.08 41.9656 736.621 42.1356C735.579 42.1256 735.579 42.1256 734.509 42.1256C733.815 42.1256 733.111 42.1256 732.398 42.1356C730.378 42.0056 728.614 41.6056 726.676 40.9956C726.676 40.3356 726.676 39.6756 726.676 38.9956C726.018 38.8756 725.359 38.7556 724.683 38.6256C722.105 37.9956 722.105 37.9956 719.994 36.9956C716.758 35.6856 713.687 34.6556 710.223 34.9956C708.55 36.0556 708.55 36.0556 707.023 37.4956C705.232 39.1156 704.299 39.9556 701.969 40.1856C698.395 39.7256 695.223 38.5556 691.941 36.9956C690.424 36.6556 688.898 36.3256 687.371 35.9956C686.548 35.6056 685.717 35.2156 684.857 34.8156C680.744 33.6856 677.618 34.3856 673.66 35.9956C672.463 36.8656 671.284 37.7556 670.123 38.6856C666.183 41.6556 662.929 41.1756 658.331 40.4956C656.293 39.9956 656.293 39.9956 655.379 38.9956C654.346 39.0856 653.313 39.1656 652.244 39.2456C647.097 39.3456 643.304 36.6856 638.926 33.9956C637.829 33.3856 636.723 32.7856 635.617 32.1856C634.904 31.7956 634.182 31.4056 633.441 30.9956C633.441 29.3456 633.441 27.6956 633.441 25.9956C632.536 25.6656 631.632 25.3356 630.699 24.9956C630.699 24.3356 630.699 23.6756 630.699 22.9956C630.023 22.8956 629.346 22.7956 628.643 22.6856C626.129 21.9956 626.129 21.9956 624.365 20.3156C623.743 19.8756 623.122 19.4456 622.473 18.9956C619.191 19.8056 617.052 20.9556 614.246 22.9956C613.643 22.0056 613.039 21.0156 612.418 19.9956C610.544 19.3456 610.544 19.3456 608.423 19.1856C607.72 19.0956 607.016 19.0056 606.285 18.9156C603.908 19.0156 602.619 19.7856 600.535 20.9956C599.63 20.9956 598.725 20.9956 597.793 20.9956C595.745 21.7556 595.745 21.7556 593.625 22.8156C592.912 23.1456 592.19 23.4856 591.449 23.8356C589.292 24.9656 589.292 24.9656 587.738 27.9956C585.864 28.6556 585.864 28.6556 583.689 29.0656C580.663 29.6356 579.42 30.0656 576.769 31.9956C575.252 32.3456 573.726 32.6856 572.199 32.9956C567.675 34.8156 563.689 37.1156 559.695 40.0656C558.616 40.8556 558.616 40.8556 557.51 41.6556C555.828 42.8556 555.828 42.8556 554.832 43.9956C553.315 44.0456 551.788 44.0456 550.262 43.9956C549.987 44.7856 549.704 45.5656 549.412 46.3756C548.434 48.9956 548.434 48.9956 547.519 50.9956C546.916 50.9956 546.313 50.9956 545.691 50.9956C545.691 50.3356 545.691 49.6756 545.691 48.9956C544.403 49.1156 543.105 49.2456 541.807 49.3756C541.094 49.4456 540.372 49.5156 539.622 49.5856C536.295 50.2256 534.339 51.4156 531.98 54.0656C530.07 56.0956 529.147 56.8156 526.496 56.9956C525.591 56.3356 524.686 55.6756 523.754 54.9956C523.754 54.3356 523.754 53.6756 523.754 52.9956C522.648 53.4956 521.533 53.9856 520.39 54.4956C514.988 56.6856 514.988 56.6856 511.871 55.9956C510.217 53.9956 510.217 53.9956 509.129 51.9956C508.224 52.3256 507.319 52.6556 506.387 52.9956C504.842 52.0356 503.325 51.0356 501.816 49.9956C500.007 49.2856 498.178 48.6056 496.332 47.9956C496.332 47.3356 496.332 46.6756 496.332 45.9956C491.954 44.6056 487.968 45.3156 483.535 45.9956C482.776 44.6056 482.776 44.6056 481.999 43.1856C480.153 39.9056 480.153 39.9056 477.484 38.6256C475.309 36.9956 475.309 36.9956 474.87 35.1856C474.769 34.4856 474.669 33.7856 474.568 33.0656C474.285 30.9156 474.285 30.9156 473.48 28.9956C471.643 27.6256 469.897 26.7956 467.795 25.9856C466.168 24.9956 466.168 24.9956 465.492 22.8956C465.373 21.9556 465.373 21.9556 465.254 20.9956C464.651 20.9956 464.047 20.9956 463.426 20.9956C463.426 20.3356 463.426 19.6756 463.426 18.9956C462.822 18.9956 462.219 18.9956 461.598 18.9956C461.598 18.3356 461.598 17.6756 461.598 16.9956C460.693 16.6656 459.788 16.3356 458.855 15.9956C458.855 15.3356 458.855 14.6756 458.855 13.9956C458.252 13.9956 457.649 13.9956 457.027 13.9956C456.488 13.3356 455.94 12.6756 455.373 11.9956C453.545 9.74559 453.545 9.74559 451.086 9.8756C450.336 9.91559 449.578 9.9556 448.801 9.99559C446.973 9.1256 446.973 9.1256 445.145 7.99559C438.938 5.08559 432.448 2.9856 425.949 0.99559C425.044 0.665588 424.139 0.335587 423.207 -0.00440979C421.882 0.025589 420.547 0.0955963 419.213 0.185593C415.044 0.265594 413.573 -1.00441 410.41 -4.00441C407.037 -4.80441 407.037 -4.80441 404.012 -5.00441C404.012 -4.34441 404.012 -3.6844 404.012 -3.00441C403.107 -3.00441 402.202 -3.00441 401.27 -3.00441C400.968 -2.0144 400.666 -1.02441 400.355 -0.00440979C399.103 1.49559 399.103 1.49559 397.613 2.99559C396.992 3.77559 396.992 3.7756 396.361 4.5656C394.478 6.3856 392.705 7.19559 390.301 7.99559C389.697 7.66559 389.094 7.33559 388.473 6.99559C388.134 8.32559 388.134 8.32559 387.787 9.68559C386.334 13.9156 384.752 17.0156 380.996 19.1156C376.873 20.5256 372.732 20.3556 368.446 20.4656C367.513 20.6356 366.581 20.8156 365.621 20.9956C364.25 22.9156 364.25 22.9156 363.793 24.9956C362.586 24.6656 361.38 24.3356 360.137 23.9956C360.137 24.6556 360.137 25.3156 360.137 25.9956C352.605 28.9256 346.764 27.3256 339.387 24.5256C332.943 22.9156 324.936 28.6556 319.37 31.8156C315.165 34.0856 312.148 35.2356 307.414 35.0656C303.931 34.8356 303.931 34.8356 300.723 35.9956C300.119 35.6656 299.516 35.3356 298.895 34.9956C296.527 34.7256 294.16 34.5556 291.783 34.3756C291.116 34.2556 290.449 34.1256 289.754 33.9956C289.452 33.3356 289.151 32.6756 288.84 31.9956C285.641 31.1756 282.414 30.5856 279.169 29.9756C275.805 28.9256 274.617 27.8756 272.387 24.9956C271.71 24.4656 271.034 23.9256 270.33 23.3756C269.809 22.9256 269.279 22.4656 268.73 21.9956C268.73 21.3356 268.73 20.6756 268.73 19.9956C268.155 19.8756 267.57 19.7556 266.966 19.6256C265.431 19.2856 263.904 18.9256 262.387 18.5256C253.356 16.1456 245.824 15.0256 237.086 19.1256C234.7 20.0856 232.863 20.1556 230.34 19.9956C230.34 19.3356 230.34 18.6756 230.34 17.9956C229.517 17.8056 228.695 17.6156 227.844 17.4156C226.766 17.1556 225.687 16.8956 224.572 16.6256C223.503 16.3656 222.433 16.1156 221.327 15.8556C218.457 14.9956 218.457 14.9956 215.715 12.9956C215.715 12.3356 215.715 11.6756 215.715 10.9956C215.075 11.2056 214.435 11.4056 213.777 11.6256C200.441 15.7656 200.441 15.7656 195.605 13.9956C193.814 14.7256 192.013 15.4456 190.24 16.2356C187.498 17.3156 184.774 17.6456 181.895 17.9956C181.2 18.1856 180.505 18.3756 179.783 18.5656C177.324 18.9956 177.324 18.9956 175.268 18.8556C169.454 18.4456 167.132 19.4956 162.754 23.6056C159.939 25.6956 157.361 25.6356 154.034 25.7956C150.944 26.0656 148.303 27.0956 145.396 28.2456C143.787 28.8856 142.133 29.4256 140.478 29.9356C135.652 31.4556 130.899 33.2356 126.137 34.9956C126.137 34.3356 126.137 33.6756 126.137 32.9956C122.197 33.5056 118.797 34.1956 115.168 35.9956C115.168 35.3356 115.168 34.6756 115.168 33.9956C114.492 34.0856 113.806 34.1656 113.102 34.2556C111.749 34.4056 111.749 34.4056 110.369 34.5656C109.482 34.6656 108.596 34.7756 107.673 34.8756C105.296 34.9956 103.706 34.7456 101.457 33.9956C100.497 33.8356 99.5375 33.6656 98.5503 33.4956C95.9726 32.9956 95.9726 32.9956 95.0586 31.9956C92.5815 31.9256 90.1044 32.0056 87.6181 32.0656C85.1044 32.0056 82.8833 31.6256 80.4336 30.9956C80.4336 30.3356 80.4336 29.6756 80.4336 28.9956C78.9254 29.3256 77.4172 29.6556 75.8633 29.9956C75.8633 29.3356 75.8633 28.6756 75.8633 27.9956C73.1485 27.3356 70.4337 26.6756 67.6367 25.9956C67.6367 25.3356 67.6367 24.6756 67.6367 23.9956C66.9055 24.1856 66.1742 24.3756 65.4155 24.5656C60.699 25.1956 55.8179 25.4556 51.8143 22.3756C51.3116 21.9256 50.7997 21.4656 50.2695 20.9956C49.7302 21.1656 49.1818 21.3256 48.6151 21.4956C45.3702 22.3156 43.1581 20.5456 40.2148 18.9956C40.2148 18.3356 40.2148 17.6756 40.2148 16.9956C33.5787 16.6156 33.5787 16.6156 27.418 18.9956C26.8147 19.9856 26.2114 20.9756 25.5898 21.9956C22.0433 22.4356 19.7855 22.2856 16.5132 20.6856C15.8916 20.1356 15.2701 19.5756 14.6211 18.9956C14.6211 18.0056 14.6211 17.0156 14.6211 15.9956C14.0178 15.9956 13.4145 15.9956 12.793 15.9956C12.793 15.3356 12.793 14.6756 12.793 13.9956C11.952 13.7156 11.102 13.4256 10.2245 13.1256C7.30859 11.9956 7.30859 11.9956 4.56641 9.99559C2.75656 10.9856 2.75656 10.9856 0.910156 11.9956C0.873593 -12.9944 0.837031 -37.9944 0.81875 -62.9944C0.809609 -74.6044 0.800468 -86.2144 0.773046 -97.8144C0.754765 -107.934 0.745625 -118.044 0.745625 -128.154C0.736484 -133.514 0.736484 -138.874 0.718203 -144.234C0.709062 -149.264 0.709062 -154.304 0.709062 -159.344C0.709062 -161.194 0.699921 -163.054 0.699921 -164.904C0.690781 -167.424 0.690781 -169.944 0.690781 -172.474C0.690781 -173.214 0.681641 -173.954 0.681641 -174.714C0.718203 -181.384 2.16242 -182.224 8.13125 -182.264Z" fill="#E0E0E0"/>
</g>
<defs>
<clipPath id="clip0_170_697">
<rect width="1170" height="58" fill="white"/>
</clipPath>
</defs>
</svg>
