<svg width="11" height="6" viewBox="0 0 11 6" fill="none" xmlns="http://www.w3.org/2000/svg">
<path d="M5.5 5.49999C5.44618 5.50031 5.39283 5.4898 5.34301 5.46907C5.29318 5.44835 5.24787 5.4178 5.20965 5.3792L1.12027 1.21396C1.04326 1.13553 1 1.02915 1 0.918228C1 0.807307 1.04326 0.700929 1.12027 0.622496C1.19727 0.544063 1.30171 0.5 1.41061 0.5C1.51951 0.5 1.62395 0.544063 1.70096 0.622496L5.5 4.49617L9.29904 0.622496C9.37605 0.544063 9.48049 0.5 9.58939 0.5C9.69829 0.5 9.80273 0.544063 9.87973 0.622496C9.95674 0.700929 10 0.807307 10 0.918228C10 1.02915 9.95674 1.13553 9.87973 1.21396L5.79035 5.3792C5.75214 5.4178 5.70682 5.44835 5.65699 5.46907C5.60717 5.4898 5.55382 5.50031 5.5 5.49999Z" fill="white" stroke="white"/>
</svg>
