<svg width="25" height="24" viewBox="0 0 25 24" fill="none" xmlns="http://www.w3.org/2000/svg">
<rect x="4.90625" y="4.00098" width="16" height="16" rx="2" stroke="#4B465C" stroke-width="1.5" stroke-linecap="round" stroke-linejoin="round"/>
<rect x="4.90625" y="4.00098" width="16" height="16" rx="2" stroke="white" stroke-width="1.5" stroke-linecap="round" stroke-linejoin="round"/>
<path d="M8.90625 11.001V16.001" stroke="#4B465C" stroke-width="1.5" stroke-linecap="round" stroke-linejoin="round"/>
<path d="M8.90625 11.001V16.001" stroke="white" stroke-width="1.5" stroke-linecap="round" stroke-linejoin="round"/>
<path d="M8.90625 8.00086V8.01086" stroke="#4B465C" stroke-width="1.5" stroke-linecap="round" stroke-linejoin="round"/>
<path d="M8.90625 8.00086V8.01086" stroke="white" stroke-width="1.5" stroke-linecap="round" stroke-linejoin="round"/>
<path d="M12.9062 16.001V11.001" stroke="#4B465C" stroke-width="1.5" stroke-linecap="round" stroke-linejoin="round"/>
<path d="M12.9062 16.001V11.001" stroke="white" stroke-width="1.5" stroke-linecap="round" stroke-linejoin="round"/>
<path d="M16.9062 16.001V13.001C16.9062 11.8964 16.0108 11.001 14.9062 11.001C13.8017 11.001 12.9062 11.8964 12.9062 13.001" stroke="#4B465C" stroke-width="1.5" stroke-linecap="round" stroke-linejoin="round"/>
<path d="M16.9062 16.001V13.001C16.9062 11.8964 16.0108 11.001 14.9062 11.001C13.8017 11.001 12.9062 11.8964 12.9062 13.001" stroke="white" stroke-width="1.5" stroke-linecap="round" stroke-linejoin="round"/>
</svg>
