<svg width="24" height="24" viewBox="0 0 24 24" fill="none" xmlns="http://www.w3.org/2000/svg">
<path d="M15 8C16.259 8.94427 17 10.4262 17 12C17 13.5738 16.259 15.0557 15 16" stroke="#4B465C" stroke-width="1.5" stroke-linecap="round" stroke-linejoin="round"/>
<path d="M15 8C16.259 8.94427 17 10.4262 17 12C17 13.5738 16.259 15.0557 15 16" stroke="white" stroke-width="1.5" stroke-linecap="round" stroke-linejoin="round"/>
<path d="M17.6992 5C19.8136 6.70868 21.0424 9.28151 21.0424 12C21.0424 14.7185 19.8136 17.2913 17.6992 19" stroke="#4B465C" stroke-width="1.5" stroke-linecap="round" stroke-linejoin="round"/>
<path d="M17.6992 5C19.8136 6.70868 21.0424 9.28151 21.0424 12C21.0424 14.7185 19.8136 17.2913 17.6992 19" stroke="white" stroke-width="1.5" stroke-linecap="round" stroke-linejoin="round"/>
<path d="M6 15.0003H4C3.44772 15.0003 3 14.5526 3 14.0003V10.0003C3 9.44805 3.44772 9.00033 4 9.00033H6L9.5 4.50033C9.6806 4.14955 10.09 3.98281 10.4643 4.10758C10.8385 4.23234 11.066 4.61135 11 5.00033V19.0003C11.066 19.3893 10.8385 19.7683 10.4643 19.8931C10.09 20.0179 9.6806 19.8511 9.5 19.5003L6 15.0003" stroke="#4B465C" stroke-width="1.5" stroke-linecap="round" stroke-linejoin="round"/>
<path d="M6 15.0003H4C3.44772 15.0003 3 14.5526 3 14.0003V10.0003C3 9.44805 3.44772 9.00033 4 9.00033H6L9.5 4.50033C9.6806 4.14955 10.09 3.98281 10.4643 4.10758C10.8385 4.23234 11.066 4.61135 11 5.00033V19.0003C11.066 19.3893 10.8385 19.7683 10.4643 19.8931C10.09 20.0179 9.6806 19.8511 9.5 19.5003L6 15.0003" stroke="white" stroke-width="1.5" stroke-linecap="round" stroke-linejoin="round"/>
</svg>
