<svg width="25" height="24" viewBox="0 0 25 24" fill="none" xmlns="http://www.w3.org/2000/svg">
<rect x="2.76758" y="6" width="20" height="12" rx="2" stroke="#FF9900" stroke-width="1.5" stroke-linecap="round" stroke-linejoin="round"/>
<path d="M6.76758 11.25C6.35336 11.25 6.01758 11.5858 6.01758 12C6.01758 12.4142 6.35336 12.75 6.76758 12.75V11.25ZM10.7676 12.75C11.1818 12.75 11.5176 12.4142 11.5176 12C11.5176 11.5858 11.1818 11.25 10.7676 11.25V12.75ZM9.51758 10C9.51758 9.58579 9.18179 9.25 8.76758 9.25C8.35336 9.25 8.01758 9.58579 8.01758 10H9.51758ZM8.01758 14C8.01758 14.4142 8.35336 14.75 8.76758 14.75C9.18179 14.75 9.51758 14.4142 9.51758 14H8.01758ZM6.76758 12.75H10.7676V11.25H6.76758V12.75ZM8.01758 10V14H9.51758V10H8.01758Z" fill="#FF9900"/>
<path d="M15.7676 10.9999V11.0099" stroke="#FF9900" stroke-width="1.5" stroke-linecap="round" stroke-linejoin="round"/>
<path d="M18.7676 12.9999V13.0099" stroke="#FF9900" stroke-width="1.5" stroke-linecap="round" stroke-linejoin="round"/>
</svg>
