<svg width="1728" height="692" viewBox="0 0 1728 692" fill="none" xmlns="http://www.w3.org/2000/svg">
<path d="M1729.17 241.233C1729.17 243.493 1729.13 245.743 1728.99 248.003L1728.24 656.499L1709.5 649.499L1697.75 656.499L1689.64 649.499L1662.77 656.499L1650.6 649.499L1633.13 656.499L1620.87 647.499L1601.95 656.499L1587 649.499H1572.65L1556.43 656.499L1543.83 644.499C1543.83 630.832 1537.66 608.099 1513 626.499C1488.34 644.899 1471.02 642.166 1465.44 638.499C1461.44 636.166 1448.06 631.499 1426.5 631.499C1404.94 631.499 1390.71 664.832 1386.29 681.499L1368.36 656.499L1346.5 663.499L1338.5 647.499L1318.12 663.499C1310.08 658.832 1291.66 649.499 1282.29 649.499C1272.92 649.499 1253.53 658.832 1245 663.499L1221.32 656.499L1206.4 644.499L1200.4 656.499C1196.39 658.832 1185.94 663.499 1176.21 663.499C1166.47 663.499 1159.54 654.166 1157.28 649.499L1137.01 644.499L1127.55 649.499L1117.93 644.499L1107.28 638.499H1096.98V649.499H1073.49L1070.54 644.499L1054.5 649.499L1044.43 656.499L1022.13 663.499L1015.37 649.499L1003.5 631.499L989.865 644.499L978 638.499L963.429 631.499L943.736 638.499L931.572 644.499L917 649.499L895.472 644.499L882.916 638.499L873.536 625.499L862.061 613.499L851.83 631.499L845.072 638.499L836 631.499C830.464 629.499 815.541 629.299 800.133 644.499C780.873 663.499 732.893 644.499 711.7 631.499C694.746 621.099 671.91 627.166 662.611 631.499L648 625.499L618.861 631.499L596.385 625.499L592.33 631.499H572.395L543.795 618.499L531.51 631.499L500.829 638.499L489.5 625.499L466.5 618.499L453.552 625.499C449.353 627.499 435.122 630.299 411.788 625.499C388.455 620.699 375.874 627.499 372.5 631.499L349.562 613.499L339.588 625.499L331.06 638.499L317.963 625.499H315.098L297 631.499L280.295 625.499C266.748 627.499 233.066 630.299 206.716 625.499C180.366 620.699 187.926 627.499 195 631.499L158.208 625.499L149.018 631.499H139.557V625.499H128.555C122.761 627.499 109.839 632.899 104.5 638.499C99.1609 644.099 96.4257 640.832 95.7255 638.499L83.5 631.499C80.8714 633.832 74.6681 638.499 70.8838 638.499C67.0994 638.499 61.0264 642.499 58.4629 644.499L45.5 638.499L39.541 631.499L29 625.499L23.4169 631.499L14.1181 625.499H0.0078125V241.713C0.0078125 240.953 0.0213271 240.213 0.0213271 239.473C0.0213271 236.943 0.0213275 234.423 0.0348431 231.903C0.0348431 230.053 0.048359 228.193 0.048359 226.343C0.048359 221.303 0.0483593 216.263 0.0618749 211.233C0.0889062 205.873 0.0889058 200.513 0.102421 195.153C0.102421 185.043 0.115937 174.933 0.142968 164.813C0.183515 153.214 0.197031 141.603 0.210546 129.993C0.237578 104.993 0.29164 79.9935 0.345702 55.0035L5.75195 57.0035C9.80664 55.0035 9.80664 55.0035 14.1181 53.8735C15.4156 53.5735 16.6726 53.2835 17.916 53.0035V51.0035H20.6191V48.0035C21.5788 47.4235 22.4978 46.8635 23.4169 46.3135C28.2555 44.7135 31.5938 44.5635 36.8379 45.0035L39.541 48.0035C48.6505 50.3835 48.6505 50.3835 58.4629 50.0035V48.0035C62.8149 46.4535 66.0857 44.6835 70.8838 45.5035C71.7217 45.6735 72.5327 45.8335 73.3301 46.0035C73.9408 45.6373 74.5352 45.2772 75.1195 44.9232L75.6142 44.6235C81.5341 41.5435 88.7514 41.8035 95.7255 42.4335C96.8473 42.6235 97.9285 42.8135 99.0098 43.0035V41.0035L111.174 39.0035V37.0035L117.932 38.0035V36.0035C121.554 35.3735 124.838 34.9935 128.555 34.9335C132.231 34.9935 135.894 35.0735 139.557 35.0035C140.908 34.0035 140.908 34.0035 144.72 33.5035C146.179 33.3335 147.598 33.1635 149.018 33.0035C152.342 32.2535 154.694 32.0035 158.208 32.1235C159.573 32.2234 160.884 32.3335 162.195 32.4335C164.236 32.5934 164.236 32.5934 166.236 32.7435C167.277 32.8335 168.291 32.9135 169.291 33.0035V31.0035C174.657 32.8035 179.685 33.4935 185.51 34.0035V32.0035C192.551 33.7635 199.58 35.5435 206.716 37.0635C209.162 37.5735 211.608 38.1135 213.987 38.7535C218.285 39.9035 222.191 40.9335 226.759 41.2035C231.679 41.3635 235.491 41.3035 239.653 43.3935C246.127 47.5035 249.56 48.5535 258.156 48.1435C261.197 48.0035 261.197 48.0035 264.833 48.4335C265.901 48.6235 266.928 48.8135 267.955 49.0035L267.973 49.0049C272.224 49.3544 276.246 49.685 280.295 50.7635C282.917 51.5535 285.579 52.2735 288.229 53.0035C295.378 51.2335 295.378 51.2335 315.098 55.3735C316.071 55.5934 317.017 55.7935 317.963 56.0035V54.0035C322.018 52.0035 322.018 52.0035 326.261 51.1435L326.87 51.0468C328.29 50.8211 329.675 50.6011 331.06 50.3735C331.993 50.2206 332.909 50.071 333.817 49.9229L335.898 49.5835C337.153 49.3837 338.368 49.194 339.583 49.0042L339.588 49.0035V47.0035C343.318 46.8435 346.035 46.9135 349.562 47.8735C362.483 51.9734 373.62 50.8535 386.974 48.4735C389.217 48.0735 391.474 47.7135 393.745 47.3735C394.428 47.2739 395.095 47.1803 395.753 47.088L396.354 47.0035V45.0035C397.164 44.5335 397.948 44.0735 398.719 43.6235C399.759 43.0735 400.76 42.5335 401.76 42.0035C405.058 39.1235 406.815 38.0735 411.788 37.0235L412.734 36.9034C417.213 36.335 421.668 35.7696 426.088 35.0035L427.439 33.0035C428.467 32.8735 429.453 32.7435 430.44 32.6235L431.338 32.5776C434.551 32.4138 437.753 32.2505 440.955 32.0035L443.658 31.0035C448.402 32.1635 448.402 32.1635 453.552 31.9335C460.553 31.7635 465.013 32.9135 471.23 35.1835C479.461 38.3434 491.301 44.0835 500.829 42.4735C511.736 39.6735 520.373 38.0735 531.51 41.0035V43.0035L536.916 42.0035C537.592 44.0835 537.592 44.0835 539.619 46.0035C541.038 46.1835 542.417 46.3635 543.795 46.5335C550.134 46.6435 556.257 46.4735 562.352 47.8835C567.907 49.9835 570.246 53.0835 572.395 57.3135C572.908 58.6735 572.908 58.6735 573.408 60.0035L576.111 59.0035C579.666 59.8035 582.288 60.6135 585.072 62.4335C585.626 62.9024 585.851 63.093 586.134 63.3336L586.924 64.0035C589.127 65.5035 589.127 65.5035 590.979 67.0035L592.33 70.0035H596.385V72.0035C600.858 71.8035 600.858 71.8035 605.846 71.0035C610.522 68.0035 612.698 66.7335 618.861 66.8135C620.835 66.9035 622.808 66.9734 624.768 67.0035L628.822 66.0035C638.432 64.0135 648.028 61.9135 657.205 59.0035C659.908 57.8735 659.908 57.8735 662.611 57.0035C663.76 57.0435 664.882 57.0835 665.99 57.1235C669.626 57.2535 669.626 57.2535 672.329 55.0035C673.167 54.3235 673.978 53.6635 674.775 53.0035H677.479V51.0035L681.533 50.0035V48.0035H684.236V46.0035H686.939C687.115 45.0435 687.115 45.0435 687.291 44.1035C688.291 42.0035 688.291 42.0035 690.697 41.0135C693.805 40.2035 696.387 39.3735 699.104 38.0035C700.293 36.0836 700.293 36.0835 700.712 33.934L700.712 33.9335C700.861 33.2135 701.009 32.5135 701.158 31.8135C701.807 30.0035 701.807 30.0035 705.023 28.3735C708.97 27.0934 708.97 27.0935 711.7 23.8135C712.849 22.3935 712.849 22.3935 713.971 21.0035C720.526 21.6835 726.419 22.3935 732.893 21.0035V19.0035C735.623 18.3935 738.326 17.7135 741.002 17.0035C743.232 15.9635 745.476 14.9635 747.76 14.0035L751.814 15.0035C753.423 13.0035 753.423 13.0035 755.869 11.0035C760.478 10.3135 760.478 10.3135 768.466 12.5035C770.155 13.0135 771.804 13.5035 773.439 14.0035V12.0035L777.494 10.0035C781.414 10.1835 782.779 10.9034 785.604 12.9335C789.091 15.5835 791.983 16.7735 796.903 17.4135C798.011 17.4835 799.079 17.5535 800.133 17.6235C802.052 17.7535 803.971 17.8835 805.877 18.0035V16.0035H808.58C809.932 18.0035 809.932 18.0035 811.378 20.6235C811.81 21.4335 812.229 22.2135 812.635 23.0035C814.892 22.9535 817.149 22.9535 819.393 23.0035C820.866 24.1434 820.866 24.1435 823.352 25.3433L823.353 25.3435C824.988 26.1435 824.988 26.1435 826.583 26.9335C832.489 29.8835 838.382 32.1835 845.072 34.0035C847.329 34.3135 849.586 34.6535 851.83 35.0035C855.75 36.9335 857.588 37.3635 862.061 37.9335C865.278 38.3434 865.278 38.3435 868.047 39.0031L868.049 39.0035C870.346 42.0335 870.346 42.0335 873.536 43.1635C874.631 43.5135 875.699 43.8535 876.753 44.1835C879.888 45.2435 879.888 45.2435 882.916 46.0035H886.971L887.122 46.063C890.115 47.2387 892.016 47.9852 895.472 48.0835C896.553 47.9935 897.594 47.9035 898.635 47.8135C901.77 47.6535 901.77 47.6535 904.541 47.0035L907.244 44.0035C911.393 46.0435 914.556 47.1935 919.408 48.0035L919.673 47.8794C920.537 47.474 921.372 47.0829 922.206 46.6835C924.814 45.0035 924.814 45.0035 928.531 44.3135C929.572 44.2035 930.572 44.1035 931.572 44.0035V42.0035L935.627 41.0035V36.0035C936.722 35.5935 937.789 35.2035 938.844 34.8135C940.479 34.2135 942.114 33.6135 943.736 33.0035C950.21 30.3135 955.819 27.6535 963.429 27.7535C965.01 27.8335 966.537 27.9135 968.064 28.0035C969.416 27.0035 969.416 27.0035 972.43 26.5035C979.228 25.8235 984.04 25.3435 989.865 28.3135C991.582 29.2435 993.325 30.1335 995.096 31.0035C1000.95 32.6135 1005.57 33.3135 1011.65 32.1835C1012.92 31.7834 1014.15 31.3935 1015.37 31.0035C1017.63 30.6735 1019.88 30.3435 1022.13 30.0035C1026.98 28.4435 1031.67 27.2735 1036.95 26.8135C1040.4 27.0435 1041.78 27.8835 1044.43 29.5035C1046.68 30.9435 1046.68 30.9435 1049.16 32.0035C1054.28 32.3435 1058.82 31.3135 1063.61 30.0035C1066.73 29.0035 1066.73 29.0035 1070.54 28.3735C1071.54 28.2435 1072.51 28.1235 1073.49 28.0035V26.0035C1076.35 25.3935 1078.96 24.9935 1081.95 24.8635C1083 24.8735 1084.04 24.8735 1085.07 24.8735C1086.65 24.8735 1086.65 24.8735 1088.19 24.8635C1091.83 25.0334 1094.35 25.4335 1096.98 27.3735C1099.67 29.3635 1102.63 30.6135 1105.92 32.0035L1107.28 29.0035C1109.33 30.0135 1109.33 30.0135 1111.33 31.0035C1115.38 31.0035 1115.38 31.0035 1117.93 31.9335C1120.78 33.0934 1120.78 33.0935 1124.09 33.5635C1125.26 33.7135 1126.41 33.8535 1127.55 34.0035C1131.08 34.7234 1131.08 34.7234 1134.31 35.0035L1137.01 33.0035C1141.59 31.7435 1144.79 30.4635 1149.43 31.9335C1150.27 32.2935 1151.08 32.6435 1151.88 33.0035C1153.67 32.6661 1155.46 32.3387 1157.24 32.0114L1157.28 32.0035C1161.41 33.5635 1164.39 34.2735 1169.03 34.5035C1172.26 34.6535 1172.26 34.6535 1174.85 35.0035L1176.21 37.0035C1180.27 36.8735 1184.31 36.8235 1188.37 37.0035C1192.71 37.9435 1196.24 39.5835 1200.4 38.0735C1203.24 37.0035 1203.24 37.0035 1206.4 36.7335L1209.75 36.7535C1213.93 36.7335 1217.24 37.0935 1221.32 37.8835C1232.43 40.4135 1243.28 43.3035 1255.03 43.1235C1258.56 42.9435 1258.56 42.9435 1261.35 43.0035L1264.06 45.0035C1270.03 45.8635 1276.22 46.2134 1282.29 45.7335C1292.3 44.5635 1292.3 44.5635 1306.89 50.6235C1310.58 52.2234 1313.83 53.6135 1318.12 54.0035C1320.82 52.0035 1320.82 52.0035 1325.39 51.8735C1327.05 51.9135 1328.67 51.9535 1330.28 52.0035C1334.81 52.0035 1338.95 51.8935 1343.38 52.5035C1344.96 52.7535 1344.96 52.7535 1346.5 53.0035V51.0035C1349.21 50.0035 1349.21 50.0035 1354.11 48.9335C1355.67 48.6135 1357.17 48.3035 1358.67 48.0035V45.0035H1362.72C1365.42 42.0035 1365.42 42.0035 1368.36 41.0535C1369.49 40.8035 1370.59 40.5535 1371.68 40.3135C1372.81 40.0552 1373.91 39.8069 1375.01 39.5586L1375.03 39.5535C1375.9 39.3635 1376.75 39.1835 1377.59 39.0035V37.0035C1380.36 35.1835 1382.89 34.0335 1386.29 32.9735C1391.47 31.6135 1395.62 30.6335 1399.65 27.8135C1401.92 26.0035 1401.92 26.0035 1405.63 25.2535C1406.67 25.1635 1407.67 25.0835 1408.67 25.0035L1407.32 22.0035L1416.78 21.0035V18.0035L1420.84 16.0035C1425.34 15.8235 1428.93 15.4935 1433 17.0035C1433.87 18.6735 1434.77 20.3435 1435.71 22.0035C1437.54 23.3135 1439.34 24.6435 1441.11 26.0035C1442.49 29.1835 1442.61 31.4435 1446.52 33.2535C1447.44 33.5035 1448.33 33.7535 1449.22 34.0035C1451.92 36.0035 1451.92 36.0035 1453.45 38.6235L1453.54 38.8002C1453.91 39.5473 1454.28 40.2711 1454.63 41.0035H1457.33L1460.03 45.0035H1465.44C1469.81 48.5935 1472.04 50.2735 1478.54 50.6235C1481.69 50.6635 1481.69 50.6635 1484.36 51.0035C1486.79 54.2035 1486.79 54.2035 1491.29 55.6835C1492.62 56.1335 1493.9 56.5635 1495.17 57.0035V59.0035L1495.25 58.9951C1496.47 58.8534 1496.5 58.8506 1497.74 58.7035C1498.89 58.5435 1499.99 58.4035 1501.09 58.2535C1502.21 58.1058 1503.29 57.9678 1504.37 57.8299L1504.42 57.8235C1507.55 57.1935 1507.55 57.1935 1508.92 55.0335C1509.27 54.3898 1509.41 54.1484 1509.59 53.8138L1510.04 53.0035C1515.27 49.6135 1515.27 49.6135 1527.6 49.8935C1528.53 49.9335 1529.42 49.9635 1530.31 50.0035V48.0035C1533.44 47.7035 1533.44 47.7035 1537.07 47.0035C1539.33 45.9935 1541.57 44.9935 1543.83 44.0035C1548.98 42.9935 1552.48 42.5535 1556.43 39.8735C1557.58 38.9235 1557.58 38.9235 1558.7 38.0035H1561.4C1561.49 37.2135 1561.58 36.4535 1561.66 35.6835C1562.75 33.0035 1562.75 33.0035 1566.13 31.3735C1567.85 30.6835 1567.85 30.6835 1569.51 30.0035C1570.86 27.0035 1570.86 27.0035 1572.65 25.3835C1578.81 21.6435 1578.81 21.6435 1599.12 21.9335C1600.1 21.9535 1601.01 21.9734 1601.95 22.0035V20.0035C1603.24 19.9335 1604.5 19.8736 1605.76 19.8137L1605.76 19.8135C1610.06 20.0035 1610.06 20.0035 1612.18 21.3735C1614.06 23.1635 1614.06 23.1635 1617.25 24.0635C1618.48 24.3835 1619.68 24.6935 1620.87 25.0035C1625.48 26.3735 1628.17 27.0835 1633.13 26.5635C1637.09 26.0035 1637.09 26.0035 1640.56 26.5035C1644.37 27.0735 1646.9 26.8335 1650.6 26.0035L1651.96 24.0035H1656.01C1660.06 26.0035 1660.06 26.0035 1661.67 28.1235C1662.23 29.0735 1662.23 29.0735 1662.77 30.0035C1666.4 29.8135 1666.4 29.8135 1670.88 30.0035C1674.7 31.2835 1676.99 32.1535 1679.08 34.8735C1681.46 38.8835 1684.05 41.5135 1689.64 43.1235C1693.85 44.0035 1693.85 44.0035 1697.75 45.4335C1705.22 48.2035 1711.75 50.0535 1720.13 50.5635C1723.59 50.6935 1723.59 50.6935 1726.29 51.0035C1727.82 53.2435 1727.82 53.2435 1728.24 58.2935C1728.29 59.0335 1728.35 59.7635 1728.4 60.4835C1729.03 68.9235 1729.2 77.3335 1729.18 85.7835C1729.17 87.4735 1729.17 89.1535 1729.18 90.8435V104.733V119.443V144.113C1729.17 153.683 1729.17 163.243 1729.17 172.803C1729.18 181.113 1729.18 189.413 1729.18 197.713V212.513V226.633C1729.18 228.363 1729.18 230.093 1729.17 231.813C1729.18 234.233 1729.18 236.653 1729.18 239.063C1729.17 240.163 1729.17 240.163 1729.17 241.233Z" fill="url(#paint0_linear_157_453)" fill-opacity="0.41"/>
<defs>
<linearGradient id="paint0_linear_157_453" x1="864.596" y1="681.499" x2="864.596" y2="10.0035" gradientUnits="userSpaceOnUse">
<stop stop-color="#011855"/>
<stop offset="1" stop-color="#54005B"/>
</linearGradient>
</defs>
</svg>
