<svg width="1728" height="291" viewBox="0 0 1728 291" fill="none" xmlns="http://www.w3.org/2000/svg">
<path d="M1728.99 100.206C1728.99 101.185 1728.95 102.161 1728.81 103.14L1728.05 280.166L1709.32 277.132L1697.57 280.166L1689.46 277.132L1662.59 280.166L1650.43 277.132L1632.95 280.166L1620.7 276.266L1601.78 280.166L1586.83 277.132H1572.48L1556.26 280.166L1543.66 274.966C1543.66 269.043 1537.5 259.191 1512.84 267.165C1488.18 275.139 1470.86 273.954 1465.28 272.365C1461.29 271.354 1447.91 269.332 1426.35 269.332C1404.79 269.332 1390.56 283.777 1386.14 291L1368.21 280.166L1346.36 283.2L1338.36 276.266L1317.98 283.2C1309.94 281.177 1291.52 277.132 1282.15 277.132C1272.78 277.132 1253.39 281.177 1244.87 283.2L1221.19 280.166L1206.27 274.966L1200.27 280.166C1196.26 281.177 1185.81 283.2 1176.08 283.2C1166.35 283.2 1159.41 279.155 1157.16 277.132L1136.89 274.966L1127.43 277.132L1117.8 274.966L1107.15 272.365H1096.86V277.132H1073.37L1070.42 274.966L1054.38 277.132L1044.31 280.166L1022.01 283.2L1015.26 277.132L1003.39 269.332L989.756 274.966L977.893 272.365L963.323 269.332L943.632 272.365L931.469 274.966L916.899 277.132L895.373 274.966L882.818 272.365L873.439 266.732L861.966 261.531L851.735 269.332L844.978 272.365L835.907 269.332C830.372 268.465 815.45 268.379 800.043 274.966C780.786 283.2 732.81 274.966 711.62 269.332C694.667 264.825 671.834 267.454 662.536 269.332L647.926 266.732L618.79 269.332L596.316 266.732L592.262 269.332H572.328L543.732 263.698L531.448 269.332L500.77 272.365L489.442 266.732L466.445 263.698L453.498 266.732C449.299 267.599 435.07 268.812 411.739 266.732C388.408 264.652 375.828 267.599 372.454 269.332L349.519 261.531L339.545 266.732L331.018 272.365L317.923 266.732H315.058L296.962 269.332L280.258 266.732C266.713 267.599 233.034 268.812 206.687 266.732C180.339 264.652 187.899 267.599 194.972 269.332L158.184 266.732L148.995 269.332H139.535V266.732H128.534C122.741 267.599 109.82 269.939 104.482 272.365C99.143 274.792 96.4081 273.377 95.7079 272.365L83.4837 269.332C80.8554 270.343 74.6527 272.365 70.8687 272.365C67.0847 272.365 61.0123 274.099 58.4491 274.966L45.4876 272.365L39.5292 269.332L28.9892 266.732L23.4067 269.332L14.1089 266.732H0V100.414C0 100.085 0.0135133 99.764 0.0135133 99.4433C0.0135133 98.3469 0.0135136 97.2549 0.0270278 96.1628C0.0270278 95.3611 0.0405424 94.555 0.0405424 93.7533C0.0405424 91.5692 0.0405427 89.385 0.0540569 87.2052C0.0810854 84.8824 0.0810851 82.5596 0.0945993 80.2368C0.0945993 75.8555 0.108113 71.4742 0.135142 67.0886C0.175684 62.0616 0.189199 57.0303 0.202713 51.999C0.229742 41.165 0.283799 30.3309 0.337856 19.5013L5.74355 20.368L5.74441 20.3678C9.79783 19.5013 9.79813 19.5012 14.1089 19.0115C15.4062 18.8815 16.6631 18.7559 17.9064 18.6345V17.7678H20.6092V16.4677C21.5687 16.2164 22.4877 15.9737 23.4067 15.7354C28.2448 15.042 31.5828 14.977 36.8263 15.1676L39.5292 16.4677C48.6378 17.4991 48.6378 17.4991 58.4491 17.3344V16.4677C62.8007 15.796 66.0712 15.029 70.8687 15.3843C71.7066 15.458 72.5174 15.5273 73.3148 15.601C74.0986 15.3973 74.8554 15.198 75.5987 15.003C81.5179 13.6682 88.7346 13.7809 95.7079 14.0539C96.8296 14.1362 97.9107 14.2186 98.9919 14.3009V13.4342L111.155 12.5675V11.7007L117.912 12.1341V11.2674C121.534 10.9944 124.818 10.8297 128.534 10.8037C132.21 10.8297 135.872 10.8643 139.535 10.834C140.886 10.4007 140.886 10.4007 144.697 10.184C146.157 10.1103 147.576 10.0367 148.995 9.96732C152.319 9.6423 154.671 9.53394 158.184 9.58594C159.549 9.62927 160.86 9.67694 162.171 9.72028C164.212 9.78961 164.212 9.78961 166.212 9.85461C167.252 9.89362 168.266 9.92831 169.266 9.96732V9.10059C174.631 9.88065 179.658 10.1797 185.483 10.4007V9.53394C192.524 10.2967 199.551 11.068 206.687 11.7267C209.133 11.9478 211.579 12.1818 213.958 12.4591C218.255 12.9575 222.161 13.4039 226.729 13.5209C231.648 13.5902 235.459 13.5642 239.621 14.4699C246.094 16.2511 249.527 16.7061 258.122 16.5284H258.123C261.163 16.4677 261.163 16.4677 264.798 16.6541C265.857 16.7357 266.875 16.8174 267.894 16.899L267.92 16.9011L267.939 16.9017C272.189 17.0532 276.21 17.1965 280.258 17.6638C282.88 18.0061 285.543 18.3182 288.191 18.6345C295.34 17.8675 295.34 17.8675 315.058 19.6616C316.031 19.7569 316.977 19.8436 317.923 19.9346V19.0679C321.977 18.2012 321.977 18.2012 326.22 17.8285C327.856 17.7158 329.437 17.6075 331.018 17.4948C332.667 17.3778 334.261 17.2651 335.856 17.1524C337.111 17.0659 338.326 16.9837 339.541 16.9015L339.545 16.9011V16.0344C343.275 15.965 345.992 15.9954 349.519 16.4114C362.439 18.1882 373.574 17.7028 386.926 16.6714C389.17 16.4981 391.427 16.342 393.697 16.1947C394.38 16.1516 395.048 16.1109 395.705 16.0709L396.305 16.0344V15.1676C397.116 14.964 397.9 14.7646 398.67 14.5696C399.711 14.3313 400.711 14.0972 401.711 13.8676C405.008 12.6195 406.765 12.1644 411.739 11.7094L412.682 11.6575C417.162 11.4111 421.617 11.166 426.037 10.834L427.388 9.96732C428.415 9.91098 429.402 9.85464 430.388 9.80264L431.28 9.78293C434.495 9.71185 437.698 9.64102 440.902 9.53394L443.605 9.10059C448.349 9.60327 448.349 9.60327 453.498 9.5036C460.498 9.42993 464.958 9.92828 471.174 10.912C479.404 12.2814 491.243 14.769 500.77 14.0713C511.676 12.8578 520.312 12.1645 531.448 13.4342V14.3009L536.853 13.8676C537.529 14.769 537.529 14.769 539.556 15.601C540.975 15.679 542.354 15.757 543.732 15.8307C550.07 15.8784 556.192 15.8047 562.287 16.4157C567.842 17.3258 570.18 18.6692 572.328 20.5023C572.842 21.0917 572.842 21.0917 573.342 21.6681L576.045 21.2347C579.599 21.5814 582.221 21.9324 585.005 22.7211C585.937 23.0635 585.937 23.0635 586.856 23.4015L586.858 23.402C589.059 24.0515 589.06 24.0517 590.91 24.7016L592.262 26.0017H596.316V26.8684C600.789 26.7817 600.789 26.7817 605.776 26.435C610.452 25.1349 612.628 24.5846 618.79 24.6192C620.763 24.6582 622.737 24.6886 624.696 24.7016L628.75 24.2682C638.359 23.4058 647.954 22.4958 657.13 21.2347C659.833 20.745 659.833 20.745 662.535 20.3681L662.536 20.368C663.685 20.3853 664.806 20.4026 665.915 20.42C669.55 20.4763 669.55 20.4763 672.253 19.5013C673.091 19.2066 673.901 18.9205 674.699 18.6345H677.402V17.7678L681.456 17.3344V16.4677H684.159V15.601H686.862C687.037 15.185 687.037 15.185 687.213 14.7776C688.213 13.8676 688.213 13.8676 690.619 13.4385C693.727 13.0875 696.308 12.7278 699.024 12.1341C700.214 11.3021 700.214 11.3021 700.633 10.3703C700.781 10.0583 700.93 9.75494 701.079 9.4516C701.727 8.66727 701.727 8.66724 704.943 7.96103L704.944 7.96085C708.89 7.40616 708.89 7.40613 711.62 5.98471L711.689 5.94751C712.769 5.36908 712.792 5.35696 713.89 4.76697L714.75 4.80579C720.963 5.08691 726.621 5.34293 732.81 4.76697V3.90024C735.54 3.63589 738.243 3.34122 740.919 3.03354C743.148 2.58286 745.392 2.14948 747.676 1.73346L751.73 2.16681C753.338 1.30008 753.338 1.30008 755.784 0.43335C760.393 0.134338 760.393 0.134338 768.38 1.0834C770.069 1.30441 771.718 1.51678 773.353 1.73346V0.86673L777.407 0C781.326 0.0780029 782.691 0.390015 785.516 1.26974C789.002 2.41815 791.894 2.93387 796.814 3.21121C797.922 3.24155 798.989 3.27188 800.043 3.30222C801.962 3.35855 803.881 3.41489 805.787 3.46689V2.60016H808.49C809.841 3.46667 809.841 3.46689 811.286 4.60147L811.287 4.60229C811.72 4.95331 812.139 5.29135 812.544 5.6337C814.801 5.61203 817.058 5.61203 819.301 5.6337C820.774 6.12772 820.774 6.12775 823.261 6.64777C824.891 6.99341 824.896 6.99445 826.477 7.33377L826.491 7.33679C832.397 8.6152 838.289 9.61194 844.978 10.4007C847.235 10.535 849.492 10.6823 851.735 10.834C855.655 11.6704 857.492 11.8568 861.966 12.1038C865.181 12.2814 865.182 12.2815 867.951 12.5673L867.953 12.5675C870.25 13.8806 870.25 13.8806 873.439 14.3703C874.534 14.5219 875.602 14.6693 876.656 14.8123L876.658 14.8127C879.791 15.2716 879.792 15.2718 882.818 15.601H886.872L887.024 15.6269C890.017 16.1363 891.917 16.4598 895.373 16.5024C896.432 16.4642 897.452 16.426 898.471 16.3878L898.535 16.3854C901.671 16.316 901.671 16.316 904.441 16.0344L907.144 14.7343C911.293 15.6183 914.455 16.1167 919.307 16.4677L919.56 16.4163C920.429 16.2398 921.266 16.0695 922.104 15.8957C924.712 15.1676 924.712 15.1676 928.429 14.8686C929.469 14.821 930.469 14.7776 931.469 14.7343V13.8676L935.524 13.4342V11.2674C936.618 11.0897 937.686 10.9207 938.74 10.7517C940.375 10.4917 942.011 10.2317 943.632 9.96732C950.106 8.80157 955.714 7.64883 963.323 7.69217C964.904 7.72684 966.431 7.76151 967.958 7.80051C969.309 7.36716 969.309 7.36713 972.323 7.15045C979.121 6.85577 983.932 6.64777 989.756 7.93484C991.473 8.33786 993.216 8.72357 994.986 9.10059C1000.84 9.79831 1005.46 10.1016 1011.54 9.61194C1012.81 9.4386 1014.04 9.26959 1015.26 9.10059C1017.51 8.95758 1019.77 8.81458 1022.01 8.66724C1026.87 7.99118 1031.56 7.48413 1036.84 7.28479C1040.29 7.38446 1041.66 7.74847 1044.31 8.45053C1046.57 9.07458 1046.57 9.07458 1049.04 9.53394C1054.17 9.68127 1058.71 9.23492 1063.49 8.66724L1063.49 8.66696C1066.61 8.23389 1066.61 8.2338 1070.42 7.96085C1071.42 7.90451 1072.4 7.85251 1073.37 7.80051V6.93378C1076.23 6.66943 1078.84 6.49606 1081.83 6.43973C1082.88 6.44406 1083.92 6.44409 1084.95 6.44409C1086.53 6.44409 1086.53 6.44406 1088.07 6.43973C1091.71 6.5134 1094.24 6.68677 1096.86 7.5275C1099.55 8.38989 1102.51 8.93155 1105.8 9.53394L1107.15 8.23386C1109.21 8.67154 1109.21 8.67157 1111.21 9.10059C1115.26 9.10059 1115.26 9.10059 1117.8 9.5036L1117.81 9.50378C1120.66 10.0063 1120.66 10.0063 1123.97 10.21C1125.14 10.275 1126.29 10.3357 1127.43 10.4007C1130.95 10.7127 1130.95 10.7127 1134.18 10.834L1136.89 9.96732C1141.47 9.4213 1144.67 8.86655 1149.31 9.5036C1150.14 9.65961 1150.95 9.81131 1151.75 9.96732C1153.56 9.81998 1155.36 9.67694 1157.16 9.53394C1161.28 10.21 1164.27 10.5177 1168.9 10.6173C1172.13 10.6823 1172.13 10.6823 1174.73 10.834L1176.08 11.7007C1180.15 11.6444 1184.19 11.6227 1188.24 11.7007C1192.58 12.1081 1196.11 12.8188 1200.27 12.1645C1203.11 11.7008 1203.11 11.7007 1206.27 11.5837L1209.62 11.5924C1213.8 11.5837 1217.11 11.7398 1221.19 12.0821C1232.3 13.1785 1243.15 14.4309 1254.89 14.3529C1258.42 14.2749 1258.42 14.2749 1261.22 14.3009L1263.92 15.1676C1269.89 15.5403 1276.08 15.692 1282.15 15.484C1292.16 14.977 1292.16 14.977 1306.75 17.6031C1310.44 18.2965 1313.69 18.8989 1317.98 19.0679C1320.68 18.2012 1320.68 18.2012 1325.25 18.1448C1326.91 18.1622 1328.53 18.1795 1330.14 18.2012C1334.67 18.2012 1338.8 18.1535 1343.24 18.4178C1344.82 18.5262 1344.82 18.5262 1346.36 18.6345V17.7678C1349.06 17.3344 1349.06 17.3344 1353.97 16.8708L1354.46 16.8263C1355.84 16.7033 1357.18 16.5838 1358.52 16.4677V15.1676H1362.57C1365.28 13.8676 1365.28 13.8676 1368.21 13.4559C1369.34 13.3475 1370.44 13.2392 1371.53 13.1352C1372.67 13.0225 1373.78 12.9142 1374.89 12.8058C1375.5 12.7473 1376.11 12.6909 1376.71 12.6352L1377.44 12.5675V11.7007C1380.21 10.912 1382.74 10.4137 1386.14 9.95432L1387.01 9.85632C1391.78 9.31467 1395.69 8.87155 1399.49 7.71817C1401.77 6.93378 1401.77 6.93378 1405.48 6.60876C1406.52 6.56976 1407.52 6.5351 1408.52 6.50043L1407.17 5.20035L1416.63 4.76697V3.46689L1420.69 2.60016C1425.19 2.52216 1428.78 2.37915 1432.85 3.03354C1433.71 3.75726 1434.62 4.48096 1435.55 5.20035C1437.39 5.76804 1439.19 6.34439 1440.96 6.93378C1442.34 8.31186 1442.46 9.29126 1446.36 10.0757C1447.28 10.184 1448.17 10.2923 1449.07 10.4007C1451.77 11.2674 1451.77 11.2674 1453.3 12.4028L1453.39 12.4842C1453.76 12.8062 1454.12 13.1184 1454.47 13.4342H1457.17L1459.88 15.1676H1465.28C1469.65 16.7234 1471.88 17.4514 1478.38 17.6031C1481.53 17.6205 1481.53 17.6205 1484.2 17.7678C1486.63 19.1545 1486.63 19.1545 1491.14 19.7959C1492.46 19.9909 1493.74 20.1773 1495.01 20.368V21.2347L1495.08 21.2313C1496.31 21.1696 1496.33 21.1685 1497.58 21.1047C1498.73 21.0354 1499.82 20.9747 1500.93 20.9097C1502.07 20.8447 1503.16 20.784 1504.26 20.7233C1507.39 20.4503 1507.39 20.4503 1508.76 19.5143L1508.84 19.4493C1509.33 19.0668 1509.35 19.0457 1509.88 18.6345C1515.11 17.1654 1515.11 17.1654 1527.43 17.2868C1528.37 17.3041 1529.26 17.3171 1530.15 17.3344V16.4677C1533.27 16.3377 1533.27 16.3377 1536.91 16.0344C1539.16 15.5967 1541.41 15.1633 1543.66 14.7343C1548.81 14.2966 1552.31 14.1059 1556.26 12.9445C1557.41 12.5328 1557.41 12.5328 1558.53 12.1341H1561.23C1561.33 11.7918 1561.41 11.4624 1561.49 11.1287C1562.58 9.96732 1562.58 9.96732 1565.96 9.26093C1567.68 8.96191 1567.68 8.96191 1569.34 8.66724C1570.69 7.36716 1570.69 7.36716 1572.48 6.6651C1578.64 5.04434 1578.64 5.04431 1598.95 5.16998C1599.92 5.17865 1600.84 5.18735 1601.78 5.20035V4.33362C1602.54 4.31583 1603.28 4.2995 1604.03 4.28381L1605.59 4.25128C1609.88 4.33362 1609.88 4.33359 1612.01 4.92731C1613.89 5.70303 1613.89 5.70303 1617.07 6.09305C1618.3 6.23172 1619.51 6.36609 1620.7 6.50043C1625.3 7.09415 1627.99 7.40179 1632.95 7.17645C1636.91 6.93378 1636.91 6.93378 1640.39 7.15045C1644.2 7.39746 1646.72 7.29346 1650.43 6.93378L1651.78 6.06705H1655.83C1659.89 6.93378 1659.89 6.93378 1661.5 7.85251C1662.05 8.26419 1662.05 8.26422 1662.59 8.66724C1666.23 8.5849 1666.23 8.5849 1670.7 8.66724C1674.52 9.22192 1676.81 9.59894 1678.9 10.7777C1681.28 12.5155 1683.88 13.6552 1689.46 14.3529C1693.67 14.7343 1693.67 14.7343 1697.57 15.354C1705.04 16.5544 1711.57 17.3561 1719.94 17.5771C1723.4 17.6335 1723.4 17.6335 1726.11 17.7678C1727.63 18.7385 1727.63 18.7386 1728.05 20.927C1728.11 21.2477 1728.16 21.5641 1728.22 21.8761C1728.85 25.5336 1729.01 29.1782 1729 32.8401C1728.99 33.5725 1728.99 34.3005 1729 35.0329V41.0523V47.427V58.118C1728.99 62.2653 1728.99 66.4082 1728.99 70.5512C1729 74.1524 1729 77.7493 1729 81.3462V87.7599V93.879C1729 94.6287 1729 95.3784 1728.99 96.1238C1729 97.1725 1729 98.2213 1729 99.2657C1728.99 99.7424 1728.99 99.7424 1728.99 100.206Z" fill="url(#paint0_linear_157_1269)"/>
<defs>
<linearGradient id="paint0_linear_157_1269" x1="864.912" y1="300.319" x2="860.682" y2="-0.257036" gradientUnits="userSpaceOnUse">
<stop stop-color="#3D6EB7"/>
<stop offset="1" stop-color="#3D84E4"/>
</linearGradient>
</defs>
</svg>
