<svg width="1728" height="311" viewBox="0 0 1728 311" fill="none" xmlns="http://www.w3.org/2000/svg">
<path d="M1728.99 110.206C1728.99 111.185 1728.95 112.161 1728.81 113.14L1728.05 290.166L1709.32 287.132L1697.57 290.166L1689.46 287.132L1662.59 290.166L1650.43 287.132L1632.95 290.166L1620.7 286.266L1601.78 290.166L1586.83 287.132H1572.48L1556.26 290.166L1543.66 284.966C1543.66 279.043 1537.5 269.191 1512.84 277.165C1488.18 285.139 1470.86 283.954 1465.28 282.365C1461.29 281.354 1447.91 279.332 1426.35 279.332C1404.79 279.332 1390.56 293.777 1386.14 301L1368.21 290.166L1346.36 293.2L1338.36 286.266L1317.98 293.2C1309.94 291.177 1291.52 287.132 1282.15 287.132C1272.78 287.132 1253.39 291.177 1244.87 293.2L1221.19 290.166L1206.27 284.966L1200.27 290.166C1196.26 291.177 1185.81 293.2 1176.08 293.2C1166.35 293.2 1159.41 289.155 1157.16 287.132L1136.89 284.966L1127.43 287.132L1117.8 284.966L1107.15 282.365H1096.86V287.132H1073.37L1070.42 284.966L1054.38 287.132L1044.31 290.166L1022.01 293.2L1015.26 287.132L1003.39 279.332L989.756 284.966L977.893 282.365L963.323 279.332L943.632 282.365L931.469 284.966L916.899 287.132L895.373 284.966L882.818 282.365L873.439 276.732L861.966 271.531L851.735 279.332L844.978 282.365L835.907 279.332C830.372 278.465 815.45 278.379 800.043 284.966C780.786 293.2 732.81 284.966 711.62 279.332C694.667 274.825 671.834 277.454 662.536 279.332L647.926 276.732L618.79 279.332L596.316 276.732L592.262 279.332H572.328L543.732 273.698L531.448 279.332L500.77 282.365L489.442 276.732L466.445 273.698L453.498 276.732C449.299 277.599 435.07 278.812 411.739 276.732C388.408 274.652 375.828 277.599 372.454 279.332L349.519 271.531L339.545 276.732L331.018 282.365L317.923 276.732H315.058L296.962 279.332L280.258 276.732C266.713 277.599 233.034 278.812 206.687 276.732C180.339 274.652 187.899 277.599 194.972 279.332L158.184 276.732L148.995 279.332H139.535V276.732H128.534C122.741 277.599 109.82 279.939 104.482 282.365C99.143 284.792 96.4081 283.377 95.7079 282.365L83.4837 279.332C80.8554 280.343 74.6527 282.365 70.8687 282.365C67.0847 282.365 61.0123 284.099 58.4491 284.966L45.4876 282.365L39.5292 279.332L28.9892 276.732L23.4067 279.332L14.1089 276.732H0V110.414C0 110.085 0.0135133 109.764 0.0135133 109.443C0.0135133 108.347 0.0135136 107.255 0.0270278 106.163C0.0270278 105.361 0.0405424 104.555 0.0405424 103.753C0.0405424 101.569 0.0405427 99.385 0.0540569 97.2052C0.0810854 94.8824 0.0810851 92.5596 0.0945993 90.2368C0.0945993 85.8555 0.108113 81.4742 0.135142 77.0886C0.175684 72.0616 0.189199 67.0303 0.202713 61.999C0.229742 51.165 0.283799 40.3309 0.337856 29.5013L5.74355 30.368C9.79783 29.5013 9.79783 29.5013 14.1089 29.0115C15.4062 28.8815 16.6631 28.7559 17.9064 28.6345V27.7678H20.6092V26.4677C21.5687 26.2164 22.4877 25.9737 23.4067 25.7354C28.2448 25.042 31.5828 24.977 36.8263 25.1676L39.5292 26.4677C48.6378 27.4991 48.6378 27.4991 58.4491 27.3344V26.4677C62.8007 25.796 66.0712 25.029 70.8687 25.3843C71.7066 25.458 72.5174 25.5273 73.3148 25.601C73.9237 25.4428 74.5163 25.2872 75.0989 25.1342L75.5987 25.003C81.5179 23.6682 88.7346 23.7809 95.7079 24.0539C96.8296 24.1362 97.9107 24.2186 98.9919 24.3009V23.4342L111.155 22.5675V21.7007L117.912 22.1341V21.2674C121.534 20.9944 124.818 20.8297 128.534 20.8037C132.21 20.8297 135.872 20.8643 139.535 20.834C140.886 20.4007 140.886 20.4007 144.697 20.184C146.157 20.1103 147.576 20.0367 148.995 19.9673C152.319 19.6423 154.671 19.5339 158.184 19.5859C159.549 19.6293 160.86 19.6769 162.171 19.7203C164.212 19.7896 164.212 19.7896 166.212 19.8546C167.252 19.8936 168.266 19.9283 169.266 19.9673V19.1006C174.631 19.8806 179.658 20.1797 185.483 20.4007V19.5339C192.524 20.2967 199.551 21.0681 206.687 21.7267C209.133 21.9478 211.579 22.1818 213.958 22.4591C218.255 22.9575 222.161 23.4039 226.729 23.5209C231.648 23.5902 235.459 23.5642 239.621 24.4699C246.094 26.251 249.527 26.7061 258.122 26.5284H258.123C261.163 26.4677 261.163 26.4677 264.798 26.6541C265.857 26.7357 266.877 26.8175 267.896 26.8992L267.92 26.9011L267.939 26.9017C272.189 27.0532 276.21 27.1965 280.258 27.6638C282.88 28.0062 285.543 28.3182 288.191 28.6345C295.34 27.8675 295.34 27.8675 315.058 29.6616C316.031 29.7569 316.977 29.8436 317.923 29.9346V29.0679C321.977 28.2012 321.977 28.2012 326.22 27.8285C327.856 27.7158 329.437 27.6075 331.018 27.4948C332.667 27.3778 334.261 27.2651 335.856 27.1524C337.111 27.0659 338.326 26.9837 339.541 26.9015L339.545 26.9011V26.0344C343.275 25.965 345.992 25.9954 349.519 26.4114C362.439 28.1882 373.574 27.7028 386.926 26.6714C389.17 26.4981 391.427 26.342 393.697 26.1947C394.38 26.1516 395.047 26.111 395.704 26.071L396.305 26.0344V25.1676C397.116 24.964 397.9 24.7646 398.67 24.5696C399.711 24.3312 400.711 24.0972 401.711 23.8676C405.008 22.6195 406.765 22.1645 411.739 21.7094L412.686 21.6573C417.164 21.4109 421.618 21.166 426.037 20.834L427.388 19.9673C428.415 19.911 429.402 19.8546 430.388 19.8026L431.292 19.7827C434.502 19.7116 437.702 19.6409 440.902 19.5339L443.605 19.1006C448.349 19.6033 448.349 19.6033 453.498 19.5036C460.498 19.4299 464.958 19.9283 471.174 20.912C479.404 22.2815 491.243 24.769 500.77 24.0713C511.676 22.8578 520.312 22.1645 531.448 23.4342V24.3009L536.853 23.8676C537.529 24.769 537.529 24.769 539.556 25.601C540.975 25.679 542.354 25.757 543.732 25.8307C550.07 25.8784 556.192 25.8047 562.287 26.4157C567.842 27.3258 570.18 28.6692 572.328 30.5023C572.842 31.0917 572.842 31.0917 573.342 31.6681L576.045 31.2347C579.599 31.5814 582.221 31.9324 585.005 32.7211C585.937 33.0635 585.937 33.0635 586.856 33.4015C589.059 34.0515 589.059 34.0515 590.91 34.7016L592.262 36.0017H596.316V36.8684C600.789 36.7817 600.789 36.7817 605.776 36.435C610.452 35.1349 612.628 34.5846 618.79 34.6192C620.763 34.6582 622.737 34.6886 624.696 34.7016L628.75 34.2682C638.359 33.4058 647.954 32.4958 657.13 31.2347C659.833 30.745 659.833 30.745 662.536 30.368C663.685 30.3853 664.806 30.4026 665.915 30.42C669.55 30.4763 669.55 30.4763 672.253 29.5013C673.091 29.2066 673.901 28.9205 674.699 28.6345H677.402V27.7678L681.456 27.3344V26.4677H684.159V25.601H686.862C687.037 25.185 687.037 25.185 687.213 24.7776C688.213 23.8676 688.213 23.8676 690.619 23.4385C693.727 23.0875 696.308 22.7278 699.024 22.1341C700.214 21.3021 700.214 21.3021 700.633 20.3703C700.778 20.0658 700.923 19.7695 701.068 19.4735L701.079 19.4516C701.727 18.6672 701.727 18.6672 704.944 17.9608C708.89 17.4061 708.89 17.4061 711.62 15.9847C712.768 15.3694 712.768 15.3694 713.89 14.767L714.75 14.8058C720.963 15.0869 726.621 15.3429 732.81 14.767V13.9002C735.54 13.6359 738.243 13.3412 740.919 13.0335C743.148 12.5828 745.392 12.1495 747.676 11.7335L751.73 12.1668C753.338 11.3001 753.338 11.3001 755.784 10.4333C760.393 10.1343 760.393 10.1343 768.38 11.0834C770.069 11.3044 771.718 11.5168 773.353 11.7335V10.8667L777.407 10C781.326 10.078 782.691 10.39 785.516 11.2697C789.002 12.4182 791.894 12.9339 796.814 13.2112C797.922 13.2415 798.989 13.2719 800.043 13.3022C801.962 13.3586 803.881 13.4149 805.787 13.4669V12.6002H808.49C809.841 13.4669 809.841 13.4669 811.287 14.6023C811.72 14.9533 812.139 15.2914 812.544 15.6337C814.801 15.612 817.058 15.612 819.301 15.6337C820.774 16.1277 820.774 16.1277 823.261 16.6478L823.266 16.6489C824.896 16.9945 824.898 16.9948 826.491 17.3368C832.397 18.6152 838.289 19.6119 844.978 20.4007C847.235 20.535 849.492 20.6823 851.735 20.834C855.655 21.6704 857.492 21.8568 861.966 22.1038C865.182 22.2815 865.182 22.2815 867.953 22.5675C870.25 23.8806 870.25 23.8806 873.439 24.3703C874.534 24.5219 875.602 24.6693 876.656 24.8123C879.791 25.2716 879.791 25.2716 882.818 25.601H886.872L887.024 25.6269C890.017 26.1363 891.917 26.4598 895.373 26.5024C896.432 26.4642 897.452 26.426 898.471 26.3878L898.535 26.3854C901.671 26.316 901.671 26.316 904.441 26.0344L907.144 24.7343C911.293 25.6183 914.455 26.1167 919.307 26.4677L919.573 26.4137C920.437 26.2381 921.27 26.0687 922.104 25.8957C924.712 25.1676 924.712 25.1676 928.429 24.8686C929.469 24.821 930.469 24.7776 931.469 24.7343V23.8676L935.524 23.4342V21.2674C936.618 21.0897 937.686 20.9207 938.74 20.7517C940.375 20.4917 942.011 20.2317 943.632 19.9673C950.106 18.8016 955.714 17.6488 963.323 17.6922C964.904 17.7268 966.431 17.7615 967.958 17.8005C969.309 17.3671 969.309 17.3671 972.323 17.1505C979.121 16.8558 983.932 16.6478 989.756 17.9348C991.473 18.3379 993.216 18.7236 994.986 19.1006C1000.84 19.7983 1005.46 20.1017 1011.54 19.6119C1012.81 19.4386 1014.04 19.2696 1015.26 19.1006C1017.51 18.9576 1019.77 18.8146 1022.01 18.6672C1026.87 17.9912 1031.56 17.4842 1036.84 17.2848C1040.29 17.3845 1041.66 17.7485 1044.31 18.4505C1046.57 19.0746 1046.57 19.0746 1049.04 19.5339C1054.17 19.6813 1058.71 19.2349 1063.49 18.6672C1066.61 18.2339 1066.61 18.2339 1070.42 17.9608C1071.42 17.9045 1072.4 17.8525 1073.37 17.8005V16.9338C1076.23 16.6694 1078.84 16.4961 1081.83 16.4397C1082.88 16.4441 1083.92 16.4441 1084.95 16.4441C1086.52 16.4441 1086.53 16.4441 1088.04 16.4398L1088.07 16.4397C1091.71 16.5134 1094.24 16.6868 1096.86 17.5275C1099.55 18.3899 1102.51 18.9316 1105.8 19.5339L1107.15 18.2339C1109.21 18.6716 1109.21 18.6716 1111.21 19.1006C1115.26 19.1006 1115.26 19.1006 1117.8 19.5036C1120.66 20.0063 1120.66 20.0063 1123.97 20.21C1125.14 20.275 1126.29 20.3357 1127.43 20.4007C1130.95 20.7127 1130.95 20.7127 1134.18 20.834L1136.89 19.9673C1141.47 19.4213 1144.67 18.8666 1149.31 19.5036C1150.14 19.6596 1150.95 19.8113 1151.75 19.9673C1153.56 19.82 1155.36 19.6769 1157.16 19.5339C1161.28 20.21 1164.27 20.5177 1168.9 20.6173C1172.13 20.6823 1172.13 20.6823 1174.73 20.834L1176.08 21.7007C1180.15 21.6444 1184.19 21.6227 1188.24 21.7007C1192.58 22.1081 1196.11 22.8188 1200.27 22.1645C1203.11 21.7007 1203.11 21.7007 1206.27 21.5837L1209.62 21.5924C1213.8 21.5837 1217.11 21.7397 1221.19 22.0821C1232.3 23.1785 1243.15 24.4309 1254.89 24.3529C1258.42 24.2749 1258.42 24.2749 1261.22 24.3009L1263.92 25.1676C1269.89 25.5403 1276.08 25.692 1282.15 25.484C1292.16 24.977 1292.16 24.977 1306.75 27.6031C1310.44 28.2965 1313.69 28.8989 1317.98 29.0679C1320.68 28.2012 1320.68 28.2012 1325.25 28.1448C1326.91 28.1622 1328.53 28.1795 1330.14 28.2012C1334.67 28.2012 1338.8 28.1535 1343.24 28.4178C1344.82 28.5262 1344.82 28.5262 1346.36 28.6345V27.7678C1349.06 27.3344 1349.06 27.3344 1353.97 26.8708C1355.52 26.7321 1357.02 26.5977 1358.52 26.4677V25.1676H1362.57C1365.28 23.8676 1365.28 23.8676 1368.21 23.4559C1369.34 23.3475 1370.44 23.2392 1371.53 23.1352C1372.67 23.0225 1373.78 22.9142 1374.89 22.8058C1375.5 22.7473 1376.11 22.6909 1376.71 22.6352L1377.44 22.5675V21.7007C1380.21 20.912 1382.74 20.4137 1386.14 19.9543L1387.01 19.8564C1391.78 19.3148 1395.69 18.8716 1399.49 17.7182C1401.77 16.9338 1401.77 16.9338 1405.48 16.6088C1406.52 16.5698 1407.52 16.5351 1408.52 16.5004L1407.17 15.2003L1416.63 14.767V13.4669L1420.69 12.6002C1425.19 12.5222 1428.78 12.3792 1432.85 13.0335C1433.71 13.7572 1434.62 14.481 1435.55 15.2003C1437.39 15.768 1439.19 16.3444 1440.96 16.9338C1442.34 18.3119 1442.46 19.2913 1446.36 20.0757C1447.28 20.184 1448.17 20.2923 1449.07 20.4007C1451.77 21.2674 1451.77 21.2674 1453.3 22.4028C1453.7 22.7538 1454.09 23.0918 1454.47 23.4342H1457.17L1459.88 25.1676H1465.28C1469.65 26.7234 1471.88 27.4514 1478.38 27.6031C1481.53 27.6205 1481.53 27.6205 1484.2 27.7678C1486.63 29.1546 1486.63 29.1546 1491.14 29.7959C1492.46 29.9909 1493.74 30.1773 1495.01 30.368V31.2347L1495.1 31.2305C1496.31 31.1696 1496.34 31.1683 1497.58 31.1047C1498.73 31.0353 1499.82 30.9747 1500.93 30.9097C1502.07 30.8447 1503.16 30.784 1504.26 30.7233C1507.39 30.4503 1507.39 30.4503 1508.76 29.5143C1509.33 29.0679 1509.33 29.0679 1509.88 28.6345C1515.11 27.1654 1515.11 27.1654 1527.43 27.2868C1528.37 27.3041 1529.26 27.3171 1530.15 27.3344V26.4677C1533.27 26.3377 1533.27 26.3377 1536.91 26.0344C1539.16 25.5967 1541.41 25.1633 1543.66 24.7343C1548.81 24.2966 1552.31 24.1059 1556.26 22.9445L1557.32 22.5652C1557.64 22.4522 1557.91 22.3536 1558.53 22.1341H1561.23C1561.33 21.7917 1561.41 21.4624 1561.49 21.1287C1562.58 19.9673 1562.58 19.9673 1565.96 19.2609C1567.68 18.9619 1567.68 18.9619 1569.34 18.6672C1570.69 17.3671 1570.69 17.3672 1572.48 16.6651C1578.64 15.0443 1578.64 15.0443 1598.95 15.17C1599.92 15.1786 1600.84 15.1873 1601.78 15.2003V14.3336C1602.54 14.3158 1603.28 14.2995 1604.03 14.2838L1605.59 14.2513C1609.88 14.3336 1609.88 14.3336 1612.01 14.9273C1613.89 15.703 1613.89 15.703 1617.07 16.093C1618.3 16.2317 1619.51 16.3661 1620.7 16.5004C1625.3 17.0941 1627.99 17.4018 1632.95 17.1765C1636.91 16.9338 1636.91 16.9338 1640.39 17.1505C1644.2 17.3975 1646.72 17.2935 1650.43 16.9338L1651.78 16.067H1655.83C1659.89 16.9338 1659.89 16.9338 1661.5 17.8525C1662.05 18.2642 1662.05 18.2642 1662.59 18.6672C1666.23 18.5849 1666.23 18.5849 1670.7 18.6672C1674.52 19.2219 1676.81 19.5989 1678.9 20.7777C1681.28 22.5155 1683.88 23.6552 1689.46 24.3529C1693.67 24.7343 1693.67 24.7343 1697.57 25.354C1705.04 26.5544 1711.57 27.3561 1719.94 27.5771C1723.4 27.6335 1723.4 27.6335 1726.11 27.7678C1727.63 28.7385 1727.63 28.7386 1728.05 30.927C1728.11 31.2477 1728.16 31.564 1728.22 31.8761C1728.85 35.5336 1729.01 39.1782 1729 42.8401C1728.99 43.5725 1728.99 44.3005 1729 45.0329V51.0523V57.427V68.118C1728.99 72.2653 1728.99 76.4082 1728.99 80.5512C1729 84.1524 1729 87.7493 1729 91.3462V97.7599V103.879C1729 104.629 1729 105.378 1728.99 106.124C1729 107.173 1729 108.221 1729 109.266C1728.99 109.742 1728.99 109.742 1728.99 110.206Z" fill="url(#paint0_linear_157_455)" fill-opacity="0.41"/>
<defs>
<linearGradient id="paint0_linear_157_455" x1="864.5" y1="301" x2="864.5" y2="10" gradientUnits="userSpaceOnUse">
<stop stop-color="#011855"/>
<stop offset="1" stop-color="#54005B"/>
</linearGradient>
</defs>
</svg>
