<svg width="1728" height="672" viewBox="0 0 1728 672" fill="none" xmlns="http://www.w3.org/2000/svg">
<path d="M1728.16 231.23C1728.16 233.49 1728.12 235.74 1727.99 238L1727.23 646.496L1708.49 639.496L1696.74 646.496L1688.63 639.496L1661.76 646.496L1649.6 639.496L1632.12 646.496L1619.86 637.496L1600.94 646.496L1585.99 639.496H1571.64L1555.42 646.496L1542.82 634.496C1542.82 620.829 1536.66 598.096 1511.99 616.496C1487.33 634.896 1470.01 632.162 1464.43 628.496C1460.44 626.162 1447.05 621.496 1425.49 621.496C1403.93 621.496 1389.7 654.829 1385.28 671.496L1367.35 646.496L1345.49 653.496L1337.49 637.496L1317.11 653.496C1309.07 648.829 1290.65 639.496 1281.28 639.496C1271.91 639.496 1252.52 648.829 1243.99 653.496L1220.31 646.496L1205.39 634.496L1199.39 646.496C1195.38 648.829 1184.93 653.496 1175.2 653.496C1165.47 653.496 1158.53 644.162 1156.28 639.496L1136 634.496L1126.54 639.496L1116.92 634.496L1106.27 628.496H1095.97V639.496H1072.48L1069.53 634.496L1053.49 639.496L1043.42 646.496L1021.12 653.496L1014.36 639.496L1002.49 621.496L988.857 634.496L976.992 628.496L962.421 621.496L942.729 628.496L930.564 634.496L915.992 639.496L894.464 634.496L881.908 628.496L872.528 615.496L861.054 603.496L850.822 621.496L844.064 628.496L834.992 621.496C829.456 619.496 814.533 619.296 799.125 634.496C779.865 653.496 731.885 634.496 710.692 621.496C693.738 611.096 670.902 617.162 661.604 621.496L646.992 615.496L617.853 621.496L595.377 615.496L591.322 621.496H571.387L542.788 608.496L530.502 621.496L499.821 628.496L488.492 615.496L465.492 608.496L452.544 615.496C448.345 617.496 434.114 620.296 410.781 615.496C387.447 610.696 374.866 617.496 371.492 621.496L348.555 603.496L338.58 615.496L330.052 628.496L316.955 615.496H314.09L295.992 621.496L279.287 615.496C265.74 617.496 232.058 620.296 205.708 615.496C179.358 610.696 186.918 617.496 193.992 621.496L157.2 615.496L148.01 621.496H138.549V615.496H127.547C121.753 617.496 108.831 622.896 103.492 628.496C98.1531 634.096 95.4179 630.829 94.7177 628.496L82.4922 621.496C79.8636 623.829 73.6603 628.496 69.8759 628.496C66.0916 628.496 60.0185 632.496 57.4551 634.496L44.4922 628.496L38.5332 621.496L27.9922 615.496L22.4091 621.496L13.1103 615.496H-1V231.71C-1 230.95 -0.986485 230.21 -0.986485 229.47C-0.986485 226.94 -0.986485 224.42 -0.972969 221.9C-0.972969 220.05 -0.959453 218.19 -0.959453 216.34C-0.959453 211.3 -0.959453 206.26 -0.945938 201.23C-0.918906 195.87 -0.918907 190.51 -0.905391 185.15C-0.905391 175.04 -0.891876 164.93 -0.864845 154.81C-0.824298 143.21 -0.810782 131.6 -0.797266 119.99C-0.770235 94.9901 -0.716173 69.9901 -0.66211 45.0001L4.74414 47.0001C8.79883 45.0001 8.79883 45.0001 13.1103 43.8701C14.4078 43.5701 15.6648 43.2801 16.9082 43.0001V41.0001H19.6113V38.0001C20.5709 37.42 21.49 36.86 22.4091 36.3101C27.2477 34.7101 30.586 34.5601 35.8301 35.0001L38.5332 38.0001C47.6427 40.3801 47.6427 40.3801 57.4551 40.0001V38.0001C61.8071 36.4501 65.0779 34.6801 69.8759 35.5001C70.7139 35.67 71.5248 35.8301 72.3223 36.0001C72.933 35.6339 73.5274 35.2738 74.1117 34.9197L74.6064 34.6201C80.5263 31.54 87.7436 31.8 94.7177 32.4301C95.8395 32.6201 96.9207 32.8101 98.002 33.0001V31.0001L110.166 29.0001V27.0001L116.924 28.0001V26.0001C120.546 25.3701 123.83 24.9901 127.547 24.9301C131.223 24.9901 134.886 25.0701 138.549 25.0001C139.9 24.0001 139.9 24.0001 143.712 23.5001C145.171 23.3301 146.591 23.16 148.01 23.0001C151.335 22.2501 153.686 22.0001 157.2 22.1201C158.565 22.22 159.876 22.3301 161.188 22.4301C163.228 22.59 163.228 22.59 165.229 22.7401C166.269 22.8301 167.283 22.91 168.283 23.0001V21.0001C173.649 22.8 178.677 23.4901 184.502 24.0001V22.0001C191.544 23.7601 198.572 25.54 205.708 27.0601C208.154 27.5701 210.601 28.11 212.979 28.7501C217.277 29.9001 221.183 30.9301 225.752 31.2001C230.671 31.36 234.483 31.3 238.646 33.3901C245.12 37.5001 248.553 38.55 257.148 38.1401C260.189 38.0001 260.189 38.0001 263.825 38.4301C264.893 38.6201 265.92 38.8101 266.947 39.0001L266.966 39.0015C271.216 39.351 275.238 39.6816 279.287 40.7601C281.909 41.55 284.572 42.2701 287.221 43.0001C294.37 41.23 294.37 41.23 314.09 45.3701C315.063 45.59 316.009 45.79 316.955 46.0001V44.0001C321.01 42.0001 321.01 42.0001 325.254 41.1401L325.862 41.0434C327.283 40.8177 328.667 40.5977 330.052 40.3701C330.985 40.2172 331.901 40.0676 332.809 39.9194L334.89 39.5801C336.146 39.3803 337.361 39.1906 338.575 39.0008L338.58 39.0001V37.0001C342.31 36.8401 345.027 36.91 348.555 37.8701C361.476 41.97 372.612 40.8501 385.966 38.4701C388.209 38.0701 390.467 37.7101 392.737 37.3701C393.42 37.2705 394.087 37.1769 394.745 37.0846L395.346 37.0001V35.0001C396.157 34.5301 396.941 34.0701 397.711 33.6201C398.752 33.0701 399.752 32.5301 400.752 32.0001C404.05 29.1201 405.807 28.0701 410.781 27.0201L411.726 26.9C416.205 26.3316 420.66 25.7662 425.08 25.0001L426.432 23.0001C427.459 22.8701 428.445 22.7401 429.432 22.6201L430.33 22.5742C433.543 22.4104 436.745 22.2471 439.947 22.0001L442.65 21.0001C447.394 22.16 447.394 22.16 452.544 21.9301C459.545 21.7601 464.005 22.91 470.222 25.1801C478.453 28.34 490.293 34.0801 499.821 32.4701C510.729 29.6701 519.365 28.0701 530.502 31.0001V33.0001L535.908 32.0001C536.584 34.0801 536.584 34.0801 538.611 36.0001C540.03 36.1801 541.409 36.3601 542.788 36.5301C549.126 36.6401 555.249 36.4701 561.345 37.8801C566.9 39.98 569.238 43.0801 571.387 47.3101C571.9 48.67 571.9 48.67 572.4 50.0001L575.104 49.0001C578.658 49.8 581.28 50.61 584.064 52.4301C584.618 52.899 584.843 53.0895 585.127 53.3301L585.916 54.0001C588.119 55.5001 588.119 55.5001 589.971 57.0001L591.322 60.0001H595.377V62.0001C599.851 61.8 599.851 61.8 604.838 61.0001C609.514 58.0001 611.69 56.73 617.853 56.8101C619.827 56.9001 621.8 56.97 623.76 57.0001L627.814 56.0001C637.424 54.0101 647.02 51.91 656.197 49.0001C658.9 47.8701 658.9 47.8701 661.604 47.0001C662.752 47.04 663.874 47.0801 664.982 47.1201C668.618 47.2501 668.618 47.2501 671.321 45.0001C672.159 44.3201 672.97 43.66 673.768 43.0001H676.471V41.0001L680.525 40.0001V38.0001H683.229V36.0001H685.932C686.107 35.04 686.107 35.04 686.283 34.1C687.283 32.0001 687.283 32.0001 689.689 31.0101C692.798 30.2001 695.379 29.3701 698.096 28.0001C699.285 26.0802 699.285 26.0801 699.704 23.9306L699.704 23.9301C699.853 23.2101 700.001 22.5101 700.15 21.8101C700.799 20.0001 700.799 20.0001 704.016 18.3701C707.962 17.09 707.962 17.0901 710.692 13.8101C711.841 12.3901 711.841 12.3901 712.963 11.0001C719.518 11.6801 725.411 12.3901 731.885 11.0001V9.00006C734.615 8.39008 737.318 7.71008 739.994 7.00006C742.224 5.96008 744.468 4.96008 746.752 4.00006L750.807 5.00006C752.415 3.00006 752.415 3.00006 754.861 1.00006C759.47 0.310059 759.47 0.310059 767.458 2.50006C769.147 3.01007 770.796 3.50006 772.432 4.00006V2.00006L776.486 6.10352e-05C780.406 0.180054 781.771 0.900024 784.596 2.93005C788.083 5.58008 790.975 6.77008 795.895 7.4101C797.003 7.4801 798.071 7.55005 799.125 7.62006C801.044 7.75006 802.963 7.88007 804.869 8.00006V6.00006H807.572C808.924 8.00006 808.924 8.00006 810.37 10.6201C810.802 11.4301 811.221 12.2101 811.627 13.0001C813.884 12.9501 816.141 12.9501 818.385 13.0001C819.858 14.14 819.858 14.1401 822.344 15.3399L822.345 15.3401C823.98 16.1401 823.98 16.1401 825.575 16.9301C831.481 19.8801 837.374 22.1801 844.064 24.0001C846.322 24.3101 848.579 24.6501 850.822 25.0001C854.742 26.9301 856.58 27.36 861.054 27.9301C864.27 28.34 864.27 28.3401 867.04 28.9997L867.041 29.0001C869.339 32.0301 869.339 32.0301 872.528 33.1601C873.623 33.5101 874.691 33.85 875.745 34.1801C878.881 35.2401 878.881 35.2401 881.908 36.0001H885.963L886.114 36.0596C889.108 37.2353 891.008 37.9818 894.464 38.0801C895.546 37.9901 896.586 37.9001 897.627 37.8101C900.763 37.6501 900.763 37.6501 903.533 37.0001L906.236 34.0001C910.386 36.04 913.548 37.1901 918.4 38.0001L918.665 37.876C919.53 37.4706 920.364 37.0795 921.198 36.6801C923.807 35.0001 923.807 35.0001 927.523 34.3101C928.564 34.2001 929.564 34.1 930.564 34.0001V32.0001L934.619 31.0001V26.0001C935.714 25.5901 936.782 25.2001 937.836 24.8101C939.471 24.2101 941.107 23.61 942.729 23.0001C949.203 20.3101 954.811 17.6501 962.421 17.7501C964.002 17.8301 965.529 17.91 967.057 18.0001C968.408 17.0001 968.408 17.0001 971.422 16.5001C978.221 15.8201 983.032 15.3401 988.857 18.3101C990.574 19.2401 992.317 20.1301 994.088 21.0001C999.94 22.61 1004.56 23.3101 1010.64 22.1801C1011.91 21.78 1013.14 21.3901 1014.36 21.0001C1016.62 20.67 1018.88 20.3401 1021.12 20.0001C1025.97 18.4401 1030.66 17.2701 1035.95 16.8101C1039.39 17.04 1040.77 17.8801 1043.42 19.5001C1045.68 20.9401 1045.68 20.9401 1048.15 22.0001C1053.27 22.3401 1057.81 21.3101 1062.6 20.0001C1065.72 19.0001 1065.72 19.0001 1069.53 18.3701C1070.53 18.2401 1071.51 18.1201 1072.48 18.0001V16.0001C1075.34 15.3901 1077.95 14.9901 1080.94 14.86C1081.99 14.8701 1083.03 14.8701 1084.06 14.8701C1085.64 14.8701 1085.64 14.8701 1087.18 14.86C1090.82 15.03 1093.35 15.4301 1095.97 17.3701C1098.66 19.36 1101.62 20.61 1104.92 22.0001L1106.27 19.0001C1108.32 20.0101 1108.32 20.0101 1110.32 21.0001C1114.38 21.0001 1114.38 21.0001 1116.92 21.9301C1119.77 23.09 1119.77 23.0901 1123.08 23.5601C1124.26 23.7101 1125.41 23.85 1126.54 24.0001C1130.07 24.72 1130.07 24.72 1133.3 25.0001L1136 23.0001C1140.58 21.7401 1143.79 20.4601 1148.42 21.9301C1149.26 22.29 1150.07 22.6401 1150.87 23.0001C1152.67 22.6627 1154.45 22.3353 1156.23 22.0079L1156.28 22.0001C1160.4 23.5601 1163.38 24.2701 1168.02 24.5001C1171.25 24.6501 1171.25 24.6501 1173.85 25.0001L1175.2 27.0001C1179.27 26.8701 1183.31 26.8201 1187.36 27.0001C1191.7 27.9401 1195.23 29.5801 1199.39 28.0701C1202.23 27.0001 1202.23 27.0001 1205.39 26.73L1208.74 26.7501C1212.92 26.73 1216.23 27.0901 1220.31 27.8801C1231.42 30.4101 1242.28 33.3 1254.02 33.1201C1257.55 32.9401 1257.55 32.9401 1260.35 33.0001L1263.05 35.0001C1269.02 35.86 1275.21 36.21 1281.28 35.73C1291.3 34.5601 1291.3 34.5601 1305.88 40.6201C1309.57 42.22 1312.83 43.61 1317.11 44.0001C1319.81 42.0001 1319.81 42.0001 1324.38 41.8701C1326.05 41.91 1327.67 41.9501 1329.28 42.0001C1333.8 42.0001 1337.94 41.8901 1342.37 42.5001C1343.95 42.7501 1343.95 42.7501 1345.49 43.0001V41.0001C1348.2 40.0001 1348.2 40.0001 1353.1 38.9301C1354.66 38.61 1356.16 38.3 1357.66 38.0001V35.0001H1361.71C1364.42 32.0001 1364.42 32.0001 1367.35 31.05C1368.48 30.8 1369.58 30.55 1370.67 30.3101C1371.8 30.0518 1372.9 29.8035 1374 29.5552L1374.03 29.55C1374.89 29.36 1375.74 29.1801 1376.58 29.0001V27.0001C1379.35 25.1801 1381.88 24.0301 1385.28 22.9701C1390.46 21.6101 1394.61 20.6301 1398.64 17.8101C1400.91 16.0001 1400.91 16.0001 1404.62 15.2501C1405.67 15.16 1406.67 15.0801 1407.67 15.0001L1406.31 12.0001L1415.78 11.0001V8.00006L1419.83 6.00006C1424.33 5.82007 1427.93 5.49005 1431.99 7.00006C1432.86 8.67004 1433.76 10.3401 1434.7 12.0001C1436.54 13.3101 1438.33 14.6401 1440.1 16.0001C1441.48 19.1801 1441.6 21.4401 1445.51 23.2501C1446.43 23.5001 1447.32 23.7501 1448.21 24.0001C1450.92 26.0001 1450.92 26.0001 1452.44 28.6201L1452.53 28.7968C1452.91 29.5439 1453.27 30.2677 1453.62 31.0001H1456.32L1459.03 35.0001H1464.43C1468.8 38.5901 1471.03 40.2701 1477.53 40.6201C1480.68 40.66 1480.68 40.66 1483.35 41.0001C1485.79 44.2001 1485.79 44.2001 1490.29 45.6801C1491.61 46.1301 1492.9 46.5601 1494.17 47.0001V49.0001L1494.24 48.9916C1495.46 48.85 1495.49 48.8472 1496.73 48.7001C1497.88 48.5401 1498.98 48.4001 1500.09 48.2501C1501.2 48.1024 1502.28 47.9644 1503.36 47.8265L1503.41 47.8201C1506.55 47.1901 1506.55 47.1901 1507.91 45.0301C1508.27 44.3864 1508.4 44.145 1508.58 43.8104L1509.03 43.0001C1514.26 39.61 1514.26 39.61 1526.59 39.8901C1527.52 39.9301 1528.41 39.9601 1529.31 40.0001V38.0001C1532.43 37.7001 1532.43 37.7001 1536.06 37.0001C1538.32 35.9901 1540.57 34.9901 1542.82 34.0001C1547.97 32.9901 1551.47 32.55 1555.42 29.8701C1556.57 28.92 1556.57 28.92 1557.69 28.0001H1560.39C1560.49 27.2101 1560.57 26.4501 1560.65 25.6801C1561.74 23.0001 1561.74 23.0001 1565.12 21.3701C1566.84 20.6801 1566.84 20.6801 1568.5 20.0001C1569.85 17.0001 1569.85 17.0001 1571.64 15.3801C1577.8 11.6401 1577.8 11.6401 1598.11 11.9301C1599.09 11.9501 1600.01 11.97 1600.94 12.0001V10.0001C1602.24 9.93011 1603.49 9.87018 1604.75 9.81024L1604.75 9.81006C1609.05 10.0001 1609.05 10.0001 1611.17 11.3701C1613.05 13.16 1613.05 13.16 1616.24 14.0601C1617.47 14.3801 1618.67 14.6901 1619.86 15.0001C1624.47 16.3701 1627.16 17.0801 1632.12 16.5601C1636.08 16.0001 1636.08 16.0001 1639.55 16.5001C1643.37 17.0701 1645.89 16.8301 1649.6 16.0001L1650.95 14.0001H1655C1659.06 16.0001 1659.06 16.0001 1660.67 18.1201C1661.22 19.0701 1661.22 19.0701 1661.76 20.0001C1665.4 19.8101 1665.4 19.8101 1669.87 20.0001C1673.69 21.2801 1675.98 22.1501 1678.07 24.8701C1680.45 28.8801 1683.05 31.5101 1688.63 33.1201C1692.85 34.0001 1692.85 34.0001 1696.74 35.4301C1704.21 38.2001 1710.74 40.05 1719.12 40.5601C1722.58 40.6901 1722.58 40.6901 1725.28 41.0001C1726.81 43.2401 1726.81 43.2401 1727.23 48.2901C1727.28 49.0301 1727.34 49.7601 1727.39 50.48C1728.03 58.92 1728.19 67.3301 1728.18 75.7801C1728.16 77.4701 1728.16 79.1501 1728.18 80.8401V94.73V109.44V134.11C1728.16 143.68 1728.16 153.24 1728.16 162.8C1728.18 171.11 1728.18 179.41 1728.18 187.71V202.51V216.63C1728.18 218.36 1728.18 220.09 1728.16 221.81C1728.18 224.23 1728.18 226.65 1728.18 229.06C1728.16 230.16 1728.16 230.16 1728.16 231.23Z" fill="url(#paint0_linear_157_1270)"/>
<defs>
<linearGradient id="paint0_linear_157_1270" x1="864" y1="693" x2="841.5" y2="0.000120446" gradientUnits="userSpaceOnUse">
<stop stop-color="#3D6EB7"/>
<stop offset="1" stop-color="#3D84E4"/>
</linearGradient>
</defs>
</svg>
