<svg width="1728" height="555" viewBox="0 0 1728 555" fill="none" xmlns="http://www.w3.org/2000/svg">
<path d="M10.023 239.26C11.7125 239.25 11.7125 239.25 13.4425 239.25C14.6454 239.25 15.8483 239.25 17.0917 239.25C21.1599 239.26 25.2416 239.25 29.3234 239.24C32.2563 239.25 35.2027 239.25 38.1491 239.25C46.3125 239.26 54.4759 239.25 62.6394 239.25C70.5731 239.24 78.5202 239.25 86.4539 239.25C102.902 239.26 119.351 239.25 135.799 239.25C152.478 239.24 169.156 239.24 185.834 239.24C186.889 239.24 187.943 239.24 189.024 239.24C194.39 239.24 199.742 239.24 205.108 239.24C243.965 239.25 282.822 239.25 321.693 239.24C360.186 239.23 398.678 239.22 437.171 239.22C439.59 239.22 441.996 239.22 444.415 239.22C454.119 239.22 463.824 239.22 473.528 239.22C500.654 239.22 527.78 239.22 554.892 239.22C556.135 239.22 557.365 239.22 558.636 239.22C598.02 239.22 637.405 239.22 676.789 239.21C678.06 239.21 679.344 239.21 680.655 239.21C701.415 239.21 722.161 239.2 742.921 239.2C825.232 239.19 907.555 239.18 989.865 239.18C992.474 239.18 995.069 239.18 997.677 239.18C1002.87 239.18 1008.07 239.18 1013.27 239.18C1024.92 239.18 1036.58 239.18 1048.23 239.18C1050.81 239.18 1053.39 239.18 1055.97 239.18C1124.87 239.18 1193.76 239.18 1262.66 239.17C1264.46 239.17 1264.46 239.17 1266.3 239.17C1288.24 239.17 1288.24 239.17 1298.94 239.17C1325.42 239.17 1351.88 239.16 1378.36 239.16C1380.14 239.16 1380.14 239.16 1381.98 239.16C1386.79 239.16 1391.6 239.16 1396.42 239.16C1441.02 239.16 1485.63 239.16 1530.23 239.15C1534.5 239.15 1538.78 239.15 1543.05 239.15C1544.1 239.15 1545.14 239.14 1546.22 239.14C1562.86 239.14 1579.5 239.14 1596.14 239.14C1612.48 239.14 1628.8 239.14 1645.14 239.13C1653.89 239.13 1662.63 239.13 1671.39 239.13C1679.32 239.13 1687.27 239.13 1695.21 239.13C1698.08 239.12 1700.95 239.13 1703.83 239.13C1707.69 239.13 1711.56 239.13 1715.42 239.12C1716.56 239.12 1717.7 239.13 1718.86 239.13C1726.49 239.11 1726.49 239.11 1727.99 238C1728.13 235.74 1728.17 233.49 1728.17 231.23C1728.17 230.16 1728.17 230.16 1728.18 229.06C1728.18 226.65 1728.18 224.23 1728.17 221.81C1728.18 220.09 1728.18 218.36 1728.18 216.63C1728.18 211.93 1728.18 207.22 1728.18 202.51C1728.18 197.58 1728.18 192.64 1728.18 187.71C1728.18 179.41 1728.18 171.11 1728.17 162.8C1728.17 153.24 1728.17 143.68 1728.18 134.11C1728.18 125.89 1728.18 117.67 1728.18 109.44C1728.18 104.54 1728.18 99.6298 1728.18 94.7298C1728.18 90.0998 1728.18 85.4698 1728.18 80.8398C1728.17 79.1498 1728.17 77.4698 1728.18 75.7798C1728.2 67.3298 1728.03 58.9198 1727.4 50.4798C1727.35 49.7598 1727.29 49.0298 1727.24 48.2898C1726.82 43.2398 1726.82 43.2398 1725.29 40.9998C1722.59 40.6898 1722.59 40.6898 1719.13 40.5598C1710.75 40.0498 1704.22 38.1998 1696.75 35.4298C1692.85 33.9998 1692.85 33.9998 1688.64 33.1198C1683.05 31.5098 1680.46 28.8798 1678.08 24.8698C1675.99 22.1498 1673.7 21.2798 1669.88 19.9998C1665.4 19.8098 1665.4 19.8098 1661.77 19.9998C1661.23 19.0698 1661.23 19.0698 1660.67 18.1198C1659.06 15.9998 1659.06 15.9998 1655.01 13.9998C1653.67 13.9998 1652.33 13.9998 1650.96 13.9998C1650.51 14.6598 1650.06 15.3198 1649.6 15.9998C1645.9 16.8298 1643.37 17.0698 1639.56 16.4998C1636.09 15.9998 1636.09 15.9998 1632.13 16.5598C1627.17 17.0798 1624.48 16.3698 1619.87 14.9998C1618.68 14.6898 1617.48 14.3798 1616.25 14.0598C1613.06 13.1598 1613.06 13.1598 1611.18 11.3698C1609.06 9.99977 1609.06 9.99977 1604.76 9.80977C1603.5 9.86977 1602.24 9.92976 1600.95 9.99977C1600.95 10.6598 1600.95 11.3198 1600.95 11.9998C1600.01 11.9698 1599.1 11.9498 1598.12 11.9298C1577.81 11.6398 1577.81 11.6398 1571.65 15.3798C1569.86 16.9998 1569.86 16.9998 1568.51 19.9998C1566.85 20.6798 1566.85 20.6798 1565.13 21.3698C1561.75 22.9998 1561.75 22.9998 1560.66 25.6798C1560.58 26.4498 1560.49 27.2098 1560.4 27.9998C1559.51 27.9998 1558.62 27.9998 1557.7 27.9998C1556.58 28.9198 1556.58 28.9198 1555.43 29.8698C1551.48 32.5498 1547.98 32.9898 1542.83 33.9998C1540.57 34.9898 1538.33 35.9898 1536.07 36.9998C1532.44 37.6998 1532.44 37.6998 1529.31 37.9998C1529.31 38.6598 1529.31 39.3198 1529.31 39.9998C1528.42 39.9598 1527.53 39.9298 1526.6 39.8898C1514.27 39.6098 1514.27 39.6098 1509.04 42.9998C1508.49 43.9998 1508.49 43.9998 1507.92 45.0298C1506.55 47.1898 1506.55 47.1898 1503.42 47.8198C1502.32 47.9598 1501.23 48.0998 1500.09 48.2498C1498.99 48.3998 1497.89 48.5398 1496.74 48.6998C1495.47 48.8498 1495.47 48.8498 1494.17 48.9998C1494.17 48.3398 1494.17 47.6798 1494.17 46.9998C1492.9 46.5598 1491.62 46.1298 1490.29 45.6798C1485.79 44.1998 1485.79 44.1998 1483.36 40.9998C1480.69 40.6598 1480.69 40.6598 1477.54 40.6198C1471.04 40.2698 1468.81 38.5898 1464.44 34.9998C1462.66 34.9998 1460.87 34.9998 1459.03 34.9998C1458.14 33.6798 1457.25 32.3598 1456.33 30.9998C1455.44 30.9998 1454.55 30.9998 1453.63 30.9998C1453.25 30.2098 1452.86 29.4298 1452.45 28.6198C1450.92 25.9998 1450.92 25.9998 1448.22 23.9998C1447.33 23.7498 1446.44 23.4998 1445.52 23.2498C1441.61 21.4398 1441.49 19.1798 1440.11 15.9998C1438.34 14.6398 1436.54 13.3098 1434.71 11.9998C1433.77 10.3398 1432.87 8.66977 1432 6.99977C1427.93 5.48978 1424.34 5.81978 1419.84 5.99977C1418.5 6.65977 1417.16 7.31978 1415.78 7.99977C1415.78 8.98978 1415.78 9.97977 1415.78 10.9998C1412.66 11.3298 1409.54 11.6598 1406.32 11.9998C1406.77 12.9898 1407.21 13.9798 1407.67 14.9998C1406.67 15.0798 1405.67 15.1598 1404.63 15.2498C1400.92 15.9998 1400.92 15.9998 1398.65 17.8098C1394.62 20.6298 1390.47 21.6098 1385.29 22.9698C1381.89 24.0298 1379.36 25.1798 1376.59 26.9998C1376.59 27.6598 1376.59 28.3198 1376.59 28.9998C1375.75 29.1798 1374.9 29.3598 1374.03 29.5498C1372.93 29.7998 1371.82 30.0498 1370.68 30.3098C1369.59 30.5498 1368.49 30.7998 1367.36 31.0498C1364.42 31.9998 1364.42 31.9998 1361.72 34.9998C1360.38 34.9998 1359.04 34.9998 1357.67 34.9998C1357.67 35.9898 1357.67 36.9798 1357.67 37.9998C1356.17 38.2998 1354.67 38.6098 1353.11 38.9298C1348.21 39.9998 1348.21 39.9998 1345.5 40.9998C1345.5 41.6598 1345.5 42.3198 1345.5 42.9998C1343.96 42.7498 1343.96 42.7498 1342.38 42.4998C1337.95 41.8898 1333.81 41.9998 1329.28 41.9998C1327.67 41.9498 1326.05 41.9098 1324.39 41.8698C1319.82 41.9998 1319.82 41.9998 1317.12 43.9998C1312.83 43.6098 1309.58 42.2198 1305.89 40.6198C1291.3 34.5598 1291.3 34.5598 1281.29 35.7298C1275.22 36.2098 1269.03 35.8598 1263.06 34.9998C1262.16 34.3398 1261.27 33.6798 1260.35 32.9998C1257.56 32.9398 1257.56 32.9398 1254.03 33.1198C1242.28 33.2998 1231.43 30.4098 1220.32 27.8798C1216.24 27.0898 1212.93 26.7298 1208.75 26.7498C1207.09 26.7398 1207.09 26.7398 1205.4 26.7298C1202.24 26.9998 1202.24 26.9998 1199.4 28.0698C1195.24 29.5798 1191.71 27.9398 1187.37 26.9998C1183.31 26.8198 1179.27 26.8698 1175.21 26.9998C1174.76 26.3398 1174.31 25.6798 1173.85 24.9998C1171.26 24.6498 1171.26 24.6498 1168.03 24.4998C1163.39 24.2698 1160.41 23.5598 1156.28 21.9998C1154.49 22.3298 1152.69 22.6598 1150.88 22.9998C1150.08 22.6398 1149.27 22.2898 1148.43 21.9298C1143.79 20.4598 1140.59 21.7398 1136.01 22.9998C1135.12 23.6598 1134.23 24.3198 1133.31 24.9998C1130.08 24.7198 1130.08 24.7198 1126.55 23.9998C1125.41 23.8498 1124.26 23.7098 1123.09 23.5598C1119.78 23.0898 1119.78 23.0898 1116.93 21.9298C1114.38 20.9998 1114.38 20.9998 1110.33 20.9998C1108.33 20.0098 1108.33 20.0098 1106.28 18.9998C1105.83 19.9898 1105.38 20.9798 1104.92 21.9998C1101.63 20.6098 1098.67 19.3598 1095.98 17.3698C1093.35 15.4298 1090.83 15.0298 1087.19 14.8598C1085.65 14.8698 1085.65 14.8698 1084.07 14.8698C1083.04 14.8698 1082 14.8698 1080.95 14.8598C1077.96 14.9898 1075.35 15.3898 1072.49 15.9998C1072.49 16.6598 1072.49 17.3198 1072.49 17.9998C1071.51 18.1198 1070.54 18.2398 1069.54 18.3698C1065.73 18.9998 1065.73 18.9998 1062.61 19.9998C1057.82 21.3098 1053.28 22.3398 1048.16 21.9998C1045.68 20.9398 1045.68 20.9398 1043.43 19.4998C1040.78 17.8798 1039.4 17.0398 1035.95 16.8098C1030.67 17.2698 1025.98 18.4398 1021.13 19.9998C1018.88 20.3398 1016.63 20.6698 1014.37 20.9998C1013.15 21.3898 1011.92 21.7798 1010.65 22.1798C1004.57 23.3098 999.948 22.6098 994.096 20.9998C992.325 20.1298 990.582 19.2398 988.865 18.3098C983.04 15.3398 978.228 15.8198 971.43 16.4998C968.416 16.9998 968.416 16.9998 967.064 17.9998C965.537 17.9098 964.01 17.8298 962.429 17.7498C954.819 17.6498 949.21 20.3098 942.736 22.9998C941.114 23.6098 939.479 24.2098 937.844 24.8098C936.789 25.1998 935.722 25.5898 934.627 25.9998C934.627 27.6498 934.627 29.2998 934.627 30.9998C933.289 31.3298 931.951 31.6598 930.572 31.9998C930.572 32.6598 930.572 33.3198 930.572 33.9998C929.572 34.0998 928.572 34.1998 927.531 34.3098C923.814 34.9998 923.814 34.9998 921.206 36.6798C920.287 37.1198 919.368 37.5498 918.408 37.9998C913.556 37.1898 910.393 36.0398 906.244 33.9998C905.352 34.9898 904.46 35.9798 903.541 36.9998C900.77 37.6498 900.77 37.6498 897.635 37.8098C896.594 37.8998 895.553 37.9898 894.472 38.0798C890.958 37.9798 889.052 37.2098 885.971 35.9998C884.633 35.9998 883.295 35.9998 881.916 35.9998C878.888 35.2398 878.888 35.2398 875.753 34.1798C874.699 33.8498 873.631 33.5098 872.536 33.1598C869.346 32.0298 869.346 32.0298 867.049 28.9998C864.278 28.3398 864.278 28.3398 861.061 27.9298C856.588 27.3598 854.75 26.9298 850.83 24.9998C848.586 24.6498 846.329 24.3098 844.072 23.9998C837.382 22.1798 831.489 19.8798 825.583 16.9298C823.988 16.1398 823.988 16.1398 822.353 15.3398C819.866 14.1398 819.866 14.1398 818.393 12.9998C816.149 12.9498 813.892 12.9498 811.635 12.9998C811.229 12.2098 810.81 11.4298 810.378 10.6198C808.932 7.99977 808.932 7.99977 807.58 5.99977C806.688 5.99977 805.796 5.99977 804.877 5.99977C804.877 6.65977 804.877 7.31978 804.877 7.99977C802.971 7.87978 801.052 7.74977 799.133 7.61977C798.079 7.54976 797.011 7.47977 795.903 7.40976C790.983 6.76976 788.091 5.57976 784.604 2.92976C781.779 0.899765 780.414 0.179764 776.494 -0.000228882C775.156 0.659775 773.818 1.31978 772.439 1.99977C772.439 2.65977 772.439 3.31978 772.439 3.99977C770.804 3.49977 769.155 3.00977 767.466 2.49977C759.478 0.309769 759.478 0.309769 754.869 0.999771C752.423 2.99977 752.423 2.99977 750.814 4.99977C749.476 4.66977 748.138 4.33977 746.76 3.99977C744.476 4.95978 742.232 5.95978 740.002 6.99977C737.326 7.70978 734.623 8.38977 731.893 8.99977C731.893 9.65977 731.893 10.3198 731.893 10.9998C725.419 12.3898 719.526 11.6798 712.971 10.9998C711.849 12.3898 711.849 12.3898 710.7 13.8098C707.97 17.0898 707.97 17.0898 704.023 18.3698C700.807 19.9998 700.807 19.9998 700.158 21.8098C700.009 22.5098 699.861 23.2098 699.712 23.9298C699.293 26.0798 699.293 26.0798 698.104 27.9998C695.387 29.3698 692.805 30.1998 689.697 31.0098C687.291 31.9998 687.291 31.9998 686.291 34.0998C686.115 35.0398 686.115 35.0398 685.939 35.9998C685.047 35.9998 684.155 35.9998 683.236 35.9998C683.236 36.6598 683.236 37.3198 683.236 37.9998C682.344 37.9998 681.452 37.9998 680.533 37.9998C680.533 38.6598 680.533 39.3198 680.533 39.9998C679.195 40.3298 677.857 40.6598 676.479 40.9998C676.479 41.6598 676.479 42.3198 676.479 42.9998C675.586 42.9998 674.694 42.9998 673.775 42.9998C672.978 43.6598 672.167 44.3198 671.329 44.9998C668.626 47.2498 668.626 47.2498 664.99 47.1198C663.882 47.0798 662.76 47.0398 661.611 46.9998C658.908 47.8698 658.908 47.8698 656.205 48.9998C647.028 51.9098 637.432 54.0098 627.822 55.9998C626.484 56.3298 625.146 56.6598 623.768 56.9998C621.808 56.9698 619.835 56.8998 617.861 56.8098C611.698 56.7298 609.522 57.9998 604.846 60.9998C599.858 61.7998 599.858 61.7998 595.385 61.9998C595.385 61.3398 595.385 60.6798 595.385 59.9998C594.047 59.9998 592.709 59.9998 591.33 59.9998C590.884 59.0098 590.438 58.0198 589.979 56.9998C588.127 55.4998 588.127 55.4998 585.924 53.9998C585.005 53.2198 585.005 53.2198 584.072 52.4298C581.288 50.6098 578.666 49.7998 575.111 48.9998C574.219 49.3298 573.327 49.6598 572.408 49.9998C571.908 48.6698 571.908 48.6698 571.395 47.3098C569.246 43.0798 566.907 39.9798 561.352 37.8798C555.257 36.4698 549.134 36.6398 542.795 36.5298C541.417 36.3598 540.038 36.1798 538.619 35.9998C536.592 34.0798 536.592 34.0798 535.916 31.9998C534.132 32.3298 532.348 32.6598 530.51 32.9998C530.51 32.3398 530.51 31.6798 530.51 30.9998C519.373 28.0698 510.736 29.6698 499.829 32.4698C490.301 34.0798 478.461 28.3398 470.23 25.1798C464.013 22.9098 459.553 21.7598 452.552 21.9298C447.402 22.1598 447.402 22.1598 442.658 20.9998C441.766 21.3298 440.874 21.6598 439.955 21.9998C436.455 22.2698 432.954 22.4398 429.44 22.6198C428.453 22.7398 427.467 22.8698 426.439 22.9998C425.993 23.6598 425.547 24.3198 425.088 24.9998C420.357 25.8198 415.586 26.4098 410.788 27.0198C405.815 28.0698 404.058 29.1198 400.76 31.9998C399.76 32.5298 398.759 33.0698 397.719 33.6198C396.948 34.0698 396.164 34.5298 395.354 34.9998C395.354 35.6598 395.354 36.3198 395.354 36.9998C394.502 37.1198 393.637 37.2398 392.745 37.3698C390.474 37.7098 388.217 38.0698 385.974 38.4698C372.62 40.8498 361.483 41.9698 348.562 37.8698C345.035 36.9098 342.318 36.8398 338.588 36.9998C338.588 37.6598 338.588 38.3198 338.588 38.9998C337.371 39.1898 336.155 39.3798 334.898 39.5798C333.303 39.8398 331.708 40.0998 330.06 40.3698C328.478 40.6298 326.897 40.8798 325.261 41.1398C321.018 41.9998 321.018 41.9998 316.963 43.9998C316.963 44.6598 316.963 45.3198 316.963 45.9998C316.017 45.7898 315.071 45.5898 314.098 45.3698C294.378 41.2298 294.378 41.2298 287.229 42.9998C284.579 42.2698 281.917 41.5498 279.295 40.7598C275.24 39.6798 271.212 39.3498 266.955 38.9998C265.928 38.8098 264.901 38.6198 263.833 38.4298C260.197 37.9998 260.197 37.9998 257.156 38.1398C248.56 38.5498 245.127 37.4998 238.653 33.3898C234.491 31.2998 230.679 31.3598 225.759 31.1998C221.191 30.9298 217.285 29.8998 212.987 28.7498C210.608 28.1098 208.162 27.5698 205.716 27.0598C198.58 25.5398 191.551 23.7598 184.51 21.9998C184.51 22.6598 184.51 23.3198 184.51 23.9998C178.685 23.4898 173.657 22.7998 168.291 20.9998C168.291 21.6598 168.291 22.3198 168.291 22.9998C167.291 22.9098 166.277 22.8298 165.236 22.7398C163.236 22.5898 163.236 22.5898 161.195 22.4298C159.884 22.3298 158.573 22.2198 157.208 22.1198C153.694 21.9998 151.342 22.2498 148.018 22.9998C146.598 23.1598 145.179 23.3298 143.72 23.4998C139.908 23.9998 139.908 23.9998 138.557 24.9998C134.894 25.0698 131.231 24.9898 127.555 24.9298C123.838 24.9898 120.554 25.3698 116.932 25.9998C116.932 26.6598 116.932 27.3198 116.932 27.9998C114.702 27.6698 112.471 27.3398 110.174 26.9998C110.174 27.6598 110.174 28.3198 110.174 28.9998C106.16 29.6598 102.146 30.3198 98.0098 30.9998C98.0098 31.6598 98.0098 32.3198 98.0098 32.9998C96.9285 32.8098 95.8473 32.6198 94.7255 32.4298C87.7514 31.7998 80.5341 31.5398 74.6142 34.6198C73.8709 35.0698 73.114 35.5298 72.3301 35.9998C71.5327 35.8298 70.7217 35.6698 69.8838 35.4998C65.0857 34.6798 61.8149 36.4498 57.4629 37.9998C57.4629 38.6598 57.4629 39.3198 57.4629 39.9998C47.6505 40.3798 47.6505 40.3798 38.541 37.9998C37.649 37.0098 36.757 36.0198 35.8379 34.9998C30.5938 34.5598 27.2555 34.7098 22.4169 36.3098C21.4978 36.8598 20.5788 37.4198 19.6191 37.9998C19.6191 38.9898 19.6191 39.9798 19.6191 40.9998C18.7271 40.9998 17.8351 40.9998 16.916 40.9998C16.916 41.6598 16.916 42.3198 16.916 42.9998C15.6726 43.2798 14.4156 43.5698 13.1181 43.8698C8.80664 44.9998 8.80664 44.9998 4.75195 46.9998C2.07586 46.0098 2.07586 46.0098 -0.654298 44.9998C-0.70836 69.9898 -0.762422 94.9898 -0.789454 119.99C-0.802969 131.6 -0.816485 143.21 -0.857032 154.81C-0.884063 164.93 -0.897579 175.04 -0.897579 185.15C-0.911094 190.51 -0.911094 195.87 -0.938125 201.23C-0.951641 206.26 -0.951641 211.3 -0.951641 216.34C-0.951641 218.19 -0.965157 220.05 -0.965157 221.9C-0.978673 224.42 -0.978673 226.94 -0.978673 229.47C-0.978673 230.21 -0.992188 230.95 -0.992188 231.71C-0.938125 238.38 1.19734 239.22 10.023 239.26Z" fill="#170B37"/>
<rect x="-1" y="55.9951" width="1728" height="499" fill="#170B37"/>
</svg>
