<svg width="161" height="187" viewBox="0 0 161 187" fill="none" xmlns="http://www.w3.org/2000/svg">
<g style="mix-blend-mode:screen" opacity="0.4" clip-path="url(#clip0_157_1398)">
<path d="M140.704 24.3068C140.652 24.5318 140.489 24.731 140.299 25.0427C140.274 25.1551 140.136 25.2419 140.11 25.3543C140.084 25.4668 139.92 25.6661 139.895 25.7785C139.869 25.891 139.731 25.9777 139.705 26.0902C139.679 26.2027 139.516 26.4019 139.49 26.5143C139.464 26.6268 139.326 26.7136 139.3 26.826C139.275 26.9385 139.137 27.0252 139.085 27.2502C138.947 27.3369 138.896 27.5619 138.758 27.6486C138.62 27.7354 138.594 27.8478 138.456 27.9346C138.293 28.1338 138.155 28.2206 138.103 28.4455C138.077 28.558 137.939 28.6447 137.914 28.7572C137.724 29.0689 137.448 29.2424 137.147 29.5284C137.147 29.5284 137.147 29.5284 137.121 29.6408C136.82 29.9268 136.656 30.126 136.38 30.2996C136.242 30.3863 136.242 30.3863 136.104 30.4731C135.803 30.759 135.389 31.0193 135.088 31.3053L134.95 31.3921C134.674 31.5655 134.536 31.6523 134.26 31.8258C134.123 31.9126 134.123 31.9126 133.985 31.9993C133.847 32.0861 133.571 32.2596 133.433 32.3464C133.295 32.4331 133.295 32.4331 133.157 32.5199C132.744 32.7802 132.33 33.0404 131.83 33.1625L131.693 33.2493C131.167 33.4838 130.779 33.6316 130.253 33.8662C129.616 34.0751 128.978 34.2839 128.34 34.4928C127.952 34.6406 127.702 34.7016 127.314 34.8494C127.202 34.8237 127.065 34.9105 127.065 34.9105C126.815 34.9715 126.539 35.145 126.177 35.1804C126.065 35.1547 126.039 35.2671 125.927 35.2414C125.539 35.3892 125.263 35.5627 124.876 35.7105C124.763 35.6848 124.738 35.7973 124.626 35.7716C124.35 35.9451 124.1 36.0062 123.824 36.1797L123.686 36.2664C123.686 36.2664 123.66 36.3789 123.548 36.3532C123.273 36.5267 123.023 36.5877 122.859 36.787L122.721 36.8737L122.583 36.9605C122.445 37.0472 122.308 37.134 122.17 37.2207C122.144 37.3332 122.032 37.3075 122.006 37.42C121.868 37.5067 121.842 37.6192 121.73 37.5935C121.704 37.7059 121.592 37.6802 121.567 37.7927L121.429 37.8795C121.429 37.8795 121.429 37.8794 121.403 37.9919C121.265 38.0787 121.239 38.1911 121.076 38.3904C120.938 38.4771 120.886 38.7021 120.748 38.7888C120.748 38.7888 120.748 38.7888 120.722 38.9013C120.697 39.0137 120.585 38.988 120.559 39.1005C120.533 39.213 120.395 39.2997 120.395 39.2997L120.369 39.4122C120.344 39.5246 120.206 39.6114 120.18 39.7239C120.154 39.8363 120.154 39.8363 120.016 39.9231C120.016 39.9231 120.016 39.9231 119.99 40.0356C119.827 40.2348 119.775 40.4597 119.586 40.7714C119.586 40.7714 119.586 40.7714 119.56 40.8838C119.37 41.1955 119.155 41.6197 119.078 41.9571C118.862 42.3812 118.673 42.6929 118.57 43.1428C118.518 43.3677 118.355 43.5669 118.329 43.6794C118.303 43.7919 118.277 43.9043 118.139 43.9911C117.847 44.7526 117.416 45.6009 117.123 46.3625C117.098 46.4749 117.072 46.5874 116.934 46.6742C116.615 47.5482 116.185 48.3965 115.867 49.2705C115.841 49.3829 115.815 49.4954 115.789 49.6079C115.763 49.7203 115.738 49.8328 115.712 49.9453C115.393 50.8193 115.049 51.8058 114.731 52.6798C114.705 52.7922 114.705 52.7922 114.679 52.9047C114.361 53.7787 114.042 54.6527 113.836 55.5524C113.81 55.6649 113.784 55.7774 113.758 55.8898C113.732 56.0023 113.707 56.1148 113.707 56.1148C113.414 56.8763 113.233 57.6636 112.941 58.4251C112.76 59.2124 112.493 59.8614 112.313 60.6487C112.158 61.3235 111.891 61.9726 111.762 62.5349L111.736 62.6473C111.581 63.3221 111.34 63.8588 111.186 64.5335C111.16 64.646 111.16 64.646 111.134 64.7585C111.057 65.0959 110.841 65.52 110.764 65.8574C110.738 65.9699 110.738 65.9699 110.712 66.0823C110.635 66.4197 110.446 66.7314 110.368 67.0688C110.342 67.1813 110.317 67.2937 110.317 67.2937C110.101 67.7179 109.998 68.1678 109.757 68.7044C109.731 68.8168 109.705 68.9293 109.568 69.0161C109.326 69.5527 109.085 70.0893 108.732 70.6002C108.681 70.8251 108.543 70.9119 108.379 71.1111C108.353 71.2236 108.215 71.3103 108.19 71.4228C108.164 71.5352 108.164 71.5352 108.026 71.622C108 71.7345 107.862 71.8212 107.837 71.9337C107.811 72.0462 107.811 72.0462 107.673 72.1329L107.647 72.2454C107.483 72.4446 107.294 72.7563 107.13 72.9555C107.104 73.068 107.104 73.068 106.967 73.1547C106.777 73.4664 106.613 73.6656 106.312 73.9516C106.286 74.0641 106.174 74.0384 106.148 74.1508C105.985 74.3501 105.821 74.5493 105.657 74.7485C105.631 74.861 105.494 74.9477 105.494 74.9477C105.33 75.1469 105.166 75.3462 104.891 75.5197C104.865 75.6321 104.753 75.6064 104.727 75.7189C104.451 75.8924 104.262 76.2041 103.986 76.3776C103.96 76.4901 103.848 76.4644 103.822 76.5768C103.546 76.7503 103.383 76.9496 103.107 77.1231C102.969 77.2098 102.943 77.3223 102.831 77.2966C102.693 77.3834 102.668 77.4958 102.556 77.4701C102.418 77.5569 102.28 77.6436 102.142 77.7304C102.004 77.8171 101.892 77.7914 101.866 77.9039C101.728 77.9906 101.59 78.0774 101.478 78.0517C101.203 78.2252 101.065 78.312 100.789 78.4855C100.651 78.5722 100.539 78.5465 100.513 78.659C100.125 78.8068 99.8498 78.9803 99.4619 79.1281C99.0741 79.2759 98.6863 79.4237 98.1864 79.5458C98.1864 79.5458 98.0743 79.5201 98.0485 79.6326C97.6865 79.6679 97.4108 79.8414 97.0488 79.8768C96.9367 79.8511 96.7988 79.9378 96.6868 79.9121C96.4368 79.9732 96.3247 79.9474 96.0748 80.0085C95.7128 80.0438 95.4628 80.1049 95.1008 80.1402C94.9887 80.1145 94.7388 80.1756 94.6267 80.1499C94.0406 80.1338 93.4286 80.2302 92.9545 80.2398C92.9545 80.2398 92.9545 80.2398 92.8424 80.2141C92.2563 80.198 91.6701 80.1819 91.0839 80.1659C90.9719 80.1402 90.7219 80.2012 90.6099 80.1755C90.0237 80.1594 89.4375 80.1433 88.8514 80.1273C88.2652 80.1112 87.567 80.0694 86.9808 80.0533C86.2826 80.0115 85.5843 79.9698 84.9724 80.0662C84.9724 80.0662 84.9724 80.0662 84.8603 80.0404C84.1621 79.9987 83.438 80.0693 82.714 80.14C82.714 80.14 82.714 80.14 82.6019 80.1143C81.99 80.2107 81.4038 80.1946 80.7918 80.291C80.7918 80.291 80.7918 80.291 80.6798 80.2653L80.5677 80.2396C80.2057 80.2749 79.9557 80.336 79.5937 80.3713L79.4816 80.3456C79.2317 80.4067 78.8697 80.442 78.6197 80.503L78.5077 80.4773C78.2577 80.5384 77.8699 80.6862 77.62 80.7472L77.4821 80.834C77.2321 80.895 76.9822 80.9561 76.7065 81.1296C76.7065 81.1296 76.5944 81.1039 76.5686 81.2164C76.3186 81.2774 76.0429 81.4509 75.7672 81.6244L75.6293 81.7112C75.3793 81.7722 75.1036 81.9458 74.9399 82.145C74.9399 82.145 74.9399 82.145 74.8279 82.1193C74.5779 82.1803 74.4142 82.3795 74.2764 82.4663L74.1385 82.5531C74.0006 82.6398 73.8628 82.7266 73.6991 82.9258C73.6991 82.9258 73.6991 82.9258 73.5612 83.0125C73.2855 83.1861 73.1218 83.3853 72.8461 83.5588C72.8461 83.5588 72.8461 83.5588 72.7082 83.6455C72.5445 83.8448 72.2688 84.0183 72.1051 84.2175C72.1051 84.2175 72.0793 84.33 71.9672 84.3043C71.8036 84.5035 71.6657 84.5902 71.502 84.7895C71.502 84.7895 71.4762 84.9019 71.3642 84.8762C71.3642 84.8762 71.3384 84.9887 71.2263 84.963C71.0884 85.0497 70.9248 85.2489 70.8732 85.4739L70.7353 85.5606C70.7353 85.5606 70.7353 85.5606 70.7095 85.6731C70.5458 85.8723 70.3563 86.184 70.1927 86.3832C70.029 86.5825 69.8395 86.8941 69.6759 87.0934C69.6759 87.0934 69.6759 87.0934 69.6501 87.2058C69.6501 87.2058 69.6243 87.3183 69.5122 87.2926C69.3485 87.4918 69.2969 87.7167 69.1333 87.916L69.1075 88.0284L69.0817 88.1409C68.8922 88.4526 68.7027 88.7643 68.5133 89.0759C68.3496 89.2752 68.2722 89.6126 68.1085 89.8118C66.9201 91.9068 65.8438 94.0276 64.7417 96.2608C64.337 96.9966 63.9064 97.8449 63.5017 98.5808C63.4759 98.6932 63.4759 98.6932 63.4501 98.8057C63.0454 99.5415 62.6406 100.277 62.2359 101.013C62.2101 101.126 62.1843 101.238 62.0722 101.212C61.6675 101.948 61.2628 102.684 60.858 103.42C60.8322 103.532 60.8064 103.645 60.6686 103.732C60.2638 104.467 59.8591 105.203 59.4544 105.939C59.4286 106.052 59.4286 106.052 59.2907 106.138C58.9118 106.762 58.5328 107.385 58.1281 108.121C58.1023 108.233 57.9644 108.32 57.9386 108.433C57.5597 109.056 57.1808 109.679 56.8018 110.303C56.776 110.415 56.6382 110.502 56.6124 110.614C56.2592 111.125 56.044 111.549 55.6908 112.06C55.6908 112.06 55.665 112.173 55.5529 112.147C55.2256 112.546 55.0103 112.97 54.683 113.368C54.5451 113.455 54.4935 113.68 54.3557 113.767C54.1662 114.078 54.0025 114.278 53.701 114.564C53.5631 114.65 53.5115 114.875 53.3737 114.962C53.0463 115.36 52.8568 115.672 52.5295 116.071C52.5295 116.071 52.5295 116.071 52.5037 116.183C52.1764 116.581 51.8748 116.867 51.6596 117.292C51.5217 117.378 51.4959 117.491 51.358 117.578C51.1944 117.777 50.8928 118.063 50.7291 118.262C50.5913 118.349 50.4276 118.548 50.2897 118.635C50.1261 118.834 49.9624 119.033 49.7987 119.232C49.6609 119.319 49.4972 119.518 49.3593 119.605C49.1956 119.804 49.032 120.004 48.8941 120.09C48.7562 120.177 48.5926 120.376 48.4547 120.463C48.291 120.662 48.1532 120.749 47.9895 120.948C47.8516 121.035 47.6879 121.234 47.5501 121.321C47.3864 121.52 47.2485 121.607 46.9728 121.78C46.8349 121.867 46.6713 122.066 46.5334 122.153C46.3697 122.352 46.094 122.526 45.9303 122.725C45.7924 122.812 45.6288 123.011 45.4909 123.098C45.2151 123.271 45.0515 123.471 44.7757 123.644C44.6379 123.731 44.5 123.818 44.3621 123.904C43.9227 124.277 43.397 124.512 42.9576 124.884L42.8197 124.971C42.4061 125.231 41.9925 125.492 41.5789 125.752C41.441 125.839 41.3032 125.926 41.1653 126.012C40.8895 126.186 40.6138 126.359 40.226 126.507C40.0881 126.594 39.9503 126.681 39.8124 126.767C39.3988 127.028 38.8731 127.262 38.4853 127.41C37.9596 127.645 37.4597 127.767 36.8219 127.976C36.6841 128.062 36.4341 128.123 36.322 128.098C35.9342 128.245 35.5722 128.281 35.1844 128.429C35.0465 128.515 34.8224 128.464 34.6845 128.551C34.3225 128.586 33.9347 128.734 33.5727 128.769C33.4348 128.856 33.2106 128.804 33.0728 128.891C32.5729 129.013 32.0988 129.023 31.4868 129.119C31.3748 129.094 31.2369 129.18 31.2369 129.18C30.8749 129.216 30.5129 129.251 30.1508 129.286C29.7888 129.322 29.3147 129.331 28.9527 129.367C28.7028 129.428 28.4786 129.376 28.1166 129.412C27.6425 129.421 27.2805 129.457 26.8322 129.354C26.6081 129.302 26.3581 129.363 26.134 129.312C25.5478 129.296 24.9616 129.28 24.5134 129.177C24.4013 129.151 24.2892 129.126 24.1771 129.1C23.4789 129.058 22.6944 128.878 21.9961 128.836C21.5479 128.734 21.0738 128.743 20.6255 128.64C20.5134 128.615 20.5134 128.615 20.4013 128.589C19.841 128.46 19.2806 128.332 18.6944 128.316C18.4703 128.264 18.1341 128.187 17.9099 128.136C17.5737 128.059 17.2375 127.982 16.9013 127.904C16.6771 127.853 16.3409 127.776 16.1168 127.725C15.7805 127.647 15.5564 127.596 15.2202 127.519C14.4357 127.339 13.6512 127.159 13.0045 126.892C12.8924 126.867 12.7804 126.841 12.6683 126.815C11.9959 126.661 11.4613 126.42 10.7889 126.266C10.4526 126.188 10.0043 126.086 9.69392 125.896L18.4009 158.91C18.625 158.961 18.9613 159.038 19.1596 159.202C19.2717 159.228 19.3837 159.253 19.4958 159.279C20.1683 159.433 20.7028 159.674 21.3753 159.829C21.4873 159.854 21.5994 159.88 21.7115 159.906C22.496 160.086 23.1426 160.352 23.9271 160.532C24.0392 160.558 24.0392 160.558 24.1513 160.584C24.3754 160.635 24.5996 160.687 24.8237 160.738C25.0479 160.789 25.3841 160.867 25.6082 160.918C25.9445 160.995 26.2807 161.072 26.6169 161.149C26.841 161.201 27.1773 161.278 27.4014 161.329C27.5135 161.355 27.5135 161.355 27.6255 161.381C28.0738 161.484 28.6342 161.612 29.1083 161.602C29.2204 161.628 29.2204 161.628 29.3324 161.654C29.7807 161.757 30.117 161.834 30.591 161.824C30.7031 161.85 30.7031 161.85 30.8152 161.876C31.6255 161.943 32.2979 162.097 32.9962 162.139C33.1082 162.165 33.2203 162.191 33.3324 162.216C33.9186 162.232 34.4789 162.361 35.0651 162.377C35.1772 162.403 35.1772 162.403 35.2892 162.428C35.4013 162.454 35.6512 162.393 35.7633 162.419C36.2374 162.409 36.5736 162.486 37.0477 162.477C37.1598 162.502 37.2719 162.528 37.4097 162.441C37.5218 162.467 37.6597 162.38 37.8838 162.432C38.2458 162.396 38.7199 162.387 39.0819 162.351C39.194 162.377 39.444 162.316 39.556 162.342C39.6939 162.255 39.9181 162.306 40.168 162.245C40.2801 162.271 40.4179 162.184 40.4179 162.184C40.892 162.175 41.2799 162.027 41.7539 162.017C41.866 162.043 41.8918 161.93 42.0039 161.956C42.1418 161.869 42.3659 161.921 42.5038 161.834C42.8658 161.799 43.2536 161.651 43.6156 161.616C43.7535 161.529 43.9776 161.58 44.1155 161.493C44.2534 161.407 44.3655 161.432 44.4775 161.458C44.7275 161.397 44.9774 161.336 45.2274 161.275C45.4773 161.214 45.7272 161.153 45.8651 161.066C46.3908 160.832 47.0028 160.735 47.5284 160.501C48.0541 160.266 48.442 160.118 48.8556 159.858C48.9934 159.771 49.1313 159.684 49.2692 159.598C49.5449 159.424 49.9327 159.276 50.2085 159.103C50.3205 159.129 50.3463 159.016 50.4584 159.042C50.5705 159.068 50.5963 158.955 50.7084 158.981C51.122 158.721 51.5356 158.46 51.9492 158.2L52.0871 158.113C52.5265 157.741 53.0522 157.506 53.4916 157.133L53.6295 157.046C53.7673 156.96 53.7931 156.847 53.9052 156.873C54.1809 156.699 54.3446 156.5 54.6204 156.327C54.7582 156.24 54.9219 156.041 55.0598 155.954C55.2234 155.755 55.4992 155.581 55.6628 155.382C55.8007 155.295 55.8265 155.183 55.9386 155.208C55.9644 155.096 56.0765 155.122 56.1023 155.009C56.2659 154.81 56.4038 154.723 56.6795 154.55C56.8174 154.463 56.9811 154.264 57.1189 154.177C57.2826 153.978 57.4205 153.891 57.5842 153.692C57.722 153.605 57.7478 153.493 57.8857 153.406L58.0236 153.319C58.1872 153.12 58.3509 152.921 58.4888 152.834C58.6266 152.747 58.7903 152.548 58.9282 152.461C59.0919 152.262 59.2555 152.063 59.4192 151.864C59.5571 151.777 59.5829 151.664 59.7207 151.578C59.7207 151.578 59.7465 151.465 59.8586 151.491C60.0223 151.292 60.3238 151.006 60.4875 150.806C60.6254 150.72 60.6512 150.607 60.789 150.52C61.1164 150.122 61.4179 149.836 61.6332 149.412C61.6332 149.412 61.6332 149.412 61.659 149.299C61.9863 148.901 62.2878 148.615 62.5031 148.191C62.641 148.104 62.6926 147.879 62.8305 147.792C63.0199 147.481 63.1836 147.281 63.4851 146.995C63.5109 146.883 63.623 146.909 63.6488 146.796C63.6746 146.684 63.7867 146.709 63.8125 146.597C64.1398 146.199 64.3551 145.774 64.6824 145.376C64.6824 145.376 64.7082 145.263 64.8203 145.289C65.1734 144.778 65.5008 144.38 65.7418 143.843C65.7418 143.843 65.7676 143.731 65.8797 143.756C65.9055 143.644 65.9055 143.644 66.0434 143.557C66.4223 142.934 66.8012 142.311 67.1802 141.687C67.206 141.575 67.3438 141.488 67.3696 141.375C67.7486 140.752 68.1275 140.129 68.5322 139.393L68.558 139.28L68.5838 139.168C68.9886 138.432 69.3933 137.696 69.798 136.96C69.8238 136.848 69.8496 136.736 69.9875 136.649C70.3922 135.913 70.797 135.177 71.2017 134.441C71.2275 134.329 71.2533 134.216 71.3654 134.242C71.7701 133.506 72.1748 132.77 72.6054 131.922C72.6312 131.81 72.6312 131.81 72.657 131.697C73.0875 130.849 73.4922 130.113 73.8969 129.377C74.9991 127.144 76.1875 125.049 77.2638 122.928C77.4275 122.729 77.5049 122.391 77.6685 122.192C77.858 121.881 78.0475 121.569 78.2369 121.257C78.2627 121.145 78.4006 121.058 78.4006 121.058C78.5643 120.859 78.6159 120.634 78.7795 120.435C78.8053 120.322 78.9432 120.235 78.9432 120.235C79.1069 120.036 79.2963 119.725 79.46 119.525C79.6237 119.326 79.8132 119.014 79.9768 118.815C80.0026 118.703 80.1147 118.728 80.1405 118.616C80.3042 118.417 80.442 118.33 80.4936 118.105C80.5194 117.993 80.6315 118.018 80.6573 117.906C80.821 117.707 80.9588 117.62 81.1225 117.421C81.1483 117.308 81.2604 117.334 81.2862 117.221C81.4498 117.022 81.7256 116.849 81.8893 116.649L82.0271 116.563C82.3029 116.389 82.4665 116.19 82.7423 116.016L82.8801 115.93C83.018 115.843 83.1817 115.644 83.3196 115.557L83.4574 115.47C83.5953 115.383 83.871 115.21 84.0089 115.123C84.0089 115.123 84.0089 115.123 84.1468 115.036C84.4225 114.863 84.6725 114.802 84.8361 114.603L84.974 114.516C85.2498 114.342 85.4997 114.281 85.7754 114.108C85.7754 114.108 85.8875 114.133 85.9133 114.021C86.1633 113.96 86.439 113.786 86.6889 113.725L86.8268 113.639C87.0768 113.578 87.4646 113.43 87.7145 113.369C87.7145 113.369 87.8266 113.394 87.8524 113.282C88.1023 113.221 88.4643 113.186 88.7143 113.125L88.8264 113.15C89.1884 113.115 89.4383 113.054 89.8003 113.019C89.8003 113.019 89.9124 113.044 89.9382 112.932C90.5502 112.835 91.1621 112.739 91.7483 112.755L91.8604 112.781C92.5844 112.71 93.2826 112.752 94.0067 112.681L94.1188 112.707C94.817 112.749 95.4289 112.652 96.1272 112.694C96.7133 112.71 97.4116 112.752 97.9977 112.768C98.5839 112.784 99.1701 112.8 99.7562 112.816C99.8683 112.842 100.118 112.781 100.23 112.807C100.816 112.823 101.403 112.839 101.989 112.855C101.989 112.855 101.989 112.855 102.101 112.881C102.687 112.897 103.299 112.8 103.773 112.791C103.885 112.816 103.885 112.816 104.023 112.73C104.135 112.755 104.161 112.643 104.273 112.669C104.635 112.633 104.997 112.598 105.247 112.537C105.359 112.563 105.497 112.476 105.609 112.501C105.721 112.527 105.747 112.415 105.859 112.44C105.971 112.466 106.109 112.379 106.221 112.405C106.583 112.37 106.945 112.334 107.221 112.161C107.221 112.161 107.333 112.187 107.359 112.074C107.746 111.926 108.108 111.891 108.496 111.743C108.884 111.595 109.272 111.448 109.548 111.274C109.685 111.187 109.798 111.213 109.823 111.101C110.073 111.039 110.349 110.866 110.513 110.667L110.651 110.58L110.788 110.493C110.926 110.406 111.038 110.432 111.064 110.32C111.202 110.233 111.34 110.146 111.478 110.059C111.616 109.973 111.641 109.86 111.754 109.886L111.891 109.799L112.029 109.712C112.305 109.539 112.469 109.34 112.744 109.166L112.882 109.079C112.882 109.079 112.882 109.079 112.908 108.967C113.184 108.793 113.373 108.482 113.649 108.308C113.649 108.308 113.675 108.196 113.787 108.221C113.951 108.022 114.114 107.823 114.39 107.65C114.39 107.65 114.416 107.537 114.528 107.563C114.528 107.563 114.554 107.45 114.666 107.476C114.829 107.277 114.993 107.078 115.157 106.878C115.157 106.878 115.183 106.766 115.295 106.792C115.484 106.48 115.648 106.281 115.949 105.995C115.949 105.995 115.949 105.995 115.975 105.882L116.001 105.77C116.19 105.458 116.354 105.259 116.518 105.06C116.518 105.06 116.518 105.06 116.544 104.947C116.569 104.835 116.569 104.835 116.707 104.748C116.733 104.636 116.871 104.549 116.897 104.436C116.922 104.324 116.922 104.324 117.06 104.237C117.086 104.125 117.086 104.125 117.224 104.038C117.224 104.038 117.224 104.038 117.25 103.925C117.413 103.726 117.465 103.501 117.603 103.414C117.629 103.302 117.792 103.103 117.818 102.99C118.033 102.566 118.223 102.254 118.326 101.805L118.352 101.692L118.378 101.58C118.593 101.156 118.808 100.731 118.937 100.169L118.963 100.057L118.989 99.9441C119.066 99.6068 119.256 99.2951 119.333 98.9577C119.359 98.8452 119.359 98.8452 119.385 98.7327C119.462 98.3954 119.677 97.9712 119.755 97.6338C119.755 97.6338 119.755 97.6338 119.781 97.5213L119.806 97.4089C119.961 96.7341 120.202 96.1975 120.357 95.5227L120.383 95.4102C120.538 94.7354 120.779 94.1988 120.933 93.524C121.114 92.7368 121.381 92.0877 121.561 91.3004C121.742 90.5132 122.035 89.7516 122.327 88.9901C122.379 88.7652 122.431 88.5402 122.456 88.4278C122.775 87.5538 123.093 86.6797 123.3 85.78C123.325 85.6676 123.325 85.6676 123.351 85.5551C123.67 84.6811 124.014 83.6946 124.332 82.8206C124.384 82.5957 124.548 82.3965 124.573 82.284C124.892 81.41 125.21 80.536 125.641 79.6877C125.667 79.5752 125.693 79.4627 125.83 79.376C126.123 78.6144 126.554 77.7661 126.846 77.0046C127.036 76.6929 127.113 76.3555 127.303 76.0438C127.518 75.6197 127.707 75.308 127.81 74.8581C128 74.5464 128.215 74.1223 128.293 73.7849C128.293 73.7849 128.293 73.7849 128.318 73.6724C128.482 73.4732 128.534 73.2483 128.723 72.9366C128.749 72.8241 128.887 72.7374 128.887 72.7374C128.913 72.6249 129.05 72.5382 129.076 72.4257C129.102 72.3132 129.24 72.2265 129.266 72.114C129.292 72.0015 129.292 72.0015 129.429 71.9148C129.593 71.7156 129.619 71.6031 129.783 71.4039C129.92 71.3171 130.084 71.1179 130.11 71.0054L130.248 70.9187C130.386 70.8319 130.549 70.6327 130.687 70.5459C130.851 70.3467 131.127 70.1732 131.264 70.0864L131.402 69.9997L131.54 69.9129C131.816 69.7394 131.98 69.5402 132.23 69.4791C132.367 69.3924 132.367 69.3924 132.505 69.3056C132.781 69.1321 133.031 69.0711 133.307 68.8976C133.419 68.9233 133.445 68.8108 133.557 68.8365C133.944 68.6887 134.22 68.5152 134.608 68.3674C134.72 68.3931 134.746 68.2806 134.858 68.3063C135.108 68.2453 135.384 68.0718 135.746 68.0364C135.858 68.0622 135.996 67.9754 135.996 67.9754C136.383 67.8276 136.633 67.7665 137.021 67.6187C137.659 67.4099 138.409 67.2267 138.934 66.9922C139.46 66.7576 139.96 66.6355 140.374 66.3753L140.512 66.2885C140.925 66.0282 141.425 65.9061 141.839 65.6459L141.977 65.5591L142.114 65.4723C142.252 65.3856 142.528 65.2121 142.666 65.1253C142.804 65.0386 142.804 65.0386 142.942 64.9518C143.217 64.7783 143.355 64.6915 143.631 64.518L143.769 64.4313C144.182 64.171 144.484 63.885 144.786 63.599L144.923 63.5123C144.923 63.5123 144.949 63.3998 145.061 63.4255C145.337 63.252 145.639 62.966 145.802 62.7668C145.802 62.7668 145.802 62.7668 145.828 62.6544C146.104 62.4808 146.293 62.1692 146.595 61.8832C146.595 61.8832 146.595 61.8832 146.621 61.7707C146.646 61.6582 146.758 61.6839 146.784 61.5715C146.948 61.3723 147.086 61.2855 147.137 61.0606L147.163 60.9481C147.189 60.8357 147.327 60.7489 147.327 60.7489C147.465 60.6621 147.516 60.4372 147.654 60.3505C147.654 60.3505 147.68 60.238 147.792 60.2637C147.818 60.1512 147.956 60.0645 147.956 60.0645C147.982 59.952 148.119 59.8653 148.145 59.7528L148.171 59.6403C148.197 59.5279 148.335 59.4411 148.36 59.3286C148.386 59.2162 148.524 59.1294 148.55 59.0169L148.576 58.9045C148.602 58.792 148.739 58.7053 148.765 58.5928C148.791 58.4803 148.929 58.3936 148.955 58.2811C148.955 58.2811 148.955 58.2811 148.98 58.1687C149.144 57.9694 149.196 57.7445 149.247 57.5196C149.247 57.5196 149.247 57.5196 149.273 57.4071C149.299 57.2946 149.325 57.1822 149.325 57.1822L152.213 57.9631L142.23 25.3672L139.342 24.5864C140.868 24.1076 140.842 24.2201 140.704 24.3068Z" fill="#291B07"/>
<path d="M140.704 24.3068C140.652 24.5318 140.489 24.731 140.299 25.0427C140.274 25.1551 140.136 25.2419 140.11 25.3543C140.084 25.4668 139.92 25.6661 139.895 25.7785C139.869 25.891 139.731 25.9777 139.705 26.0902C139.679 26.2027 139.516 26.4019 139.49 26.5143C139.464 26.6268 139.326 26.7136 139.3 26.826C139.275 26.9385 139.137 27.0252 139.085 27.2502C138.947 27.3369 138.896 27.5619 138.758 27.6486C138.62 27.7354 138.594 27.8478 138.456 27.9346C138.293 28.1338 138.155 28.2206 138.103 28.4455C138.077 28.558 137.939 28.6447 137.914 28.7572C137.724 29.0689 137.448 29.2424 137.147 29.5284C137.147 29.5284 137.147 29.5284 137.121 29.6408C136.82 29.9268 136.656 30.126 136.38 30.2996C136.242 30.3863 136.242 30.3863 136.104 30.4731C135.803 30.759 135.389 31.0193 135.088 31.3053L134.95 31.3921C134.674 31.5655 134.536 31.6523 134.26 31.8258C134.123 31.9126 134.123 31.9126 133.985 31.9993C133.847 32.0861 133.571 32.2596 133.433 32.3464C133.295 32.4331 133.295 32.4331 133.157 32.5199C132.744 32.7802 132.33 33.0404 131.83 33.1625L131.693 33.2493C131.167 33.4838 130.779 33.6316 130.253 33.8662C129.616 34.0751 128.978 34.2839 128.34 34.4928C127.952 34.6406 127.702 34.7016 127.314 34.8494C127.202 34.8237 127.065 34.9105 127.065 34.9105C126.815 34.9715 126.539 35.145 126.177 35.1804C126.065 35.1547 126.039 35.2671 125.927 35.2414C125.539 35.3892 125.263 35.5627 124.876 35.7105C124.763 35.6848 124.738 35.7973 124.626 35.7716C124.35 35.9451 124.1 36.0062 123.824 36.1797L123.686 36.2664C123.686 36.2664 123.66 36.3789 123.548 36.3532C123.273 36.5267 123.023 36.5877 122.859 36.787L122.721 36.8737L122.583 36.9605C122.445 37.0472 122.308 37.134 122.17 37.2207C122.144 37.3332 122.032 37.3075 122.006 37.42C121.868 37.5067 121.842 37.6192 121.73 37.5935C121.704 37.7059 121.592 37.6802 121.567 37.7927L121.429 37.8795C121.429 37.8795 121.429 37.8794 121.403 37.9919C121.265 38.0787 121.239 38.1911 121.076 38.3904C120.938 38.4771 120.886 38.7021 120.748 38.7888C120.748 38.7888 120.748 38.7888 120.722 38.9013C120.697 39.0137 120.585 38.988 120.559 39.1005C120.533 39.213 120.395 39.2997 120.395 39.2997L120.369 39.4122C120.344 39.5246 120.206 39.6114 120.18 39.7239C120.154 39.8363 120.154 39.8363 120.016 39.9231C120.016 39.9231 120.016 39.9231 119.99 40.0356C119.827 40.2348 119.775 40.4597 119.586 40.7714C119.586 40.7714 119.586 40.7714 119.56 40.8838C119.37 41.1955 119.155 41.6197 119.078 41.9571C118.862 42.3812 118.673 42.6929 118.57 43.1428C118.518 43.3677 118.355 43.5669 118.329 43.6794C118.303 43.7919 118.277 43.9043 118.139 43.9911C117.847 44.7526 117.416 45.6009 117.123 46.3625C117.098 46.4749 117.072 46.5874 116.934 46.6742C116.615 47.5482 116.185 48.3965 115.867 49.2705C115.841 49.3829 115.815 49.4954 115.789 49.6079C115.763 49.7203 115.738 49.8328 115.712 49.9453C115.393 50.8193 115.049 51.8058 114.731 52.6798C114.705 52.7922 114.705 52.7922 114.679 52.9047C114.361 53.7787 114.042 54.6527 113.836 55.5524C113.81 55.6649 113.784 55.7774 113.758 55.8898C113.732 56.0023 113.707 56.1148 113.707 56.1148C113.414 56.8763 113.233 57.6636 112.941 58.4251C112.76 59.2124 112.493 59.8614 112.313 60.6487C112.158 61.3235 111.891 61.9726 111.762 62.5349L111.736 62.6473C111.581 63.3221 111.34 63.8588 111.186 64.5335C111.16 64.646 111.16 64.646 111.134 64.7585C111.057 65.0959 110.841 65.52 110.764 65.8574C110.738 65.9699 110.738 65.9699 110.712 66.0823C110.635 66.4197 110.446 66.7314 110.368 67.0688C110.342 67.1813 110.317 67.2937 110.317 67.2937C110.101 67.7179 109.998 68.1678 109.757 68.7044C109.731 68.8168 109.705 68.9293 109.568 69.0161C109.326 69.5527 109.085 70.0893 108.732 70.6002C108.681 70.8251 108.543 70.9119 108.379 71.1111C108.353 71.2236 108.215 71.3103 108.19 71.4228C108.164 71.5352 108.164 71.5352 108.026 71.622C108 71.7345 107.862 71.8212 107.837 71.9337C107.811 72.0462 107.811 72.0462 107.673 72.1329L107.647 72.2454C107.483 72.4446 107.294 72.7563 107.13 72.9555C107.104 73.068 107.104 73.068 106.967 73.1547C106.777 73.4664 106.613 73.6656 106.312 73.9516C106.286 74.0641 106.174 74.0384 106.148 74.1508C105.985 74.3501 105.821 74.5493 105.657 74.7485C105.631 74.861 105.494 74.9477 105.494 74.9477C105.33 75.1469 105.166 75.3462 104.891 75.5197C104.865 75.6321 104.753 75.6064 104.727 75.7189C104.451 75.8924 104.262 76.2041 103.986 76.3776C103.96 76.4901 103.848 76.4644 103.822 76.5768C103.546 76.7503 103.383 76.9496 103.107 77.1231C102.969 77.2098 102.943 77.3223 102.831 77.2966C102.693 77.3834 102.668 77.4958 102.556 77.4701C102.418 77.5569 102.28 77.6436 102.142 77.7304C102.004 77.8171 101.892 77.7914 101.866 77.9039C101.728 77.9906 101.59 78.0774 101.478 78.0517C101.203 78.2252 101.065 78.312 100.789 78.4855C100.651 78.5722 100.539 78.5465 100.513 78.659C100.125 78.8068 99.8498 78.9803 99.4619 79.1281C99.0741 79.2759 98.6863 79.4237 98.1864 79.5458C98.1864 79.5458 98.0743 79.5201 98.0485 79.6326C97.6865 79.6679 97.4108 79.8414 97.0488 79.8768C96.9367 79.8511 96.7988 79.9378 96.6868 79.9121C96.4368 79.9732 96.3247 79.9474 96.0748 80.0085C95.7128 80.0438 95.4628 80.1049 95.1008 80.1402C94.9887 80.1145 94.7388 80.1756 94.6267 80.1499C94.0406 80.1338 93.4286 80.2302 92.9545 80.2398C92.9545 80.2398 92.9545 80.2398 92.8424 80.2141C92.2563 80.198 91.6701 80.1819 91.0839 80.1659C90.9719 80.1402 90.7219 80.2012 90.6099 80.1755C90.0237 80.1594 89.4375 80.1433 88.8514 80.1273C88.2652 80.1112 87.567 80.0694 86.9808 80.0533C86.2826 80.0115 85.5843 79.9698 84.9724 80.0662C84.9724 80.0662 84.9724 80.0662 84.8603 80.0404C84.1621 79.9987 83.438 80.0693 82.714 80.14C82.714 80.14 82.714 80.14 82.6019 80.1143C81.99 80.2107 81.4038 80.1946 80.7918 80.291C80.7918 80.291 80.7918 80.291 80.6798 80.2653L80.5677 80.2396C80.2057 80.2749 79.9557 80.336 79.5937 80.3713L79.4816 80.3456C79.2317 80.4067 78.8697 80.442 78.6197 80.503L78.5077 80.4773C78.2577 80.5384 77.8699 80.6862 77.62 80.7472L77.4821 80.834C77.2321 80.895 76.9822 80.9561 76.7065 81.1296C76.7065 81.1296 76.5944 81.1039 76.5686 81.2164C76.3186 81.2774 76.0429 81.4509 75.7672 81.6244L75.6293 81.7112C75.3793 81.7722 75.1036 81.9458 74.9399 82.145C74.9399 82.145 74.9399 82.145 74.8279 82.1193C74.5779 82.1803 74.4142 82.3795 74.2764 82.4663L74.1385 82.5531C74.0006 82.6398 73.8628 82.7266 73.6991 82.9258C73.6991 82.9258 73.6991 82.9258 73.5612 83.0125C73.2855 83.1861 73.1218 83.3853 72.8461 83.5588C72.8461 83.5588 72.8461 83.5588 72.7082 83.6455C72.5445 83.8448 72.2688 84.0183 72.1051 84.2175C72.1051 84.2175 72.0793 84.33 71.9672 84.3043C71.8036 84.5035 71.6657 84.5902 71.502 84.7895C71.502 84.7895 71.4762 84.9019 71.3642 84.8762C71.3642 84.8762 71.3384 84.9887 71.2263 84.963C71.0884 85.0497 70.9248 85.2489 70.8732 85.4739L70.7353 85.5606C70.7353 85.5606 70.7353 85.5606 70.7095 85.6731C70.5458 85.8723 70.3563 86.184 70.1927 86.3832C70.029 86.5825 69.8395 86.8941 69.6759 87.0934C69.6759 87.0934 69.6759 87.0934 69.6501 87.2058C69.6501 87.2058 69.6243 87.3183 69.5122 87.2926C69.3485 87.4918 69.2969 87.7167 69.1333 87.916L69.1075 88.0284L69.0817 88.1409C68.8922 88.4526 68.7027 88.7643 68.5133 89.0759C68.3496 89.2752 68.2722 89.6126 68.1085 89.8118C66.9201 91.9068 65.8438 94.0276 64.7417 96.2608C64.337 96.9966 63.9064 97.8449 63.5017 98.5808C63.4759 98.6932 63.4759 98.6932 63.4501 98.8057C63.0454 99.5415 62.6406 100.277 62.2359 101.013C62.2101 101.126 62.1843 101.238 62.0722 101.212C61.6675 101.948 61.2628 102.684 60.858 103.42C60.8322 103.532 60.8064 103.645 60.6686 103.732C60.2638 104.467 59.8591 105.203 59.4544 105.939C59.4286 106.052 59.4286 106.052 59.2907 106.138C58.9118 106.762 58.5328 107.385 58.1281 108.121C58.1023 108.233 57.9644 108.32 57.9386 108.433C57.5597 109.056 57.1808 109.679 56.8018 110.303C56.776 110.415 56.6382 110.502 56.6124 110.614C56.2592 111.125 56.044 111.549 55.6908 112.06C55.6908 112.06 55.665 112.173 55.5529 112.147C55.2256 112.546 55.0103 112.97 54.683 113.368C54.5451 113.455 54.4935 113.68 54.3557 113.767C54.1662 114.078 54.0025 114.278 53.701 114.564C53.5631 114.65 53.5115 114.875 53.3737 114.962C53.0463 115.36 52.8568 115.672 52.5295 116.071C52.5295 116.071 52.5295 116.071 52.5037 116.183C52.1764 116.581 51.8748 116.867 51.6596 117.292C51.5217 117.378 51.4959 117.491 51.358 117.578C51.1944 117.777 50.8928 118.063 50.7291 118.262C50.5913 118.349 50.4276 118.548 50.2897 118.635C50.1261 118.834 49.9624 119.033 49.7987 119.232C49.6609 119.319 49.4972 119.518 49.3593 119.605C49.1956 119.804 49.032 120.004 48.8941 120.09C48.7562 120.177 48.5926 120.376 48.4547 120.463C48.291 120.662 48.1532 120.749 47.9895 120.948C47.8516 121.035 47.6879 121.234 47.5501 121.321C47.3864 121.52 47.2485 121.607 46.9728 121.78C46.8349 121.867 46.6713 122.066 46.5334 122.153C46.3697 122.352 46.094 122.526 45.9303 122.725C45.7924 122.812 45.6288 123.011 45.4909 123.098C45.2151 123.271 45.0515 123.471 44.7757 123.644C44.6379 123.731 44.5 123.818 44.3621 123.904C43.9227 124.277 43.397 124.512 42.9576 124.884L42.8197 124.971C42.4061 125.231 41.9925 125.492 41.5789 125.752C41.441 125.839 41.3032 125.926 41.1653 126.012C40.8895 126.186 40.6138 126.359 40.226 126.507C40.0881 126.594 39.9503 126.681 39.8124 126.767C39.3988 127.028 38.8731 127.262 38.4853 127.41C37.9596 127.645 37.4597 127.767 36.8219 127.976C36.6841 128.062 36.4341 128.123 36.322 128.098C35.9342 128.245 35.5722 128.281 35.1844 128.429C35.0465 128.515 34.8224 128.464 34.6845 128.551C34.3225 128.586 33.9347 128.734 33.5727 128.769C33.4348 128.856 33.2106 128.804 33.0728 128.891C32.5729 129.013 32.0988 129.023 31.4868 129.119C31.3748 129.094 31.2369 129.18 31.2369 129.18C30.8749 129.216 30.5129 129.251 30.1508 129.286C29.7888 129.322 29.3147 129.331 28.9527 129.367C28.7028 129.428 28.4786 129.376 28.1166 129.412C27.6425 129.421 27.2805 129.457 26.8322 129.354C26.6081 129.302 26.3581 129.363 26.134 129.312C25.5478 129.296 24.9616 129.28 24.5134 129.177C24.4013 129.151 24.2892 129.126 24.1771 129.1C23.4789 129.058 22.6944 128.878 21.9961 128.836C21.5479 128.734 21.0738 128.743 20.6255 128.64C20.5134 128.615 20.5134 128.615 20.4013 128.589C19.841 128.46 19.2806 128.332 18.6944 128.316C18.4703 128.264 18.1341 128.187 17.9099 128.136C17.5737 128.059 17.2375 127.982 16.9013 127.904C16.6771 127.853 16.3409 127.776 16.1168 127.725C15.7805 127.647 15.5564 127.596 15.2202 127.519C14.4357 127.339 13.6512 127.159 13.0045 126.892C12.8924 126.867 12.7804 126.841 12.6683 126.815C11.9959 126.661 11.4613 126.42 10.7889 126.266C10.4526 126.188 10.0043 126.086 9.69392 125.896L18.4009 158.91C18.625 158.961 18.9613 159.038 19.1596 159.202C19.2717 159.228 19.3837 159.253 19.4958 159.279C20.1683 159.433 20.7028 159.674 21.3753 159.829C21.4873 159.854 21.5994 159.88 21.7115 159.906C22.496 160.086 23.1426 160.352 23.9271 160.532C24.0392 160.558 24.0392 160.558 24.1513 160.584C24.3754 160.635 24.5996 160.687 24.8237 160.738C25.0479 160.789 25.3841 160.867 25.6082 160.918C25.9445 160.995 26.2807 161.072 26.6169 161.149C26.841 161.201 27.1773 161.278 27.4014 161.329C27.5135 161.355 27.5135 161.355 27.6255 161.381C28.0738 161.484 28.6342 161.612 29.1083 161.602C29.2204 161.628 29.2204 161.628 29.3324 161.654C29.7807 161.757 30.117 161.834 30.591 161.824C30.7031 161.85 30.7031 161.85 30.8152 161.876C31.6255 161.943 32.2979 162.097 32.9962 162.139C33.1082 162.165 33.2203 162.191 33.3324 162.216C33.9186 162.232 34.4789 162.361 35.0651 162.377C35.1772 162.403 35.1772 162.403 35.2892 162.428C35.4013 162.454 35.6512 162.393 35.7633 162.419C36.2374 162.409 36.5736 162.486 37.0477 162.477C37.1598 162.502 37.2719 162.528 37.4097 162.441C37.5218 162.467 37.6597 162.38 37.8838 162.432C38.2458 162.396 38.7199 162.387 39.0819 162.351C39.194 162.377 39.444 162.316 39.556 162.342C39.6939 162.255 39.9181 162.306 40.168 162.245C40.2801 162.271 40.4179 162.184 40.4179 162.184C40.892 162.175 41.2799 162.027 41.7539 162.017C41.866 162.043 41.8918 161.93 42.0039 161.956C42.1418 161.869 42.3659 161.921 42.5038 161.834C42.8658 161.799 43.2536 161.651 43.6156 161.616C43.7535 161.529 43.9776 161.58 44.1155 161.493C44.2534 161.407 44.3655 161.432 44.4775 161.458C44.7275 161.397 44.9774 161.336 45.2274 161.275C45.4773 161.214 45.7272 161.153 45.8651 161.066C46.3908 160.832 47.0028 160.735 47.5284 160.501C48.0541 160.266 48.442 160.118 48.8556 159.858C48.9934 159.771 49.1313 159.684 49.2692 159.598C49.5449 159.424 49.9327 159.276 50.2085 159.103C50.3205 159.129 50.3463 159.016 50.4584 159.042C50.5705 159.068 50.5963 158.955 50.7084 158.981C51.122 158.721 51.5356 158.46 51.9492 158.2L52.0871 158.113C52.5265 157.741 53.0522 157.506 53.4916 157.133L53.6295 157.046C53.7673 156.96 53.7931 156.847 53.9052 156.873C54.1809 156.699 54.3446 156.5 54.6204 156.327C54.7582 156.24 54.9219 156.041 55.0598 155.954C55.2234 155.755 55.4992 155.581 55.6628 155.382C55.8007 155.295 55.8265 155.183 55.9386 155.208C55.9644 155.096 56.0765 155.122 56.1023 155.009C56.2659 154.81 56.4038 154.723 56.6795 154.55C56.8174 154.463 56.9811 154.264 57.1189 154.177C57.2826 153.978 57.4205 153.891 57.5842 153.692C57.722 153.605 57.7478 153.493 57.8857 153.406L58.0236 153.319C58.1872 153.12 58.3509 152.921 58.4888 152.834C58.6266 152.747 58.7903 152.548 58.9282 152.461C59.0919 152.262 59.2555 152.063 59.4192 151.864C59.5571 151.777 59.5829 151.664 59.7207 151.578C59.7207 151.578 59.7465 151.465 59.8586 151.491C60.0223 151.292 60.3238 151.006 60.4875 150.806C60.6254 150.72 60.6512 150.607 60.789 150.52C61.1164 150.122 61.4179 149.836 61.6332 149.412C61.6332 149.412 61.6332 149.412 61.659 149.299C61.9863 148.901 62.2878 148.615 62.5031 148.191C62.641 148.104 62.6926 147.879 62.8305 147.792C63.0199 147.481 63.1836 147.281 63.4851 146.995C63.5109 146.883 63.623 146.909 63.6488 146.796C63.6746 146.684 63.7867 146.709 63.8125 146.597C64.1398 146.199 64.3551 145.774 64.6824 145.376C64.6824 145.376 64.7082 145.263 64.8203 145.289C65.1734 144.778 65.5008 144.38 65.7418 143.843C65.7418 143.843 65.7676 143.731 65.8797 143.756C65.9055 143.644 65.9055 143.644 66.0434 143.557C66.4223 142.934 66.8012 142.311 67.1802 141.687C67.206 141.575 67.3438 141.488 67.3696 141.375C67.7486 140.752 68.1275 140.129 68.5322 139.393L68.558 139.28L68.5838 139.168C68.9886 138.432 69.3933 137.696 69.798 136.96C69.8238 136.848 69.8496 136.736 69.9875 136.649C70.3922 135.913 70.797 135.177 71.2017 134.441C71.2275 134.329 71.2533 134.216 71.3654 134.242C71.7701 133.506 72.1748 132.77 72.6054 131.922C72.6312 131.81 72.6312 131.81 72.657 131.697C73.0875 130.849 73.4922 130.113 73.8969 129.377C74.9991 127.144 76.1875 125.049 77.2638 122.928C77.4275 122.729 77.5049 122.391 77.6685 122.192C77.858 121.881 78.0475 121.569 78.2369 121.257C78.2627 121.145 78.4006 121.058 78.4006 121.058C78.5643 120.859 78.6159 120.634 78.7795 120.435C78.8053 120.322 78.9432 120.235 78.9432 120.235C79.1069 120.036 79.2963 119.725 79.46 119.525C79.6237 119.326 79.8132 119.014 79.9768 118.815C80.0026 118.703 80.1147 118.728 80.1405 118.616C80.3042 118.417 80.442 118.33 80.4936 118.105C80.5194 117.993 80.6315 118.018 80.6573 117.906C80.821 117.707 80.9588 117.62 81.1225 117.421C81.1483 117.308 81.2604 117.334 81.2862 117.221C81.4498 117.022 81.7256 116.849 81.8893 116.649L82.0271 116.563C82.3029 116.389 82.4665 116.19 82.7423 116.016L82.8801 115.93C83.018 115.843 83.1817 115.644 83.3196 115.557L83.4574 115.47C83.5953 115.383 83.871 115.21 84.0089 115.123C84.0089 115.123 84.0089 115.123 84.1468 115.036C84.4225 114.863 84.6725 114.802 84.8361 114.603L84.974 114.516C85.2498 114.342 85.4997 114.281 85.7754 114.108C85.7754 114.108 85.8875 114.133 85.9133 114.021C86.1633 113.96 86.439 113.786 86.6889 113.725L86.8268 113.639C87.0768 113.578 87.4646 113.43 87.7145 113.369C87.7145 113.369 87.8266 113.394 87.8524 113.282C88.1023 113.221 88.4643 113.186 88.7143 113.125L88.8264 113.15C89.1884 113.115 89.4383 113.054 89.8003 113.019C89.8003 113.019 89.9124 113.044 89.9382 112.932C90.5502 112.835 91.1621 112.739 91.7483 112.755L91.8604 112.781C92.5844 112.71 93.2826 112.752 94.0067 112.681L94.1188 112.707C94.817 112.749 95.4289 112.652 96.1272 112.694C96.7133 112.71 97.4116 112.752 97.9977 112.768C98.5839 112.784 99.1701 112.8 99.7562 112.816C99.8683 112.842 100.118 112.781 100.23 112.807C100.816 112.823 101.403 112.839 101.989 112.855C101.989 112.855 101.989 112.855 102.101 112.881C102.687 112.897 103.299 112.8 103.773 112.791C103.885 112.816 103.885 112.816 104.023 112.73C104.135 112.755 104.161 112.643 104.273 112.669C104.635 112.633 104.997 112.598 105.247 112.537C105.359 112.563 105.497 112.476 105.609 112.501C105.721 112.527 105.747 112.415 105.859 112.44C105.971 112.466 106.109 112.379 106.221 112.405C106.583 112.37 106.945 112.334 107.221 112.161C107.221 112.161 107.333 112.187 107.359 112.074C107.746 111.926 108.108 111.891 108.496 111.743C108.884 111.595 109.272 111.448 109.548 111.274C109.685 111.187 109.798 111.213 109.823 111.101C110.073 111.039 110.349 110.866 110.513 110.667L110.651 110.58L110.788 110.493C110.926 110.406 111.038 110.432 111.064 110.32C111.202 110.233 111.34 110.146 111.478 110.059C111.616 109.973 111.641 109.86 111.754 109.886L111.891 109.799L112.029 109.712C112.305 109.539 112.469 109.34 112.744 109.166L112.882 109.079C112.882 109.079 112.882 109.079 112.908 108.967C113.184 108.793 113.373 108.482 113.649 108.308C113.649 108.308 113.675 108.196 113.787 108.221C113.951 108.022 114.114 107.823 114.39 107.65C114.39 107.65 114.416 107.537 114.528 107.563C114.528 107.563 114.554 107.45 114.666 107.476C114.829 107.277 114.993 107.078 115.157 106.878C115.157 106.878 115.183 106.766 115.295 106.792C115.484 106.48 115.648 106.281 115.949 105.995C115.949 105.995 115.949 105.995 115.975 105.882L116.001 105.77C116.19 105.458 116.354 105.259 116.518 105.06C116.518 105.06 116.518 105.06 116.544 104.947C116.569 104.835 116.569 104.835 116.707 104.748C116.733 104.636 116.871 104.549 116.897 104.436C116.922 104.324 116.922 104.324 117.06 104.237C117.086 104.125 117.086 104.125 117.224 104.038C117.224 104.038 117.224 104.038 117.25 103.925C117.413 103.726 117.465 103.501 117.603 103.414C117.629 103.302 117.792 103.103 117.818 102.99C118.033 102.566 118.223 102.254 118.326 101.805L118.352 101.692L118.378 101.58C118.593 101.156 118.808 100.731 118.937 100.169L118.963 100.057L118.989 99.9441C119.066 99.6068 119.256 99.2951 119.333 98.9577C119.359 98.8452 119.359 98.8452 119.385 98.7327C119.462 98.3954 119.677 97.9712 119.755 97.6338C119.755 97.6338 119.755 97.6338 119.781 97.5213L119.806 97.4089C119.961 96.7341 120.202 96.1975 120.357 95.5227L120.383 95.4102C120.538 94.7354 120.779 94.1988 120.933 93.524C121.114 92.7368 121.381 92.0877 121.561 91.3004C121.742 90.5132 122.035 89.7516 122.327 88.9901C122.379 88.7652 122.431 88.5402 122.456 88.4278C122.775 87.5538 123.093 86.6797 123.3 85.78C123.325 85.6676 123.325 85.6676 123.351 85.5551C123.67 84.6811 124.014 83.6946 124.332 82.8206C124.384 82.5957 124.548 82.3965 124.573 82.284C124.892 81.41 125.21 80.536 125.641 79.6877C125.667 79.5752 125.693 79.4627 125.83 79.376C126.123 78.6144 126.554 77.7661 126.846 77.0046C127.036 76.6929 127.113 76.3555 127.303 76.0438C127.518 75.6197 127.707 75.308 127.81 74.8581C128 74.5464 128.215 74.1223 128.293 73.7849C128.293 73.7849 128.293 73.7849 128.318 73.6724C128.482 73.4732 128.534 73.2483 128.723 72.9366C128.749 72.8241 128.887 72.7374 128.887 72.7374C128.913 72.6249 129.05 72.5382 129.076 72.4257C129.102 72.3132 129.24 72.2265 129.266 72.114C129.292 72.0015 129.292 72.0015 129.429 71.9148C129.593 71.7156 129.619 71.6031 129.783 71.4039C129.92 71.3171 130.084 71.1179 130.11 71.0054L130.248 70.9187C130.386 70.8319 130.549 70.6327 130.687 70.5459C130.851 70.3467 131.127 70.1732 131.264 70.0864L131.402 69.9997L131.54 69.9129C131.816 69.7394 131.98 69.5402 132.23 69.4791C132.367 69.3924 132.367 69.3924 132.505 69.3056C132.781 69.1321 133.031 69.0711 133.307 68.8976C133.419 68.9233 133.445 68.8108 133.557 68.8365C133.944 68.6887 134.22 68.5152 134.608 68.3674C134.72 68.3931 134.746 68.2806 134.858 68.3063C135.108 68.2453 135.384 68.0718 135.746 68.0364C135.858 68.0622 135.996 67.9754 135.996 67.9754C136.383 67.8276 136.633 67.7665 137.021 67.6187C137.659 67.4099 138.409 67.2267 138.934 66.9922C139.46 66.7576 139.96 66.6355 140.374 66.3753L140.512 66.2885C140.925 66.0282 141.425 65.9061 141.839 65.6459L141.977 65.5591L142.114 65.4723C142.252 65.3856 142.528 65.2121 142.666 65.1253C142.804 65.0386 142.804 65.0386 142.942 64.9518C143.217 64.7783 143.355 64.6915 143.631 64.518L143.769 64.4313C144.182 64.171 144.484 63.885 144.786 63.599L144.923 63.5123C144.923 63.5123 144.949 63.3998 145.061 63.4255C145.337 63.252 145.639 62.966 145.802 62.7668C145.802 62.7668 145.802 62.7668 145.828 62.6544C146.104 62.4808 146.293 62.1692 146.595 61.8832C146.595 61.8832 146.595 61.8832 146.621 61.7707C146.646 61.6582 146.758 61.6839 146.784 61.5715C146.948 61.3723 147.086 61.2855 147.137 61.0606L147.163 60.9481C147.189 60.8357 147.327 60.7489 147.327 60.7489C147.465 60.6621 147.516 60.4372 147.654 60.3505C147.654 60.3505 147.68 60.238 147.792 60.2637C147.818 60.1512 147.956 60.0645 147.956 60.0645C147.982 59.952 148.119 59.8653 148.145 59.7528L148.171 59.6403C148.197 59.5279 148.335 59.4411 148.36 59.3286C148.386 59.2162 148.524 59.1294 148.55 59.0169L148.576 58.9045C148.602 58.792 148.739 58.7053 148.765 58.5928C148.791 58.4803 148.929 58.3936 148.955 58.2811C148.955 58.2811 148.955 58.2811 148.98 58.1687C149.144 57.9694 149.196 57.7445 149.247 57.5196C149.247 57.5196 149.247 57.5196 149.273 57.4071C149.299 57.2946 149.325 57.1822 149.325 57.1822L152.213 57.9631L142.23 25.3672L139.342 24.5864C140.868 24.1076 140.842 24.2201 140.704 24.3068Z" fill="url(#paint0_linear_157_1398)"/>
<path d="M17.2232 161.48L18.5148 158.935C27.662 161.744 38.309 164.186 47.6423 160.526C60.9224 154.575 67.9229 141.028 74.0882 129.065C75.1903 126.832 76.3787 124.737 77.4551 122.616C81.4758 113.831 87.9743 112.244 96.4047 112.52C96.9909 112.536 97.6891 112.578 98.2753 112.594C102.016 112.742 105.645 112.864 108.972 111.733C113.988 109.924 116.865 105.612 118.13 103.18C118.371 102.643 118.613 102.106 118.966 101.596C120.171 98.9125 120.954 96.0141 121.823 93.2539C122.003 92.4666 122.27 91.8176 122.451 91.0303C123.974 85.9341 125.885 80.69 128.192 75.7737C128.407 75.3495 128.597 75.0379 128.7 74.588C129.423 72.9782 130.258 71.394 131.715 70.1891C133.498 68.5857 135.799 67.8113 138.074 67.1494C138.712 66.9405 139.462 66.7574 139.988 66.5228C144.754 64.7749 148.76 61.1953 150.663 57.0149C150.688 56.9024 150.714 56.79 150.852 56.7032L153.74 57.4841C151.355 62.7378 146.608 66.976 141.067 69.0196C140.291 69.3152 139.653 69.524 138.903 69.7072C136.99 70.3337 135.103 70.8478 133.896 71.9918C132.854 72.9364 132.234 74.0964 131.674 75.5071C131.459 75.9312 131.27 76.2429 131.166 76.6928C128.971 81.6348 127.026 86.5157 125.615 91.6377C125.434 92.4249 125.167 93.074 124.987 93.8613C124.204 96.7596 123.309 99.6323 122.052 102.54C121.785 103.189 121.544 103.726 121.165 104.349C118.522 109.189 114.627 112.794 110.137 114.368C106.147 115.821 102.07 115.596 98.0786 115.509C97.4925 115.493 96.7942 115.451 96.2081 115.435C87.3036 115.168 83.2964 117.208 80.2658 123.734C79.0774 125.83 78.001 127.95 76.8989 130.183C70.5184 142.571 63.1389 156.741 48.8333 163.049C38.2502 167.014 26.905 164.53 17.2232 161.48Z" fill="url(#paint1_linear_157_1398)"/>
<path d="M17.2235 161.48L7.24103 128.884L8.53263 126.339L18.403 158.909L17.2235 161.48Z" fill="url(#paint2_linear_157_1398)"/>
<path d="M150.85 56.7037L140.644 24.0565L143.609 24.5L153.626 57.4589L150.85 56.7037Z" fill="#291B07"/>
</g>
<defs>
<linearGradient id="paint0_linear_157_1398" x1="12.3243" y1="130.287" x2="149.63" y2="67.0934" gradientUnits="userSpaceOnUse">
<stop offset="0.00558659" stop-color="#DC9246"/>
<stop offset="0.148" stop-color="#9E4D1D"/>
<stop offset="0.1639" stop-color="#99491B"/>
<stop offset="0.2594" stop-color="#7E3512"/>
<stop offset="0.3156" stop-color="#742D0E"/>
<stop offset="0.3427" stop-color="#7D3814"/>
<stop offset="0.3898" stop-color="#965426"/>
<stop offset="0.4509" stop-color="#BF8242"/>
<stop offset="0.486" stop-color="#D9A054"/>
<stop offset="0.5305" stop-color="#D79D51"/>
<stop offset="0.5687" stop-color="#D2924A"/>
<stop offset="0.6045" stop-color="#C9803C"/>
<stop offset="0.6388" stop-color="#BC682A"/>
<stop offset="0.6508" stop-color="#B75D22"/>
<stop offset="0.7269" stop-color="#8F4519"/>
<stop offset="0.8003" stop-color="#6F3212"/>
<stop offset="0.8408" stop-color="#632B0F"/>
</linearGradient>
<linearGradient id="paint1_linear_157_1398" x1="-103.154" y1="89.445" x2="195.983" y2="122.421" gradientUnits="userSpaceOnUse">
<stop stop-color="#B06143"/>
<stop offset="0.2095" stop-color="#9E4D1D"/>
<stop offset="0.2227" stop-color="#99491B"/>
<stop offset="0.3023" stop-color="#7E3512"/>
<stop offset="0.3492" stop-color="#742D0E"/>
<stop offset="0.486" stop-color="#B78A47"/>
<stop offset="0.5252" stop-color="#B77E3D"/>
<stop offset="0.5951" stop-color="#B76024"/>
<stop offset="0.6006" stop-color="#B75D22"/>
<stop offset="0.6467" stop-color="#B45B21"/>
<stop offset="0.6751" stop-color="#AC561F"/>
<stop offset="0.6988" stop-color="#9D4E1C"/>
<stop offset="0.7197" stop-color="#894218"/>
<stop offset="0.7388" stop-color="#6F3212"/>
<stop offset="0.7458" stop-color="#632B0F"/>
</linearGradient>
<linearGradient id="paint2_linear_157_1398" x1="-30.3379" y1="64.5921" x2="129.189" y2="355.212" gradientUnits="userSpaceOnUse">
<stop stop-color="#B06143"/>
<stop offset="0.2095" stop-color="#9E4D1D"/>
<stop offset="0.2227" stop-color="#99491B"/>
<stop offset="0.3023" stop-color="#7E3512"/>
<stop offset="0.3492" stop-color="#742D0E"/>
<stop offset="0.486" stop-color="#B78A47"/>
<stop offset="0.5252" stop-color="#B77E3D"/>
<stop offset="0.5951" stop-color="#B76024"/>
<stop offset="0.6006" stop-color="#B75D22"/>
<stop offset="0.6467" stop-color="#B45B21"/>
<stop offset="0.6751" stop-color="#AC561F"/>
<stop offset="0.6988" stop-color="#9D4E1C"/>
<stop offset="0.7197" stop-color="#894218"/>
<stop offset="0.7388" stop-color="#6F3212"/>
<stop offset="0.7458" stop-color="#632B0F"/>
</linearGradient>
<clipPath id="clip0_157_1398">
<rect width="162.117" height="126.712" fill="white" transform="translate(0.558594 158.013) rotate(-77.0805)"/>
</clipPath>
</defs>
</svg>
