<svg width="207" height="177" viewBox="0 0 207 177" fill="none" xmlns="http://www.w3.org/2000/svg">
<g opacity="0.2" clip-path="url(#clip0_157_1387)">
<path d="M181 154.222C180.75 154.168 180.526 153.989 180.177 153.784C180.052 153.757 179.953 153.605 179.828 153.578C179.703 153.551 179.479 153.372 179.354 153.345C179.229 153.318 179.13 153.167 179.005 153.14C178.88 153.113 178.656 152.934 178.531 152.907C178.405 152.88 178.307 152.728 178.182 152.701C178.056 152.674 177.958 152.523 177.707 152.469C177.609 152.317 177.358 152.263 177.26 152.111C177.161 151.959 177.036 151.932 176.938 151.781C176.714 151.602 176.616 151.45 176.365 151.396C176.24 151.369 176.141 151.217 176.016 151.19C175.667 150.985 175.47 150.681 175.148 150.35C175.148 150.35 175.148 150.35 175.023 150.324C174.701 149.993 174.477 149.814 174.28 149.511C174.182 149.359 174.182 149.359 174.083 149.207C173.761 148.876 173.466 148.421 173.144 148.09L173.045 147.939C172.848 147.635 172.75 147.483 172.553 147.18C172.455 147.028 172.455 147.028 172.356 146.876C172.258 146.724 172.061 146.421 171.962 146.269C171.864 146.117 171.864 146.117 171.766 145.965C171.47 145.51 171.175 145.054 171.032 144.501L170.933 144.349C170.665 143.769 170.495 143.341 170.227 142.76C169.985 142.055 169.743 141.35 169.502 140.645C169.332 140.217 169.26 139.94 169.09 139.511C169.117 139.387 169.019 139.235 169.019 139.235C168.947 138.958 168.75 138.655 168.706 138.253C168.732 138.128 168.607 138.101 168.634 137.976C168.464 137.548 168.267 137.244 168.097 136.816C168.124 136.691 167.999 136.664 168.026 136.539C167.829 136.236 167.757 135.959 167.56 135.655L167.462 135.503C167.462 135.503 167.337 135.477 167.363 135.352C167.167 135.048 167.095 134.771 166.871 134.593L166.773 134.441L166.674 134.289C166.576 134.137 166.478 133.985 166.379 133.834C166.254 133.807 166.281 133.682 166.155 133.655C166.057 133.503 165.932 133.476 165.959 133.351C165.833 133.324 165.86 133.199 165.735 133.173L165.636 133.021C165.636 133.021 165.636 133.021 165.511 132.994C165.413 132.842 165.287 132.815 165.064 132.636C164.965 132.484 164.715 132.431 164.616 132.279C164.616 132.279 164.616 132.279 164.491 132.252C164.366 132.225 164.393 132.1 164.267 132.073C164.142 132.046 164.044 131.894 164.044 131.894L163.918 131.867C163.793 131.84 163.695 131.689 163.569 131.662C163.444 131.635 163.444 131.635 163.346 131.483C163.346 131.483 163.346 131.483 163.22 131.456C162.997 131.277 162.746 131.223 162.397 131.018C162.397 131.018 162.397 131.018 162.272 130.991C161.923 130.785 161.448 130.552 161.073 130.471C160.598 130.239 160.249 130.033 159.748 129.925C159.498 129.871 159.274 129.693 159.149 129.666C159.023 129.639 158.898 129.612 158.8 129.46C157.949 129.146 157.001 128.681 156.151 128.368C156.025 128.341 155.9 128.314 155.802 128.162C154.826 127.821 153.878 127.356 152.902 127.016C152.777 126.989 152.652 126.962 152.526 126.935C152.401 126.908 152.276 126.881 152.15 126.854C151.175 126.513 150.074 126.146 149.099 125.805C148.974 125.779 148.974 125.779 148.848 125.752C147.873 125.411 146.897 125.071 145.895 124.855C145.77 124.828 145.645 124.801 145.519 124.774C145.394 124.747 145.269 124.72 145.269 124.72C144.419 124.407 143.542 124.218 142.691 123.905C141.814 123.716 141.089 123.429 140.212 123.241C139.461 123.079 138.736 122.792 138.109 122.658L137.984 122.631C137.232 122.469 136.633 122.209 135.881 122.048C135.756 122.021 135.756 122.021 135.631 121.994C135.255 121.913 134.78 121.68 134.405 121.599C134.279 121.572 134.279 121.572 134.154 121.545C133.778 121.465 133.429 121.259 133.053 121.178C132.928 121.151 132.803 121.124 132.803 121.124C132.328 120.891 131.827 120.784 131.228 120.524C131.102 120.497 130.977 120.47 130.879 120.318C130.279 120.059 129.68 119.799 129.107 119.415C128.856 119.361 128.758 119.209 128.534 119.03C128.409 119.003 128.31 118.851 128.185 118.824C128.06 118.797 128.06 118.797 127.961 118.646C127.836 118.619 127.738 118.467 127.612 118.44C127.487 118.413 127.487 118.413 127.389 118.261L127.263 118.234C127.04 118.055 126.691 117.85 126.467 117.671C126.342 117.644 126.342 117.644 126.243 117.492C125.894 117.287 125.67 117.108 125.348 116.777C125.223 116.75 125.25 116.625 125.125 116.598C124.901 116.42 124.677 116.241 124.453 116.062C124.328 116.035 124.23 115.883 124.23 115.883C124.006 115.705 123.782 115.526 123.585 115.222C123.46 115.195 123.487 115.071 123.362 115.044C123.165 114.74 122.816 114.534 122.619 114.231C122.494 114.204 122.521 114.079 122.395 114.052C122.198 113.748 121.975 113.57 121.778 113.266C121.679 113.114 121.554 113.087 121.581 112.962C121.483 112.811 121.357 112.784 121.384 112.659C121.286 112.507 121.187 112.355 121.089 112.203C120.99 112.051 121.017 111.927 120.892 111.9C120.794 111.748 120.695 111.596 120.722 111.471C120.525 111.168 120.427 111.016 120.23 110.712C120.131 110.56 120.158 110.436 120.033 110.409C119.863 109.98 119.666 109.677 119.496 109.248C119.326 108.82 119.156 108.391 119.013 107.838C119.013 107.838 119.04 107.713 118.915 107.686C118.87 107.285 118.673 106.981 118.628 106.579C118.655 106.455 118.557 106.303 118.584 106.178C118.512 105.901 118.539 105.776 118.467 105.5C118.423 105.098 118.351 104.822 118.306 104.42C118.333 104.295 118.262 104.019 118.288 103.894C118.297 103.243 118.181 102.564 118.163 102.038C118.163 102.038 118.163 102.038 118.19 101.913C118.199 101.262 118.208 100.611 118.217 99.9596C118.244 99.8347 118.173 99.5581 118.199 99.4332C118.208 98.782 118.217 98.1308 118.226 97.4796C118.235 96.8284 118.271 96.0523 118.28 95.4011C118.316 94.6251 118.352 93.849 118.236 93.1709C118.236 93.1709 118.236 93.1709 118.263 93.046C118.298 92.27 118.209 91.4669 118.12 90.6639C118.12 90.6639 118.12 90.6639 118.146 90.5391C118.03 89.8609 118.039 89.2097 117.923 88.5316C117.923 88.5316 117.923 88.5316 117.95 88.4067L117.977 88.2819C117.932 87.8803 117.86 87.6037 117.816 87.2022L117.842 87.0773C117.771 86.8007 117.726 86.3992 117.655 86.1225L117.682 85.9977C117.61 85.721 117.44 85.2926 117.368 85.0159L117.27 84.8641C117.198 84.5875 117.127 84.3108 116.93 84.0072C116.93 84.0072 116.957 83.8823 116.832 83.8554C116.76 83.5787 116.563 83.2751 116.366 82.9715L116.268 82.8197C116.196 82.5431 115.999 82.2395 115.776 82.0607C115.776 82.0607 115.776 82.0607 115.803 81.9359C115.731 81.6592 115.507 81.4804 115.409 81.3286L115.31 81.1768C115.212 81.025 115.114 80.8732 114.89 80.6945C114.89 80.6945 114.89 80.6945 114.791 80.5427C114.595 80.2391 114.371 80.0603 114.174 79.7567C114.174 79.7567 114.174 79.7567 114.076 79.6049C113.852 79.4261 113.655 79.1225 113.431 78.9438C113.431 78.9438 113.306 78.9168 113.333 78.792C113.109 78.6132 113.011 78.4614 112.787 78.2827C112.787 78.2827 112.662 78.2557 112.689 78.1309C112.689 78.1309 112.563 78.1039 112.59 77.9791C112.492 77.8273 112.268 77.6485 112.017 77.5946L111.919 77.4428C111.919 77.4428 111.919 77.4428 111.794 77.4158C111.57 77.2371 111.221 77.0314 110.997 76.8526C110.773 76.6739 110.424 76.4681 110.201 76.2894C110.201 76.2894 110.201 76.2894 110.075 76.2624C110.075 76.2624 109.95 76.2355 109.977 76.1106C109.753 75.9319 109.503 75.878 109.279 75.6992L109.154 75.6723L109.028 75.6453C108.679 75.4396 108.33 75.2339 107.981 75.0282C107.758 74.8494 107.382 74.7686 107.158 74.5898C104.814 73.3017 102.442 72.1384 99.9454 70.9481C99.1221 70.5097 98.1735 70.0444 97.3502 69.606C97.2249 69.5791 97.2249 69.5791 97.0997 69.5521C96.2764 69.1138 95.4531 68.6754 94.6298 68.237C94.5045 68.2101 94.3792 68.1831 94.4061 68.0583C93.5828 67.6199 92.7595 67.1815 91.9362 66.7432C91.8109 66.7162 91.6856 66.6893 91.5872 66.5375C90.7639 66.0991 89.9406 65.6607 89.1173 65.2223C88.992 65.1954 88.992 65.1954 88.8936 65.0436C88.1956 64.6322 87.4976 64.2207 86.6743 63.7824C86.549 63.7554 86.4506 63.6036 86.3253 63.5767C85.6273 63.1653 84.9293 62.7538 84.2313 62.3424C84.106 62.3155 84.0075 62.1637 83.8823 62.1367C83.3095 61.7522 82.8352 61.5196 82.2625 61.1351C82.2625 61.1351 82.1372 61.1082 82.1641 60.9833C81.7167 60.6258 81.2424 60.3931 80.7949 60.0356C80.6965 59.8838 80.4459 59.8299 80.3475 59.6781C79.9985 59.4724 79.7748 59.2937 79.4526 58.9631C79.3542 58.8113 79.1036 58.7574 79.0052 58.6056C78.5578 58.2481 78.2088 58.0424 77.7614 57.6849C77.7614 57.6849 77.7614 57.6849 77.6361 57.6579C77.1886 57.3004 76.8665 56.9698 76.3922 56.7372C76.2938 56.5854 76.1685 56.5584 76.0701 56.4066C75.8463 56.2279 75.5242 55.8973 75.3005 55.7185C75.202 55.5667 74.9783 55.388 74.8799 55.2362C74.6562 55.0574 74.4325 54.8787 74.2088 54.6999C74.1103 54.5481 73.8866 54.3694 73.7882 54.2175C73.5645 54.0388 73.3408 53.86 73.2423 53.7082C73.1439 53.5564 72.9202 53.3777 72.8218 53.2259C72.598 53.0471 72.4996 52.8953 72.2759 52.7166C72.1775 52.5647 71.9537 52.386 71.8553 52.2342C71.6316 52.0554 71.5332 51.9036 71.3363 51.6C71.2379 51.4482 71.0142 51.2695 70.9157 51.1177C70.692 50.9389 70.4952 50.6353 70.2715 50.4565C70.173 50.3047 69.9493 50.126 69.8509 49.9742C69.654 49.6706 69.4303 49.4918 69.2335 49.1882C69.135 49.0364 69.0366 48.8846 68.9382 48.7328C68.5176 48.2504 68.2492 47.6702 67.8286 47.1878L67.7302 47.036C67.4349 46.5806 67.1396 46.1252 66.8443 45.6698C66.7459 45.518 66.6475 45.3662 66.549 45.2144C66.3522 44.9108 66.1553 44.6072 65.9853 44.1787C65.8869 44.0269 65.7885 43.8751 65.69 43.7233C65.3947 43.2679 65.1263 42.6876 64.9563 42.2592C64.6879 41.6789 64.5448 41.1256 64.3032 40.4205C64.2048 40.2687 64.1332 39.992 64.16 39.8672C63.99 39.4387 63.9453 39.0372 63.7753 38.6088C63.6769 38.457 63.7306 38.2073 63.6322 38.0554C63.5875 37.6539 63.4175 37.2255 63.3728 36.824C63.2743 36.6722 63.3281 36.4225 63.2296 36.2707C63.0865 35.7174 63.0686 35.191 62.9524 34.5128C62.9792 34.388 62.8808 34.2362 62.8808 34.2362C62.8361 33.8347 62.7914 33.4332 62.7467 33.0317C62.7019 32.6302 62.6841 32.1038 62.6394 31.7023C62.5678 31.4257 62.6215 31.176 62.5768 30.7745C62.559 30.2481 62.5143 29.8466 62.6217 29.3472C62.6754 29.0975 62.6038 28.8208 62.6576 28.5711C62.6666 27.9199 62.6756 27.2687 62.783 26.7693C62.8099 26.6445 62.8367 26.5196 62.8636 26.3948C62.8994 25.6187 63.0875 24.7448 63.1233 23.9687C63.2308 23.4693 63.2129 22.9429 63.3203 22.4435C63.3472 22.3187 63.3472 22.3187 63.3741 22.1938C63.5084 21.5696 63.6426 20.9453 63.6517 20.2941C63.7054 20.0444 63.7859 19.6699 63.8397 19.4202C63.9202 19.0456 64.0008 18.6711 64.0814 18.2965C64.1351 18.0468 64.2157 17.6723 64.2694 17.4226C64.35 17.048 64.4037 16.7983 64.4843 16.4237C64.6723 15.5498 64.8603 14.6758 65.1467 13.9537C65.1736 13.8288 65.2005 13.704 65.2273 13.5791C65.3885 12.83 65.648 12.2327 65.8092 11.4836C65.8898 11.1091 65.9972 10.6097 66.2031 10.2621L29.6713 20.4299C29.6176 20.6796 29.537 21.0541 29.358 21.2769C29.3312 21.4017 29.3043 21.5266 29.2774 21.6514C29.1163 22.4005 28.8567 22.9979 28.6956 23.747C28.6687 23.8718 28.6418 23.9967 28.615 24.1215C28.427 24.9955 28.1405 25.7176 27.9525 26.5916C27.9257 26.7164 27.9257 26.7164 27.8988 26.8413C27.8451 27.091 27.7914 27.3407 27.7376 27.5904C27.6839 27.8401 27.6034 28.2146 27.5496 28.4643C27.4691 28.8389 27.3885 29.2134 27.3079 29.588C27.2542 29.8377 27.1736 30.2122 27.1199 30.4619C27.093 30.5868 27.093 30.5868 27.0662 30.7116C26.9587 31.211 26.8245 31.8353 26.8423 32.3617C26.8154 32.4865 26.8154 32.4865 26.7886 32.6114C26.6812 33.1108 26.6006 33.4853 26.6184 34.0117C26.5916 34.1365 26.5916 34.1365 26.5647 34.2614C26.502 35.1623 26.3408 35.9114 26.305 36.6874C26.2781 36.8123 26.2513 36.9371 26.2244 37.062C26.2154 37.7132 26.0811 38.3375 26.0721 38.9887C26.0452 39.1135 26.0452 39.1135 26.0184 39.2384C25.9915 39.3632 26.0631 39.6399 26.0362 39.7647C26.0541 40.2911 25.9735 40.6656 25.9914 41.192C25.9645 41.3168 25.9376 41.4417 26.0361 41.5935C26.0092 41.7183 26.1076 41.8701 26.0539 42.1198C26.0986 42.5213 26.1165 43.0477 26.1612 43.4492C26.1343 43.5741 26.2059 43.8507 26.179 43.9756C26.2775 44.1274 26.2238 44.3771 26.2953 44.6537C26.2685 44.7786 26.3669 44.9304 26.3669 44.9304C26.3847 45.4567 26.5547 45.8852 26.5726 46.4115C26.5457 46.5364 26.671 46.5633 26.6442 46.6882C26.7426 46.84 26.6889 47.0897 26.7873 47.2415C26.832 47.643 27.002 48.0715 27.0467 48.473C27.1452 48.6248 27.0914 48.8745 27.1899 49.0263C27.2883 49.1781 27.2614 49.3029 27.2346 49.4278C27.3061 49.7044 27.3777 49.9811 27.4493 50.2577C27.5209 50.5344 27.5924 50.8111 27.6909 50.9629C27.9593 51.5431 28.0756 52.2213 28.344 52.8015C28.6124 53.3818 28.7824 53.8103 29.0777 54.2657C29.1761 54.4175 29.2746 54.5693 29.373 54.7211C29.5698 55.0247 29.7398 55.4531 29.9367 55.7568C29.9098 55.8816 30.0351 55.9086 30.0083 56.0334C29.9814 56.1583 30.1067 56.1852 30.0798 56.3101C30.3751 56.7655 30.6704 57.2209 30.9657 57.6763L31.0641 57.8281C31.4847 58.3105 31.7531 58.8907 32.1737 59.3731L32.2721 59.5249C32.3706 59.6767 32.4958 59.7036 32.469 59.8285C32.6658 60.1321 32.8896 60.3108 33.0864 60.6145C33.1848 60.7663 33.4086 60.945 33.507 61.0968C33.7307 61.2756 33.9276 61.5792 34.1513 61.7579C34.2497 61.9097 34.375 61.9367 34.3481 62.0615C34.4734 62.0885 34.4466 62.2133 34.5718 62.2403C34.7956 62.4191 34.894 62.5709 35.0908 62.8745C35.1893 63.0263 35.413 63.205 35.5114 63.3568C35.7351 63.5356 35.8336 63.6874 36.0573 63.8661C36.1557 64.0179 36.281 64.0449 36.3794 64.1967L36.4779 64.3485C36.7016 64.5273 36.9253 64.706 37.0237 64.8578C37.1221 65.0096 37.3459 65.1884 37.4443 65.3402C37.668 65.5189 37.8917 65.6977 38.1154 65.8765C38.2139 66.0283 38.3391 66.0552 38.4376 66.207C38.4376 66.207 38.5629 66.234 38.536 66.3588C38.7597 66.5376 39.0819 66.8681 39.3056 67.0469C39.404 67.1987 39.5293 67.2256 39.6277 67.3774C40.0752 67.735 40.3973 68.0655 40.8716 68.2982C40.8716 68.2982 40.8716 68.2982 40.9969 68.3251C41.4443 68.6826 41.7665 69.0132 42.2407 69.2459C42.3392 69.3977 42.5898 69.4516 42.6882 69.6034C43.0372 69.8091 43.2609 69.9878 43.583 70.3184C43.7083 70.3454 43.6815 70.4702 43.8068 70.4972C43.932 70.5241 43.9052 70.649 44.0305 70.6759C44.4779 71.0334 44.9522 71.2661 45.3996 71.6236C45.3996 71.6236 45.5249 71.6505 45.4981 71.7754C46.0708 72.1599 46.5182 72.5174 47.1178 72.777C47.1178 72.777 47.2431 72.8039 47.2162 72.9288C47.3415 72.9557 47.3415 72.9557 47.4399 73.1076C48.1379 73.519 48.8359 73.9304 49.5339 74.3418C49.6592 74.3687 49.7577 74.5206 49.8829 74.5475C50.581 74.9589 51.279 75.3703 52.1023 75.8087L52.2275 75.8357L52.3528 75.8626C53.1761 76.301 53.9994 76.7394 54.8227 77.1777C54.948 77.2047 55.0733 77.2316 55.1717 77.3834C55.995 77.8218 56.8183 78.2602 57.6416 78.6985C57.7669 78.7255 57.8922 78.7524 57.8653 78.8773C58.6886 79.3157 59.5119 79.754 60.4605 80.2194C60.5858 80.2463 60.5858 80.2463 60.711 80.2733C61.6596 80.7386 62.4829 81.177 63.3062 81.6153C65.803 82.8056 68.1475 84.0937 70.519 85.257C70.7427 85.4358 71.1186 85.5167 71.3423 85.6954C71.6913 85.9011 72.0403 86.1068 72.3893 86.3125C72.5146 86.3395 72.613 86.4913 72.613 86.4913C72.8367 86.6701 73.0873 86.724 73.311 86.9027C73.4363 86.9297 73.5347 87.0815 73.5347 87.0815C73.7584 87.2602 74.1074 87.4659 74.3312 87.6447C74.5549 87.8235 74.9039 88.0292 75.1276 88.2079C75.2529 88.2349 75.226 88.3597 75.3513 88.3867C75.575 88.5654 75.6735 88.7172 75.924 88.7711C76.0493 88.7981 76.0225 88.9229 76.1478 88.9499C76.3715 89.1286 76.4699 89.2804 76.6936 89.4592C76.8189 89.4862 76.792 89.611 76.9173 89.638C77.141 89.8167 77.3379 90.1203 77.5616 90.2991L77.66 90.4509C77.8569 90.7545 78.0806 90.9332 78.2775 91.2369L78.3759 91.3887C78.4743 91.5405 78.698 91.7192 78.7965 91.871L78.8949 92.0228C78.9933 92.1746 79.1902 92.4782 79.2886 92.63C79.2886 92.63 79.2886 92.63 79.387 92.7818C79.5839 93.0854 79.6555 93.3621 79.8792 93.5409L79.9776 93.6927C80.1745 93.9963 80.246 94.2729 80.4429 94.5765C80.4429 94.5765 80.416 94.7014 80.5413 94.7283C80.6129 95.005 80.8097 95.3086 80.8813 95.5852L80.9798 95.737C81.0513 96.0137 81.2213 96.4422 81.2929 96.7188C81.2929 96.7188 81.266 96.8437 81.3913 96.8706C81.4629 97.1473 81.5076 97.5488 81.5792 97.8254L81.5523 97.9503C81.597 98.3518 81.6686 98.6284 81.7133 99.0299C81.7133 99.0299 81.6864 99.1548 81.8117 99.1817C81.928 99.8599 82.0443 100.538 82.0353 101.189L82.0084 101.314C82.0979 102.117 82.062 102.893 82.1514 103.696L82.1246 103.821C82.0887 104.597 82.205 105.275 82.1691 106.051C82.1601 106.703 82.1242 107.479 82.1152 108.13C82.1062 108.781 82.0972 109.432 82.0882 110.083C82.0613 110.208 82.1329 110.485 82.1061 110.61C82.0971 111.261 82.088 111.912 82.079 112.563C82.079 112.563 82.079 112.563 82.0522 112.688C82.0432 113.339 82.1595 114.018 82.1773 114.544C82.1505 114.669 82.1504 114.669 82.2489 114.821C82.222 114.945 82.3473 114.972 82.3205 115.097C82.3652 115.499 82.4099 115.9 82.4814 116.177C82.4546 116.302 82.553 116.454 82.5262 116.578C82.4993 116.703 82.6246 116.73 82.5977 116.855C82.5709 116.98 82.6693 117.132 82.6424 117.257C82.6871 117.658 82.7319 118.06 82.9287 118.363C82.9287 118.363 82.9019 118.488 83.0271 118.515C83.1971 118.943 83.2418 119.345 83.4118 119.773C83.5818 120.202 83.7518 120.63 83.9487 120.934C84.0471 121.086 84.0203 121.211 84.1456 121.238C84.2171 121.514 84.414 121.818 84.6377 121.997L84.7361 122.148L84.8346 122.3C84.933 122.452 84.9061 122.577 85.0314 122.604C85.1298 122.756 85.2283 122.907 85.3267 123.059C85.4251 123.211 85.5504 123.238 85.5236 123.363L85.622 123.515L85.7204 123.666C85.9173 123.97 86.141 124.149 86.3378 124.452L86.4363 124.604C86.4363 124.604 86.4363 124.604 86.5616 124.631C86.7584 124.935 87.1074 125.14 87.3043 125.444C87.3043 125.444 87.4296 125.471 87.4027 125.596C87.6264 125.775 87.8501 125.953 88.047 126.257C88.047 126.257 88.1723 126.284 88.1454 126.409C88.1454 126.409 88.2707 126.436 88.2439 126.561C88.4676 126.739 88.6913 126.918 88.915 127.097C88.915 127.097 89.0403 127.124 89.0134 127.249C89.3624 127.454 89.5861 127.633 89.9083 127.964C89.9083 127.964 89.9083 127.964 90.0336 127.991L90.1589 128.018C90.5079 128.223 90.7316 128.402 90.9553 128.581C90.9553 128.581 90.9553 128.581 91.0806 128.608C91.2059 128.635 91.2059 128.635 91.3043 128.787C91.4296 128.813 91.528 128.965 91.6533 128.992C91.7786 129.019 91.7786 129.019 91.877 129.171C92.0023 129.198 92.0023 129.198 92.1007 129.35C92.1007 129.35 92.1007 129.35 92.226 129.377C92.4497 129.555 92.7003 129.609 92.7987 129.761C92.924 129.788 93.1477 129.967 93.273 129.994C93.7473 130.226 94.0963 130.432 94.5975 130.54L94.7228 130.567L94.848 130.594C95.3223 130.827 95.7966 131.059 96.4231 131.194L96.5484 131.221L96.6736 131.248C97.0495 131.329 97.3985 131.534 97.7744 131.615C97.8997 131.642 97.8997 131.642 98.0249 131.669C98.4008 131.75 98.8751 131.983 99.251 132.064C99.251 132.064 99.2509 132.064 99.3762 132.091L99.5015 132.118C100.253 132.279 100.853 132.539 101.605 132.701L101.73 132.728C102.482 132.889 103.081 133.149 103.833 133.311C104.71 133.499 105.435 133.786 106.312 133.974C107.189 134.163 108.039 134.477 108.889 134.79C109.14 134.844 109.39 134.898 109.515 134.925C110.491 135.265 111.466 135.606 112.469 135.821C112.594 135.848 112.594 135.848 112.719 135.875C113.695 136.216 114.795 136.583 115.771 136.924C116.021 136.978 116.245 137.156 116.37 137.183C117.346 137.524 118.321 137.864 119.27 138.33C119.395 138.357 119.52 138.384 119.619 138.535C120.469 138.849 121.418 139.314 122.268 139.628C122.617 139.833 122.993 139.914 123.342 140.12C123.816 140.353 124.165 140.558 124.666 140.666C125.015 140.872 125.489 141.105 125.865 141.185C125.865 141.185 125.865 141.185 125.991 141.212C126.214 141.391 126.465 141.445 126.814 141.651C126.939 141.678 127.038 141.829 127.038 141.829C127.163 141.856 127.261 142.008 127.387 142.035C127.512 142.062 127.61 142.214 127.736 142.241C127.861 142.268 127.861 142.268 127.959 142.42C128.183 142.598 128.308 142.625 128.532 142.804C128.63 142.956 128.854 143.135 128.979 143.162L129.078 143.313C129.176 143.465 129.4 143.644 129.498 143.796C129.722 143.975 129.919 144.278 130.017 144.43L130.116 144.582L130.214 144.734C130.411 145.037 130.635 145.216 130.706 145.493C130.805 145.644 130.805 145.644 130.903 145.796C131.1 146.1 131.172 146.376 131.369 146.68C131.342 146.805 131.467 146.832 131.44 146.957C131.61 147.385 131.807 147.689 131.977 148.117C131.95 148.242 132.075 148.269 132.049 148.394C132.12 148.671 132.317 148.974 132.362 149.376C132.335 149.5 132.433 149.652 132.433 149.652C132.603 150.081 132.675 150.357 132.845 150.786C133.086 151.491 133.301 152.321 133.57 152.901C133.838 153.481 133.981 154.035 134.276 154.49L134.375 154.642C134.67 155.097 134.813 155.651 135.109 156.106L135.207 156.258L135.305 156.41C135.404 156.562 135.601 156.865 135.699 157.017C135.798 157.169 135.798 157.169 135.896 157.321C136.093 157.624 136.191 157.776 136.388 158.08L136.487 158.231C136.782 158.687 137.104 159.017 137.426 159.348L137.525 159.5C137.525 159.5 137.65 159.527 137.623 159.651C137.82 159.955 138.142 160.286 138.366 160.464C138.366 160.464 138.366 160.464 138.491 160.491C138.688 160.795 139.037 161.001 139.359 161.331C139.359 161.331 139.359 161.331 139.484 161.358C139.61 161.385 139.583 161.51 139.708 161.537C139.932 161.716 140.03 161.868 140.281 161.921L140.406 161.948C140.531 161.975 140.63 162.127 140.63 162.127C140.728 162.279 140.979 162.333 141.077 162.485C141.077 162.485 141.202 162.512 141.176 162.636C141.301 162.663 141.399 162.815 141.399 162.815C141.525 162.842 141.623 162.994 141.748 163.021L141.874 163.048C141.999 163.075 142.097 163.227 142.223 163.254C142.348 163.281 142.446 163.432 142.572 163.459L142.697 163.486C142.822 163.513 142.921 163.665 143.046 163.692C143.171 163.719 143.27 163.871 143.395 163.898C143.395 163.898 143.395 163.898 143.52 163.925C143.744 164.103 143.994 164.157 144.245 164.211C144.245 164.211 144.245 164.211 144.37 164.238C144.496 164.265 144.621 164.292 144.621 164.292L143.797 167.511L179.846 155.933L180.669 152.714C181.224 154.401 181.099 154.374 181 154.222Z" fill="#291B07"/>
<path d="M181 154.222C180.75 154.168 180.526 153.989 180.177 153.784C180.052 153.757 179.953 153.605 179.828 153.578C179.703 153.551 179.479 153.372 179.354 153.345C179.229 153.318 179.13 153.167 179.005 153.14C178.88 153.113 178.656 152.934 178.531 152.907C178.405 152.88 178.307 152.728 178.182 152.701C178.056 152.674 177.958 152.523 177.707 152.469C177.609 152.317 177.358 152.263 177.26 152.111C177.161 151.959 177.036 151.932 176.938 151.781C176.714 151.602 176.616 151.45 176.365 151.396C176.24 151.369 176.141 151.217 176.016 151.19C175.667 150.985 175.47 150.681 175.148 150.35C175.148 150.35 175.148 150.35 175.023 150.324C174.701 149.993 174.477 149.814 174.28 149.511C174.182 149.359 174.182 149.359 174.083 149.207C173.761 148.876 173.466 148.421 173.144 148.09L173.045 147.939C172.848 147.635 172.75 147.483 172.553 147.18C172.455 147.028 172.455 147.028 172.356 146.876C172.258 146.724 172.061 146.421 171.962 146.269C171.864 146.117 171.864 146.117 171.766 145.965C171.47 145.51 171.175 145.054 171.032 144.501L170.933 144.349C170.665 143.769 170.495 143.341 170.227 142.76C169.985 142.055 169.743 141.35 169.502 140.645C169.332 140.217 169.26 139.94 169.09 139.511C169.117 139.387 169.019 139.235 169.019 139.235C168.947 138.958 168.75 138.655 168.706 138.253C168.732 138.128 168.607 138.101 168.634 137.976C168.464 137.548 168.267 137.244 168.097 136.816C168.124 136.691 167.999 136.664 168.026 136.539C167.829 136.236 167.757 135.959 167.56 135.655L167.462 135.503C167.462 135.503 167.337 135.477 167.363 135.352C167.167 135.048 167.095 134.771 166.871 134.593L166.773 134.441L166.674 134.289C166.576 134.137 166.478 133.985 166.379 133.834C166.254 133.807 166.281 133.682 166.155 133.655C166.057 133.503 165.932 133.476 165.959 133.351C165.833 133.324 165.86 133.199 165.735 133.173L165.636 133.021C165.636 133.021 165.636 133.021 165.511 132.994C165.413 132.842 165.287 132.815 165.064 132.636C164.965 132.484 164.715 132.431 164.616 132.279C164.616 132.279 164.616 132.279 164.491 132.252C164.366 132.225 164.393 132.1 164.267 132.073C164.142 132.046 164.044 131.894 164.044 131.894L163.918 131.867C163.793 131.84 163.695 131.689 163.569 131.662C163.444 131.635 163.444 131.635 163.346 131.483C163.346 131.483 163.346 131.483 163.22 131.456C162.997 131.277 162.746 131.223 162.397 131.018C162.397 131.018 162.397 131.018 162.272 130.991C161.923 130.785 161.448 130.552 161.073 130.471C160.598 130.239 160.249 130.033 159.748 129.925C159.498 129.871 159.274 129.693 159.149 129.666C159.023 129.639 158.898 129.612 158.8 129.46C157.949 129.146 157.001 128.681 156.151 128.368C156.025 128.341 155.9 128.314 155.802 128.162C154.826 127.821 153.878 127.356 152.902 127.016C152.777 126.989 152.652 126.962 152.526 126.935C152.401 126.908 152.276 126.881 152.15 126.854C151.175 126.513 150.074 126.146 149.099 125.805C148.974 125.779 148.974 125.779 148.848 125.752C147.873 125.411 146.897 125.071 145.895 124.855C145.77 124.828 145.645 124.801 145.519 124.774C145.394 124.747 145.269 124.72 145.269 124.72C144.419 124.407 143.542 124.218 142.691 123.905C141.814 123.716 141.089 123.429 140.212 123.241C139.461 123.079 138.736 122.792 138.109 122.658L137.984 122.631C137.232 122.469 136.633 122.209 135.881 122.048C135.756 122.021 135.756 122.021 135.631 121.994C135.255 121.913 134.78 121.68 134.405 121.599C134.279 121.572 134.279 121.572 134.154 121.545C133.778 121.465 133.429 121.259 133.053 121.178C132.928 121.151 132.803 121.124 132.803 121.124C132.328 120.891 131.827 120.784 131.228 120.524C131.102 120.497 130.977 120.47 130.879 120.318C130.279 120.059 129.68 119.799 129.107 119.415C128.856 119.361 128.758 119.209 128.534 119.03C128.409 119.003 128.31 118.851 128.185 118.824C128.06 118.797 128.06 118.797 127.961 118.646C127.836 118.619 127.738 118.467 127.612 118.44C127.487 118.413 127.487 118.413 127.389 118.261L127.263 118.234C127.04 118.055 126.691 117.85 126.467 117.671C126.342 117.644 126.342 117.644 126.243 117.492C125.894 117.287 125.67 117.108 125.348 116.777C125.223 116.75 125.25 116.625 125.125 116.598C124.901 116.42 124.677 116.241 124.453 116.062C124.328 116.035 124.23 115.883 124.23 115.883C124.006 115.705 123.782 115.526 123.585 115.222C123.46 115.195 123.487 115.071 123.362 115.044C123.165 114.74 122.816 114.534 122.619 114.231C122.494 114.204 122.521 114.079 122.395 114.052C122.198 113.748 121.975 113.57 121.778 113.266C121.679 113.114 121.554 113.087 121.581 112.962C121.483 112.811 121.357 112.784 121.384 112.659C121.286 112.507 121.187 112.355 121.089 112.203C120.99 112.051 121.017 111.927 120.892 111.9C120.794 111.748 120.695 111.596 120.722 111.471C120.525 111.168 120.427 111.016 120.23 110.712C120.131 110.56 120.158 110.436 120.033 110.409C119.863 109.98 119.666 109.677 119.496 109.248C119.326 108.82 119.156 108.391 119.013 107.838C119.013 107.838 119.04 107.713 118.915 107.686C118.87 107.285 118.673 106.981 118.628 106.579C118.655 106.455 118.557 106.303 118.584 106.178C118.512 105.901 118.539 105.776 118.467 105.5C118.423 105.098 118.351 104.822 118.306 104.42C118.333 104.295 118.262 104.019 118.288 103.894C118.297 103.243 118.181 102.564 118.163 102.038C118.163 102.038 118.163 102.038 118.19 101.913C118.199 101.262 118.208 100.611 118.217 99.9596C118.244 99.8347 118.173 99.5581 118.199 99.4332C118.208 98.782 118.217 98.1308 118.226 97.4796C118.235 96.8284 118.271 96.0523 118.28 95.4011C118.316 94.6251 118.352 93.849 118.236 93.1709C118.236 93.1709 118.236 93.1709 118.263 93.046C118.298 92.27 118.209 91.4669 118.12 90.6639C118.12 90.6639 118.12 90.6639 118.146 90.5391C118.03 89.8609 118.039 89.2097 117.923 88.5316C117.923 88.5316 117.923 88.5316 117.95 88.4067L117.977 88.2819C117.932 87.8804 117.86 87.6037 117.816 87.2022L117.842 87.0773C117.771 86.8007 117.726 86.3992 117.655 86.1225L117.682 85.9977C117.61 85.721 117.44 85.2926 117.368 85.0159L117.27 84.8641C117.198 84.5875 117.127 84.3108 116.93 84.0072C116.93 84.0072 116.957 83.8823 116.832 83.8554C116.76 83.5787 116.563 83.2751 116.366 82.9715L116.268 82.8197C116.196 82.5431 115.999 82.2395 115.776 82.0607C115.776 82.0607 115.776 82.0607 115.803 81.9359C115.731 81.6592 115.507 81.4804 115.409 81.3286L115.31 81.1768C115.212 81.025 115.114 80.8732 114.89 80.6945C114.89 80.6945 114.89 80.6945 114.791 80.5427C114.595 80.2391 114.371 80.0603 114.174 79.7567C114.174 79.7567 114.174 79.7567 114.076 79.6049C113.852 79.4261 113.655 79.1225 113.431 78.9438C113.431 78.9438 113.306 78.9168 113.333 78.792C113.109 78.6132 113.011 78.4614 112.787 78.2827C112.787 78.2827 112.662 78.2557 112.689 78.1309C112.689 78.1309 112.563 78.1039 112.59 77.9791C112.492 77.8273 112.268 77.6485 112.017 77.5946L111.919 77.4428C111.919 77.4428 111.919 77.4428 111.794 77.4158C111.57 77.2371 111.221 77.0314 110.997 76.8526C110.773 76.6739 110.424 76.4682 110.201 76.2894C110.201 76.2894 110.201 76.2894 110.075 76.2624C110.075 76.2624 109.95 76.2355 109.977 76.1106C109.753 75.9319 109.503 75.878 109.279 75.6992L109.154 75.6723L109.028 75.6453C108.679 75.4396 108.33 75.2339 107.981 75.0282C107.758 74.8494 107.382 74.7686 107.158 74.5898C104.814 73.3017 102.442 72.1384 99.9454 70.9481C99.1221 70.5097 98.1735 70.0444 97.3502 69.606C97.2249 69.5791 97.2249 69.5791 97.0997 69.5521C96.2764 69.1138 95.4531 68.6754 94.6298 68.237C94.5045 68.2101 94.3792 68.1831 94.4061 68.0583C93.5828 67.6199 92.7595 67.1815 91.9362 66.7432C91.8109 66.7162 91.6856 66.6893 91.5872 66.5375C90.7639 66.0991 89.9406 65.6607 89.1173 65.2223C88.992 65.1954 88.992 65.1954 88.8936 65.0436C88.1956 64.6322 87.4976 64.2207 86.6743 63.7824C86.549 63.7554 86.4506 63.6036 86.3253 63.5767C85.6273 63.1653 84.9293 62.7538 84.2313 62.3424C84.106 62.3155 84.0075 62.1637 83.8823 62.1367C83.3095 61.7522 82.8352 61.5196 82.2625 61.1351C82.2625 61.1351 82.1372 61.1082 82.1641 60.9833C81.7167 60.6258 81.2424 60.3931 80.7949 60.0356C80.6965 59.8838 80.4459 59.8299 80.3475 59.6781C79.9985 59.4724 79.7748 59.2937 79.4526 58.9631C79.3542 58.8113 79.1036 58.7574 79.0052 58.6056C78.5578 58.2481 78.2088 58.0424 77.7614 57.6849C77.7614 57.6849 77.7614 57.6849 77.6361 57.6579C77.1886 57.3004 76.8665 56.9698 76.3922 56.7372C76.2938 56.5854 76.1685 56.5584 76.0701 56.4066C75.8463 56.2279 75.5242 55.8973 75.3005 55.7185C75.202 55.5667 74.9783 55.388 74.8799 55.2362C74.6562 55.0574 74.4325 54.8787 74.2088 54.6999C74.1103 54.5481 73.8866 54.3694 73.7882 54.2175C73.5645 54.0388 73.3408 53.86 73.2423 53.7082C73.1439 53.5564 72.9202 53.3777 72.8218 53.2259C72.598 53.0471 72.4996 52.8953 72.2759 52.7166C72.1775 52.5647 71.9537 52.386 71.8553 52.2342C71.6316 52.0554 71.5332 51.9036 71.3363 51.6C71.2379 51.4482 71.0142 51.2695 70.9157 51.1177C70.692 50.9389 70.4952 50.6353 70.2715 50.4565C70.173 50.3047 69.9493 50.126 69.8509 49.9742C69.654 49.6706 69.4303 49.4918 69.2335 49.1882C69.135 49.0364 69.0366 48.8846 68.9382 48.7328C68.5176 48.2504 68.2492 47.6702 67.8286 47.1878L67.7302 47.036C67.4349 46.5806 67.1396 46.1252 66.8443 45.6698C66.7459 45.518 66.6475 45.3662 66.549 45.2144C66.3522 44.9108 66.1553 44.6072 65.9853 44.1787C65.8869 44.0269 65.7885 43.8751 65.69 43.7233C65.3947 43.2679 65.1263 42.6876 64.9563 42.2592C64.6879 41.6789 64.5448 41.1256 64.3032 40.4205C64.2048 40.2687 64.1332 39.992 64.16 39.8672C63.99 39.4387 63.9453 39.0372 63.7753 38.6088C63.6769 38.457 63.7306 38.2073 63.6322 38.0554C63.5875 37.6539 63.4175 37.2255 63.3728 36.824C63.2743 36.6722 63.3281 36.4225 63.2296 36.2707C63.0865 35.7174 63.0686 35.191 62.9524 34.5128C62.9792 34.388 62.8808 34.2362 62.8808 34.2362C62.8361 33.8347 62.7914 33.4332 62.7467 33.0317C62.7019 32.6302 62.6841 32.1038 62.6394 31.7023C62.5678 31.4257 62.6215 31.176 62.5768 30.7745C62.559 30.2481 62.5143 29.8466 62.6217 29.3472C62.6754 29.0975 62.6038 28.8208 62.6576 28.5711C62.6666 27.9199 62.6756 27.2687 62.783 26.7693C62.8099 26.6445 62.8367 26.5196 62.8636 26.3948C62.8994 25.6187 63.0875 24.7448 63.1233 23.9687C63.2308 23.4693 63.2129 22.9429 63.3203 22.4435C63.3472 22.3187 63.3472 22.3187 63.3741 22.1938C63.5084 21.5696 63.6426 20.9453 63.6517 20.2941C63.7054 20.0444 63.7859 19.6699 63.8397 19.4202C63.9202 19.0456 64.0008 18.6711 64.0814 18.2965C64.1351 18.0468 64.2157 17.6723 64.2694 17.4226C64.35 17.048 64.4037 16.7983 64.4843 16.4237C64.6723 15.5498 64.8603 14.6758 65.1467 13.9537C65.1736 13.8288 65.2005 13.704 65.2273 13.5791C65.3885 12.83 65.648 12.2327 65.8092 11.4836C65.8898 11.1091 65.9972 10.6097 66.2031 10.2621L29.6713 20.4299C29.6176 20.6796 29.537 21.0541 29.358 21.2769C29.3312 21.4017 29.3043 21.5266 29.2774 21.6514C29.1163 22.4005 28.8567 22.9979 28.6956 23.747C28.6687 23.8718 28.6418 23.9967 28.615 24.1215C28.427 24.9955 28.1405 25.7176 27.9525 26.5916C27.9257 26.7164 27.9257 26.7164 27.8988 26.8413C27.8451 27.091 27.7914 27.3407 27.7376 27.5904C27.6839 27.8401 27.6034 28.2146 27.5496 28.4643C27.4691 28.8389 27.3885 29.2134 27.3079 29.588C27.2542 29.8377 27.1736 30.2122 27.1199 30.4619C27.093 30.5868 27.093 30.5868 27.0662 30.7116C26.9587 31.211 26.8245 31.8353 26.8423 32.3617C26.8154 32.4865 26.8154 32.4865 26.7886 32.6114C26.6812 33.1108 26.6006 33.4853 26.6184 34.0117C26.5916 34.1365 26.5916 34.1365 26.5647 34.2614C26.502 35.1623 26.3408 35.9114 26.305 36.6874C26.2781 36.8123 26.2513 36.9371 26.2244 37.062C26.2154 37.7132 26.0811 38.3375 26.0721 38.9887C26.0452 39.1135 26.0452 39.1135 26.0184 39.2384C25.9915 39.3632 26.0631 39.6399 26.0362 39.7647C26.0541 40.2911 25.9735 40.6656 25.9914 41.192C25.9645 41.3168 25.9376 41.4417 26.0361 41.5935C26.0092 41.7183 26.1076 41.8701 26.0539 42.1198C26.0986 42.5213 26.1165 43.0477 26.1612 43.4492C26.1343 43.5741 26.2059 43.8507 26.179 43.9756C26.2775 44.1274 26.2238 44.3771 26.2953 44.6537C26.2685 44.7786 26.3669 44.9304 26.3669 44.9304C26.3847 45.4567 26.5547 45.8852 26.5726 46.4115C26.5457 46.5364 26.671 46.5633 26.6442 46.6882C26.7426 46.84 26.6889 47.0897 26.7873 47.2415C26.832 47.643 27.002 48.0715 27.0467 48.473C27.1452 48.6248 27.0914 48.8745 27.1899 49.0263C27.2883 49.1781 27.2614 49.3029 27.2346 49.4278C27.3061 49.7044 27.3777 49.9811 27.4493 50.2577C27.5209 50.5344 27.5924 50.8111 27.6909 50.9629C27.9593 51.5431 28.0756 52.2213 28.344 52.8015C28.6124 53.3818 28.7824 53.8103 29.0777 54.2657C29.1761 54.4175 29.2746 54.5693 29.373 54.7211C29.5698 55.0247 29.7398 55.4531 29.9367 55.7568C29.9098 55.8816 30.0351 55.9086 30.0083 56.0334C29.9814 56.1583 30.1067 56.1852 30.0798 56.3101C30.3751 56.7655 30.6704 57.2209 30.9657 57.6763L31.0641 57.8281C31.4847 58.3105 31.7531 58.8907 32.1737 59.3731L32.2721 59.5249C32.3706 59.6767 32.4958 59.7036 32.469 59.8285C32.6658 60.1321 32.8896 60.3109 33.0864 60.6145C33.1848 60.7663 33.4086 60.945 33.507 61.0968C33.7307 61.2756 33.9276 61.5792 34.1513 61.7579C34.2497 61.9097 34.375 61.9367 34.3481 62.0615C34.4734 62.0885 34.4466 62.2133 34.5718 62.2403C34.7956 62.4191 34.894 62.5709 35.0908 62.8745C35.1893 63.0263 35.413 63.205 35.5114 63.3568C35.7351 63.5356 35.8336 63.6874 36.0573 63.8661C36.1557 64.018 36.281 64.0449 36.3794 64.1967L36.4779 64.3485C36.7016 64.5273 36.9253 64.706 37.0237 64.8578C37.1221 65.0096 37.3459 65.1884 37.4443 65.3402C37.668 65.5189 37.8917 65.6977 38.1154 65.8765C38.2139 66.0283 38.3392 66.0552 38.4376 66.207C38.4376 66.207 38.5629 66.234 38.536 66.3588C38.7597 66.5376 39.0819 66.8681 39.3056 67.0469C39.404 67.1987 39.5293 67.2256 39.6277 67.3774C40.0752 67.735 40.3973 68.0655 40.8716 68.2982C40.8716 68.2982 40.8716 68.2982 40.9969 68.3251C41.4443 68.6826 41.7665 69.0132 42.2407 69.2459C42.3392 69.3977 42.5898 69.4516 42.6882 69.6034C43.0372 69.8091 43.2609 69.9878 43.583 70.3184C43.7083 70.3454 43.6815 70.4702 43.8068 70.4972C43.932 70.5241 43.9052 70.649 44.0305 70.6759C44.4779 71.0334 44.9522 71.2661 45.3996 71.6236C45.3996 71.6236 45.5249 71.6505 45.4981 71.7754C46.0708 72.1599 46.5182 72.5174 47.1178 72.777C47.1178 72.777 47.2431 72.8039 47.2162 72.9288C47.3415 72.9557 47.3415 72.9557 47.4399 73.1076C48.1379 73.519 48.8359 73.9304 49.5339 74.3418C49.6592 74.3687 49.7577 74.5206 49.8829 74.5475C50.581 74.9589 51.279 75.3703 52.1023 75.8087L52.2275 75.8357L52.3528 75.8626C53.1761 76.301 53.9994 76.7394 54.8227 77.1777C54.948 77.2047 55.0733 77.2316 55.1717 77.3834C55.995 77.8218 56.8183 78.2602 57.6416 78.6985C57.7669 78.7255 57.8922 78.7524 57.8653 78.8773C58.6886 79.3157 59.5119 79.754 60.4605 80.2194C60.5858 80.2463 60.5858 80.2463 60.711 80.2733C61.6596 80.7386 62.4829 81.1769 63.3062 81.6153C65.8029 82.8056 68.1475 84.0937 70.519 85.257C70.7427 85.4358 71.1186 85.5167 71.3423 85.6954C71.6913 85.9011 72.0403 86.1068 72.3893 86.3125C72.5146 86.3395 72.613 86.4913 72.613 86.4913C72.8367 86.6701 73.0873 86.724 73.311 86.9027C73.4363 86.9297 73.5347 87.0815 73.5347 87.0815C73.7584 87.2602 74.1075 87.4659 74.3312 87.6447C74.5549 87.8235 74.9039 88.0292 75.1276 88.2079C75.2529 88.2349 75.226 88.3597 75.3513 88.3867C75.575 88.5654 75.6735 88.7172 75.924 88.7711C76.0493 88.7981 76.0225 88.9229 76.1478 88.9499C76.3715 89.1286 76.4699 89.2804 76.6936 89.4592C76.8189 89.4862 76.792 89.611 76.9173 89.638C77.141 89.8167 77.3379 90.1203 77.5616 90.2991L77.66 90.4509C77.8569 90.7545 78.0806 90.9332 78.2775 91.2369L78.3759 91.3887C78.4743 91.5405 78.698 91.7192 78.7965 91.871L78.8949 92.0228C78.9933 92.1746 79.1902 92.4782 79.2886 92.63C79.2886 92.63 79.2886 92.63 79.387 92.7818C79.5839 93.0854 79.6555 93.3621 79.8792 93.5409L79.9776 93.6927C80.1745 93.9963 80.246 94.2729 80.4429 94.5765C80.4429 94.5765 80.416 94.7014 80.5413 94.7283C80.6129 95.005 80.8098 95.3086 80.8813 95.5852L80.9798 95.737C81.0513 96.0137 81.2213 96.4422 81.2929 96.7188C81.2929 96.7188 81.266 96.8437 81.3913 96.8706C81.4629 97.1473 81.5076 97.5488 81.5792 97.8254L81.5523 97.9503C81.597 98.3518 81.6686 98.6284 81.7133 99.0299C81.7133 99.0299 81.6865 99.1548 81.8117 99.1817C81.928 99.8599 82.0443 100.538 82.0353 101.189L82.0084 101.314C82.0979 102.117 82.062 102.893 82.1514 103.696L82.1246 103.821C82.0887 104.597 82.205 105.275 82.1691 106.051C82.1601 106.703 82.1242 107.479 82.1152 108.13C82.1062 108.781 82.0972 109.432 82.0882 110.083C82.0613 110.208 82.1329 110.485 82.1061 110.61C82.097 111.261 82.088 111.912 82.079 112.563C82.079 112.563 82.079 112.563 82.0522 112.688C82.0432 113.339 82.1595 114.018 82.1773 114.544C82.1505 114.669 82.1504 114.669 82.2489 114.821C82.222 114.945 82.3473 114.972 82.3205 115.097C82.3652 115.499 82.4099 115.9 82.4814 116.177C82.4546 116.302 82.553 116.454 82.5262 116.578C82.4993 116.703 82.6246 116.73 82.5977 116.855C82.5709 116.98 82.6693 117.132 82.6424 117.257C82.6871 117.658 82.7319 118.06 82.9287 118.363C82.9287 118.363 82.9019 118.488 83.0271 118.515C83.1971 118.943 83.2418 119.345 83.4118 119.773C83.5818 120.202 83.7518 120.63 83.9487 120.934C84.0471 121.086 84.0203 121.211 84.1456 121.238C84.2171 121.514 84.414 121.818 84.6377 121.997L84.7361 122.148L84.8346 122.3C84.933 122.452 84.9061 122.577 85.0314 122.604C85.1298 122.756 85.2283 122.907 85.3267 123.059C85.4251 123.211 85.5504 123.238 85.5236 123.363L85.622 123.515L85.7204 123.666C85.9173 123.97 86.141 124.149 86.3378 124.452L86.4363 124.604C86.4363 124.604 86.4363 124.604 86.5616 124.631C86.7584 124.935 87.1074 125.14 87.3043 125.444C87.3043 125.444 87.4296 125.471 87.4027 125.596C87.6264 125.775 87.8501 125.953 88.047 126.257C88.047 126.257 88.1723 126.284 88.1454 126.409C88.1454 126.409 88.2707 126.436 88.2439 126.561C88.4676 126.739 88.6913 126.918 88.915 127.097C88.915 127.097 89.0403 127.124 89.0134 127.249C89.3624 127.454 89.5862 127.633 89.9083 127.964C89.9083 127.964 89.9083 127.964 90.0336 127.991L90.1589 128.018C90.5079 128.223 90.7316 128.402 90.9553 128.581C90.9553 128.581 90.9553 128.581 91.0806 128.608C91.2059 128.635 91.2059 128.635 91.3043 128.787C91.4296 128.813 91.528 128.965 91.6533 128.992C91.7786 129.019 91.7786 129.019 91.877 129.171C92.0023 129.198 92.0023 129.198 92.1007 129.35C92.1007 129.35 92.1007 129.35 92.226 129.377C92.4497 129.555 92.7003 129.609 92.7987 129.761C92.924 129.788 93.1477 129.967 93.273 129.994C93.7473 130.226 94.0963 130.432 94.5975 130.54L94.7228 130.567L94.848 130.594C95.3223 130.827 95.7966 131.059 96.4231 131.194L96.5484 131.221L96.6736 131.248C97.0495 131.329 97.3985 131.534 97.7744 131.615C97.8997 131.642 97.8997 131.642 98.0249 131.669C98.4008 131.75 98.8751 131.983 99.251 132.064C99.251 132.064 99.251 132.064 99.3762 132.091L99.5015 132.118C100.253 132.279 100.853 132.539 101.605 132.701L101.73 132.728C102.482 132.889 103.081 133.149 103.833 133.311C104.71 133.499 105.435 133.786 106.312 133.974C107.189 134.163 108.039 134.477 108.889 134.79C109.14 134.844 109.39 134.898 109.515 134.925C110.491 135.265 111.466 135.606 112.469 135.821C112.594 135.848 112.594 135.848 112.719 135.875C113.695 136.216 114.795 136.583 115.771 136.924C116.021 136.978 116.245 137.156 116.37 137.183C117.346 137.524 118.321 137.864 119.27 138.33C119.395 138.357 119.52 138.384 119.619 138.535C120.469 138.849 121.418 139.314 122.268 139.628C122.617 139.833 122.993 139.914 123.342 140.12C123.816 140.353 124.165 140.558 124.666 140.666C125.015 140.872 125.489 141.105 125.865 141.185C125.865 141.185 125.865 141.185 125.991 141.212C126.214 141.391 126.465 141.445 126.814 141.651C126.939 141.678 127.038 141.829 127.038 141.829C127.163 141.856 127.261 142.008 127.387 142.035C127.512 142.062 127.61 142.214 127.736 142.241C127.861 142.268 127.861 142.268 127.959 142.42C128.183 142.598 128.308 142.625 128.532 142.804C128.63 142.956 128.854 143.135 128.979 143.162L129.078 143.313C129.176 143.465 129.4 143.644 129.498 143.796C129.722 143.975 129.919 144.278 130.017 144.43L130.116 144.582L130.214 144.734C130.411 145.037 130.635 145.216 130.706 145.493C130.805 145.644 130.805 145.644 130.903 145.796C131.1 146.1 131.172 146.376 131.369 146.68C131.342 146.805 131.467 146.832 131.44 146.957C131.61 147.385 131.807 147.689 131.977 148.117C131.95 148.242 132.075 148.269 132.049 148.394C132.12 148.671 132.317 148.974 132.362 149.376C132.335 149.5 132.433 149.652 132.433 149.652C132.603 150.081 132.675 150.357 132.845 150.786C133.086 151.491 133.301 152.321 133.57 152.901C133.838 153.481 133.981 154.035 134.276 154.49L134.375 154.642C134.67 155.097 134.813 155.651 135.109 156.106L135.207 156.258L135.305 156.41C135.404 156.562 135.601 156.865 135.699 157.017C135.798 157.169 135.798 157.169 135.896 157.321C136.093 157.624 136.191 157.776 136.388 158.08L136.487 158.231C136.782 158.687 137.104 159.017 137.426 159.348L137.525 159.5C137.525 159.5 137.65 159.527 137.623 159.651C137.82 159.955 138.142 160.286 138.366 160.464C138.366 160.464 138.366 160.464 138.491 160.491C138.688 160.795 139.037 161.001 139.359 161.331C139.359 161.331 139.359 161.331 139.484 161.358C139.61 161.385 139.583 161.51 139.708 161.537C139.932 161.716 140.03 161.868 140.281 161.921L140.406 161.948C140.531 161.975 140.63 162.127 140.63 162.127C140.728 162.279 140.979 162.333 141.077 162.485C141.077 162.485 141.202 162.512 141.176 162.636C141.301 162.663 141.399 162.815 141.399 162.815C141.525 162.842 141.623 162.994 141.748 163.021L141.874 163.048C141.999 163.075 142.097 163.227 142.223 163.254C142.348 163.281 142.446 163.432 142.572 163.459L142.697 163.486C142.822 163.513 142.921 163.665 143.046 163.692C143.171 163.719 143.27 163.871 143.395 163.898C143.395 163.898 143.395 163.898 143.52 163.925C143.744 164.103 143.994 164.157 144.245 164.211C144.245 164.211 144.245 164.211 144.37 164.238C144.496 164.265 144.621 164.292 144.621 164.292L143.797 167.511L179.846 155.933L180.669 152.714C181.224 154.401 181.099 154.374 181 154.222Z" fill="url(#paint0_linear_157_1387)"/>
<path d="M26.7979 19.1587L29.6437 20.5547C26.6627 30.7556 24.1111 42.6164 28.3163 52.9263C35.1254 67.5846 50.2759 75.1546 63.6544 81.821C66.1512 83.0112 68.4957 84.2994 70.8672 85.4627C80.6841 89.7952 82.545 96.9883 82.3652 106.355C82.3562 107.006 82.3203 107.782 82.3113 108.433C82.2035 112.59 82.1226 116.622 83.4289 120.3C85.5136 125.843 90.3459 128.972 93.0664 130.341C93.6659 130.601 94.2655 130.861 94.8382 131.245C97.8361 132.543 101.067 133.369 104.145 134.292C105.022 134.481 105.747 134.767 106.624 134.956C112.307 136.571 118.159 138.613 123.654 141.102C124.128 141.334 124.477 141.54 124.978 141.648C126.777 142.427 128.549 143.33 129.909 144.929C131.717 146.886 132.611 149.429 133.381 151.946C133.622 152.651 133.837 153.481 134.106 154.062C136.119 159.328 140.154 163.723 144.826 165.773C144.951 165.8 145.076 165.827 145.175 165.979L144.351 169.198C138.481 166.629 133.702 161.421 131.349 155.297C131.009 154.441 130.768 153.735 130.553 152.905C129.828 150.79 129.229 148.702 127.94 147.38C126.875 146.236 125.578 145.565 124.003 144.965C123.528 144.732 123.179 144.527 122.678 144.419C117.157 142.055 111.707 139.968 105.997 138.479C105.12 138.29 104.395 138.004 103.518 137.815C100.288 136.989 97.0841 136.039 93.8356 134.687C93.1108 134.4 92.5112 134.141 91.8132 133.729C86.3991 130.866 82.3365 126.596 80.5203 121.633C78.8472 117.224 79.0355 112.693 79.0717 108.259C79.0807 107.608 79.1165 106.832 79.1255 106.18C79.2875 96.2875 76.9611 91.8682 69.6677 88.601C67.3231 87.3128 64.9517 86.1495 62.4549 84.9593C48.6021 78.0603 32.7537 70.0789 25.533 54.287C20.9699 42.5938 23.5573 29.9569 26.7979 19.1587Z" fill="url(#paint1_linear_157_1387)"/>
<path d="M26.7984 19.1587L62.847 7.58065L65.6927 8.97662L29.671 20.4298L26.7984 19.1587Z" fill="url(#paint2_linear_157_1387)"/>
<path d="M145.176 165.979L181.278 154.151L180.83 157.451L144.379 169.073L145.176 165.979Z" fill="#291B07"/>
</g>
<defs>
<linearGradient id="paint0_linear_157_1387" x1="61.3666" y1="13.2495" x2="133.619" y2="164.781" gradientUnits="userSpaceOnUse">
<stop offset="0.00558659" stop-color="#DC9246"/>
<stop offset="0.148" stop-color="#9E4D1D"/>
<stop offset="0.1639" stop-color="#99491B"/>
<stop offset="0.2594" stop-color="#7E3512"/>
<stop offset="0.3156" stop-color="#742D0E"/>
<stop offset="0.3427" stop-color="#7D3814"/>
<stop offset="0.3898" stop-color="#965426"/>
<stop offset="0.4509" stop-color="#BF8242"/>
<stop offset="0.486" stop-color="#D9A054"/>
<stop offset="0.5305" stop-color="#D79D51"/>
<stop offset="0.5687" stop-color="#D2924A"/>
<stop offset="0.6045" stop-color="#C9803C"/>
<stop offset="0.6388" stop-color="#BC682A"/>
<stop offset="0.6508" stop-color="#B75D22"/>
<stop offset="0.7269" stop-color="#8F4519"/>
<stop offset="0.8003" stop-color="#6F3212"/>
<stop offset="0.8408" stop-color="#632B0F"/>
</linearGradient>
<linearGradient id="paint1_linear_157_1387" x1="104.979" y1="-115.613" x2="72.8728" y2="217.091" gradientUnits="userSpaceOnUse">
<stop stop-color="#B06143"/>
<stop offset="0.2095" stop-color="#9E4D1D"/>
<stop offset="0.2227" stop-color="#99491B"/>
<stop offset="0.3023" stop-color="#7E3512"/>
<stop offset="0.3492" stop-color="#742D0E"/>
<stop offset="0.486" stop-color="#B78A47"/>
<stop offset="0.5252" stop-color="#B77E3D"/>
<stop offset="0.5951" stop-color="#B76024"/>
<stop offset="0.6006" stop-color="#B75D22"/>
<stop offset="0.6467" stop-color="#B45B21"/>
<stop offset="0.6751" stop-color="#AC561F"/>
<stop offset="0.6988" stop-color="#9D4E1C"/>
<stop offset="0.7197" stop-color="#894218"/>
<stop offset="0.7388" stop-color="#6F3212"/>
<stop offset="0.7458" stop-color="#632B0F"/>
</linearGradient>
<linearGradient id="paint2_linear_157_1387" x1="133.679" y1="-35.1231" x2="-186.66" y2="146.426" gradientUnits="userSpaceOnUse">
<stop stop-color="#B06143"/>
<stop offset="0.2095" stop-color="#9E4D1D"/>
<stop offset="0.2227" stop-color="#99491B"/>
<stop offset="0.3023" stop-color="#7E3512"/>
<stop offset="0.3492" stop-color="#742D0E"/>
<stop offset="0.486" stop-color="#B78A47"/>
<stop offset="0.5252" stop-color="#B77E3D"/>
<stop offset="0.5951" stop-color="#B76024"/>
<stop offset="0.6006" stop-color="#B75D22"/>
<stop offset="0.6467" stop-color="#B45B21"/>
<stop offset="0.6751" stop-color="#AC561F"/>
<stop offset="0.6988" stop-color="#9D4E1C"/>
<stop offset="0.7197" stop-color="#894218"/>
<stop offset="0.7388" stop-color="#6F3212"/>
<stop offset="0.7458" stop-color="#632B0F"/>
</linearGradient>
<clipPath id="clip0_157_1387">
<rect width="180.056" height="140.733" fill="white" transform="translate(30.3984 0.599976) rotate(12.1408)"/>
</clipPath>
</defs>
</svg>
