<svg width="160" height="187" viewBox="0 0 160 187" fill="none" xmlns="http://www.w3.org/2000/svg">
<g style="mix-blend-mode:color-burn" opacity="0.4" clip-path="url(#clip0_157_1613)">
<path d="M140.145 24.3071C140.094 24.532 139.93 24.7312 139.741 25.0429C139.715 25.1554 139.577 25.2421 139.551 25.3546C139.525 25.4671 139.362 25.6663 139.336 25.7787C139.31 25.8912 139.172 25.978 139.147 26.0904C139.121 26.2029 138.957 26.4021 138.931 26.5146C138.905 26.6271 138.768 26.7138 138.742 26.8263C138.716 26.9387 138.578 27.0255 138.527 27.2504C138.389 27.3372 138.337 27.5621 138.199 27.6489C138.061 27.7356 138.036 27.8481 137.898 27.9348C137.734 28.1341 137.596 28.2208 137.544 28.4458C137.519 28.5582 137.381 28.645 137.355 28.7574C137.166 29.0691 136.89 29.2426 136.588 29.5286C136.588 29.5286 136.588 29.5286 136.562 29.6411C136.261 29.9271 136.097 30.1263 135.822 30.2998C135.684 30.3866 135.684 30.3866 135.546 30.4733C135.244 30.7593 134.831 31.0195 134.529 31.3055L134.391 31.3923C134.115 31.5658 133.978 31.6526 133.702 31.8261C133.564 31.9128 133.564 31.9128 133.426 31.9996C133.288 32.0863 133.013 32.2599 132.875 32.3466C132.737 32.4334 132.737 32.4334 132.599 32.5201C132.185 32.7804 131.772 33.0407 131.272 33.1628L131.134 33.2495C130.608 33.4841 130.22 33.6319 129.695 33.8665C129.057 34.0753 128.419 34.2842 127.781 34.493C127.394 34.6408 127.144 34.7019 126.756 34.8497C126.644 34.824 126.506 34.9107 126.506 34.9107C126.256 34.9718 125.98 35.1453 125.618 35.1806C125.506 35.1549 125.48 35.2674 125.368 35.2417C124.98 35.3895 124.705 35.563 124.317 35.7108C124.205 35.6851 124.179 35.7975 124.067 35.7718C123.791 35.9453 123.541 36.0064 123.266 36.1799L123.128 36.2667C123.128 36.2667 123.102 36.3791 122.99 36.3534C122.714 36.5269 122.464 36.588 122.3 36.7872L122.163 36.874L122.025 36.9607C121.887 37.0475 121.749 37.1342 121.611 37.221C121.585 37.3335 121.473 37.3077 121.447 37.4202C121.31 37.507 121.284 37.6194 121.172 37.5937C121.146 37.7062 121.034 37.6805 121.008 37.7929L120.87 37.8797C120.87 37.8797 120.87 37.8797 120.844 37.9922C120.706 38.0789 120.681 38.1914 120.517 38.3906C120.379 38.4774 120.328 38.7023 120.19 38.7891C120.19 38.7891 120.19 38.7891 120.164 38.9015C120.138 39.014 120.026 38.9883 120 39.1007C119.974 39.2132 119.837 39.3 119.837 39.3L119.811 39.4124C119.785 39.5249 119.647 39.6116 119.621 39.7241C119.595 39.8366 119.595 39.8366 119.458 39.9233C119.458 39.9233 119.458 39.9233 119.432 40.0358C119.268 40.235 119.217 40.46 119.027 40.7716C119.027 40.7716 119.027 40.7716 119.001 40.8841C118.812 41.1958 118.597 41.6199 118.519 41.9573C118.304 42.3815 118.114 42.6932 118.011 43.143C117.96 43.3679 117.796 43.5672 117.77 43.6796C117.744 43.7921 117.719 43.9046 117.581 43.9913C117.288 44.7529 116.857 45.6012 116.565 46.3627C116.539 46.4752 116.513 46.5876 116.375 46.6744C116.057 47.5484 115.626 48.3967 115.308 49.2707C115.282 49.3832 115.256 49.4957 115.231 49.6081C115.205 49.7206 115.179 49.8331 115.153 49.9455C114.835 50.8195 114.49 51.806 114.172 52.68C114.146 52.7925 114.146 52.7925 114.12 52.9049C113.802 53.7789 113.483 54.653 113.277 55.5527C113.251 55.6651 113.225 55.7776 113.2 55.8901C113.174 56.0025 113.148 56.115 113.148 56.115C112.855 56.8765 112.675 57.6638 112.382 58.4253C112.202 59.2126 111.935 59.8617 111.754 60.6489C111.599 61.3237 111.332 61.9728 111.203 62.5351L111.178 62.6476C111.023 63.3224 110.782 63.859 110.627 64.5338C110.601 64.6463 110.601 64.6463 110.575 64.7587C110.498 65.0961 110.283 65.5203 110.205 65.8577C110.18 65.9701 110.18 65.9701 110.154 66.0826C110.076 66.42 109.887 66.7317 109.81 67.0691C109.784 67.1815 109.758 67.294 109.758 67.294C109.543 67.7181 109.439 68.168 109.198 68.7046C109.173 68.8171 109.147 68.9295 109.009 69.0163C108.768 69.5529 108.527 70.0895 108.174 70.6004C108.122 70.8254 107.984 70.9121 107.821 71.1113C107.795 71.2238 107.657 71.3106 107.631 71.423C107.605 71.5355 107.605 71.5355 107.467 71.6223C107.442 71.7347 107.304 71.8215 107.278 71.9339C107.252 72.0464 107.252 72.0464 107.114 72.1332L107.088 72.2456C106.925 72.4449 106.735 72.7565 106.572 72.9558C106.546 73.0682 106.546 73.0682 106.408 73.155C106.219 73.4667 106.055 73.6659 105.753 73.9519C105.728 74.0643 105.615 74.0386 105.59 74.1511C105.426 74.3503 105.262 74.5495 105.099 74.7488C105.073 74.8612 104.935 74.948 104.935 74.948C104.771 75.1472 104.608 75.3464 104.332 75.5199C104.306 75.6324 104.194 75.6067 104.168 75.7191C103.892 75.8927 103.703 76.2043 103.427 76.3779C103.401 76.4903 103.289 76.4646 103.264 76.5771C102.988 76.7506 102.824 76.9498 102.548 77.1233C102.411 77.2101 102.385 77.3225 102.273 77.2968C102.135 77.3836 102.109 77.4961 101.997 77.4703C101.859 77.5571 101.721 77.6439 101.583 77.7306C101.445 77.8174 101.333 77.7917 101.308 77.9041C101.17 77.9909 101.032 78.0777 100.92 78.0519C100.644 78.2255 100.506 78.3122 100.23 78.4857C100.093 78.5725 99.9805 78.5468 99.9547 78.6592C99.5669 78.807 99.2912 78.9805 98.9033 79.1284C98.5155 79.2762 98.1277 79.424 97.6278 79.5461C97.6278 79.5461 97.5157 79.5204 97.49 79.6328C97.1279 79.6682 96.8522 79.8417 96.4902 79.877C96.3781 79.8513 96.2402 79.9381 96.1282 79.9124C95.8782 79.9734 95.7661 79.9477 95.5162 80.0087C95.1542 80.0441 94.9042 80.1051 94.5422 80.1405C94.4301 80.1148 94.1802 80.1758 94.0681 80.1501C93.482 80.134 92.87 80.2304 92.3959 80.24C92.3959 80.24 92.3959 80.24 92.2838 80.2143C91.6977 80.1983 91.1115 80.1822 90.5254 80.1661C90.4133 80.1404 90.1633 80.2015 90.0513 80.1757C89.4651 80.1597 88.8789 80.1436 88.2928 80.1275C87.7066 80.1114 87.0084 80.0697 86.4222 80.0536C85.724 80.0118 85.0257 79.97 84.4138 80.0664C84.4138 80.0664 84.4138 80.0664 84.3017 80.0407C83.6035 79.9989 82.8794 80.0696 82.1554 80.1403C82.1554 80.1403 82.1554 80.1403 82.0433 80.1146C81.4314 80.2109 80.8452 80.1949 80.2332 80.2913C80.2332 80.2913 80.2332 80.2913 80.1212 80.2656L80.0091 80.2398C79.6471 80.2752 79.3971 80.3362 79.0351 80.3716L78.923 80.3459C78.6731 80.4069 78.3111 80.4422 78.0611 80.5033L77.9491 80.4776C77.6991 80.5386 77.3113 80.6864 77.0614 80.7475L76.9235 80.8342C76.6736 80.8953 76.4236 80.9563 76.1479 81.1299C76.1479 81.1299 76.0358 81.1041 76.01 81.2166C75.76 81.2777 75.4843 81.4512 75.2086 81.6247L75.0707 81.7114C74.8208 81.7725 74.545 81.946 74.3813 82.1452C74.3813 82.1452 74.3813 82.1452 74.2693 82.1195C74.0193 82.1806 73.8556 82.3798 73.7178 82.4665L73.5799 82.5533C73.442 82.6401 73.3042 82.7268 73.1405 82.926C73.1405 82.926 73.1405 82.926 73.0026 83.0128C72.7269 83.1863 72.5632 83.3855 72.2875 83.559C72.2875 83.559 72.2875 83.559 72.1496 83.6458C71.9859 83.845 71.7102 84.0185 71.5465 84.2177C71.5465 84.2177 71.5207 84.3302 71.4087 84.3045C71.245 84.5037 71.1071 84.5905 70.9434 84.7897C70.9434 84.7897 70.9176 84.9022 70.8056 84.8765C70.8056 84.8765 70.7798 84.9889 70.6677 84.9632C70.5298 85.05 70.3662 85.2492 70.3146 85.4741L70.1767 85.5609C70.1767 85.5609 70.1767 85.5609 70.1509 85.6734C69.9872 85.8726 69.7978 86.1843 69.6341 86.3835C69.4704 86.5827 69.281 86.8944 69.1173 87.0936C69.1173 87.0936 69.1173 87.0936 69.0915 87.2061C69.0915 87.2061 69.0657 87.3185 68.9536 87.2928C68.7899 87.492 68.7383 87.717 68.5747 87.9162L68.5489 88.0287L68.5231 88.1411C68.3336 88.4528 68.1441 88.7645 67.9547 89.0762C67.791 89.2754 67.7136 89.6128 67.5499 89.812C66.3615 91.9071 65.2852 94.0278 64.1831 96.261C63.7784 96.9969 63.3478 97.8452 62.9431 98.581C62.9173 98.6935 62.9173 98.6935 62.8915 98.8059C62.4868 99.5418 62.082 100.278 61.6773 101.013C61.6515 101.126 61.6257 101.238 61.5136 101.213C61.1089 101.949 60.7042 102.684 60.2994 103.42C60.2736 103.533 60.2478 103.645 60.11 103.732C59.7052 104.468 59.3005 105.204 58.8958 105.939C58.87 106.052 58.87 106.052 58.7321 106.139C58.3532 106.762 57.9742 107.385 57.5695 108.121C57.5437 108.234 57.4058 108.32 57.38 108.433C57.0011 109.056 56.6222 109.68 56.2432 110.303C56.2174 110.415 56.0796 110.502 56.0538 110.615C55.7006 111.126 55.4854 111.55 55.1322 112.061C55.1322 112.061 55.1064 112.173 54.9944 112.147C54.667 112.546 54.4518 112.97 54.1244 113.368C53.9865 113.455 53.9349 113.68 53.7971 113.767C53.6076 114.079 53.4439 114.278 53.1424 114.564C53.0045 114.651 52.9529 114.875 52.8151 114.962C52.4877 115.361 52.2983 115.672 51.9709 116.071C51.9709 116.071 51.9709 116.071 51.9451 116.183C51.6178 116.582 51.3162 116.868 51.101 117.292C50.9631 117.379 50.9373 117.491 50.7994 117.578C50.6358 117.777 50.3342 118.063 50.1706 118.262C50.0327 118.349 49.869 118.548 49.7311 118.635C49.5675 118.834 49.4038 119.033 49.2401 119.233C49.1023 119.319 48.9386 119.519 48.8007 119.605C48.6371 119.805 48.4734 120.004 48.3355 120.091C48.1976 120.177 48.034 120.377 47.8961 120.463C47.7324 120.663 47.5946 120.749 47.4309 120.948C47.293 121.035 47.1294 121.234 46.9915 121.321C46.8278 121.52 46.6899 121.607 46.4142 121.781C46.2763 121.867 46.1127 122.067 45.9748 122.153C45.8111 122.353 45.5354 122.526 45.3717 122.725C45.2338 122.812 45.0702 123.011 44.9323 123.098C44.6566 123.272 44.4929 123.471 44.2171 123.644C44.0793 123.731 43.9414 123.818 43.8035 123.905C43.3641 124.277 42.8384 124.512 42.399 124.885L42.2611 124.971C41.8475 125.232 41.4339 125.492 41.0203 125.752C40.8824 125.839 40.7446 125.926 40.6067 126.013C40.331 126.186 40.0552 126.36 39.6674 126.507C39.5295 126.594 39.3917 126.681 39.2538 126.768C38.8402 127.028 38.3145 127.262 37.9267 127.41C37.401 127.645 36.9011 127.767 36.2633 127.976C36.1255 128.063 35.8755 128.124 35.7634 128.098C35.3756 128.246 35.0136 128.281 34.6258 128.429C34.4879 128.516 34.2638 128.464 34.1259 128.551C33.7639 128.586 33.3761 128.734 33.0141 128.769C32.8762 128.856 32.652 128.805 32.5142 128.891C32.0143 129.014 31.5402 129.023 30.9282 129.12C30.8162 129.094 30.6783 129.181 30.6783 129.181C30.3163 129.216 29.9543 129.251 29.5922 129.287C29.2302 129.322 28.7561 129.332 28.3941 129.367C28.1442 129.428 27.92 129.377 27.558 129.412C27.0839 129.422 26.7219 129.457 26.2736 129.354C26.0495 129.303 25.7995 129.364 25.5754 129.312C24.9892 129.296 24.403 129.28 23.9548 129.177C23.8427 129.152 23.7306 129.126 23.6185 129.1C22.9203 129.058 22.1358 128.878 21.4376 128.837C20.9893 128.734 20.5152 128.743 20.0669 128.641C19.9548 128.615 19.9548 128.615 19.8427 128.589C19.2824 128.461 18.722 128.332 18.1358 128.316C17.9117 128.265 17.5755 128.188 17.3513 128.136C17.0151 128.059 16.6789 127.982 16.3427 127.905C16.1185 127.853 15.7823 127.776 15.5582 127.725C15.2219 127.648 14.9978 127.596 14.6616 127.519C13.8771 127.339 13.0926 127.159 12.4459 126.892C12.3338 126.867 12.2218 126.841 12.1097 126.815C11.4373 126.661 10.9027 126.42 10.2303 126.266C9.89404 126.189 9.44575 126.086 9.13533 125.896L17.8423 158.91C18.0664 158.961 18.4027 159.038 18.601 159.202C18.7131 159.228 18.8252 159.254 18.9372 159.279C19.6097 159.434 20.1442 159.675 20.8167 159.829C20.9287 159.855 21.0408 159.88 21.1529 159.906C21.9374 160.086 22.584 160.353 23.3685 160.533C23.4806 160.558 23.4806 160.558 23.5927 160.584C23.8168 160.635 24.041 160.687 24.2651 160.738C24.4893 160.79 24.8255 160.867 25.0496 160.918C25.3859 160.995 25.7221 161.072 26.0583 161.15C26.2824 161.201 26.6187 161.278 26.8428 161.33C26.9549 161.355 26.9549 161.355 27.067 161.381C27.5152 161.484 28.0756 161.612 28.5497 161.603C28.6618 161.628 28.6618 161.628 28.7738 161.654C29.2221 161.757 29.5584 161.834 30.0324 161.824C30.1445 161.85 30.1445 161.85 30.2566 161.876C31.0669 161.943 31.7393 162.098 32.4376 162.139C32.5497 162.165 32.6617 162.191 32.7738 162.217C33.36 162.233 33.9203 162.361 34.5065 162.377C34.6186 162.403 34.6186 162.403 34.7306 162.429C34.8427 162.454 35.0927 162.393 35.2047 162.419C35.6788 162.409 36.015 162.487 36.4891 162.477C36.6012 162.503 36.7133 162.528 36.8511 162.442C36.9632 162.467 37.1011 162.38 37.3252 162.432C37.6872 162.397 38.1613 162.387 38.5234 162.352C38.6354 162.377 38.8854 162.316 38.9974 162.342C39.1353 162.255 39.3595 162.307 39.6094 162.246C39.7215 162.271 39.8593 162.185 39.8593 162.185C40.3334 162.175 40.7213 162.027 41.1953 162.017C41.3074 162.043 41.3332 161.931 41.4453 161.956C41.5832 161.87 41.8073 161.921 41.9452 161.834C42.3072 161.799 42.695 161.651 43.057 161.616C43.1949 161.529 43.419 161.58 43.5569 161.494C43.6948 161.407 43.8069 161.433 43.9189 161.458C44.1689 161.397 44.4188 161.336 44.6688 161.275C44.9187 161.214 45.1686 161.153 45.3065 161.066C45.8322 160.832 46.4442 160.735 46.9699 160.501C47.4955 160.266 47.8834 160.119 48.297 159.858C48.4348 159.771 48.5727 159.685 48.7106 159.598C48.9863 159.424 49.3741 159.277 49.6499 159.103C49.762 159.129 49.7878 159.016 49.8998 159.042C50.0119 159.068 50.0377 158.955 50.1498 158.981C50.5634 158.721 50.977 158.461 51.3906 158.2L51.5285 158.113C51.9679 157.741 52.4936 157.506 52.933 157.133L53.0709 157.047C53.2087 156.96 53.2345 156.847 53.3466 156.873C53.6223 156.7 53.786 156.5 54.0618 156.327C54.1996 156.24 54.3633 156.041 54.5012 155.954C54.6648 155.755 54.9406 155.581 55.1043 155.382C55.2421 155.295 55.2679 155.183 55.38 155.209C55.4058 155.096 55.5179 155.122 55.5437 155.01C55.7073 154.81 55.8452 154.724 56.1209 154.55C56.2588 154.463 56.4225 154.264 56.5604 154.177C56.724 153.978 56.8619 153.891 57.0256 153.692C57.1634 153.605 57.1892 153.493 57.3271 153.406L57.465 153.319C57.6286 153.12 57.7923 152.921 57.9302 152.834C58.0681 152.747 58.2317 152.548 58.3696 152.461C58.5333 152.262 58.6969 152.063 58.8606 151.864C58.9985 151.777 59.0243 151.665 59.1621 151.578C59.1621 151.578 59.1879 151.465 59.3 151.491C59.4637 151.292 59.7652 151.006 59.9289 150.807C60.0668 150.72 60.0926 150.607 60.2304 150.521C60.5578 150.122 60.8593 149.836 61.0746 149.412C61.0746 149.412 61.0746 149.412 61.1004 149.3C61.4277 148.901 61.7293 148.615 61.9445 148.191C62.0824 148.104 62.134 147.879 62.2719 147.793C62.4613 147.481 62.625 147.282 62.9265 146.996C62.9523 146.883 63.0644 146.909 63.0902 146.796C63.116 146.684 63.2281 146.71 63.2539 146.597C63.5812 146.199 63.7965 145.775 64.1238 145.376C64.1238 145.376 64.1496 145.264 64.2617 145.289C64.6148 144.779 64.9422 144.38 65.1832 143.843C65.1832 143.843 65.209 143.731 65.3211 143.757C65.3469 143.644 65.3469 143.644 65.4848 143.558C65.8637 142.934 66.2426 142.311 66.6216 141.687C66.6474 141.575 66.7852 141.488 66.811 141.376C67.19 140.752 67.5689 140.129 67.9736 139.393L67.9994 139.281L68.0252 139.168C68.43 138.432 68.8347 137.697 69.2394 136.961C69.2652 136.848 69.291 136.736 69.4289 136.649C69.8336 135.913 70.2384 135.177 70.6431 134.441C70.6689 134.329 70.6947 134.217 70.8068 134.242C71.2115 133.506 71.6162 132.771 72.0468 131.922C72.0726 131.81 72.0726 131.81 72.0984 131.697C72.5289 130.849 72.9336 130.113 73.3384 129.377C74.4405 127.144 75.6289 125.049 76.7052 122.928C76.8689 122.729 76.9463 122.392 77.1099 122.193C77.2994 121.881 77.4889 121.569 77.6783 121.257C77.7041 121.145 77.842 121.058 77.842 121.058C78.0057 120.859 78.0573 120.634 78.2209 120.435C78.2467 120.322 78.3846 120.236 78.3846 120.236C78.5483 120.036 78.7378 119.725 78.9014 119.526C79.0651 119.326 79.2546 119.015 79.4182 118.815C79.444 118.703 79.5561 118.729 79.5819 118.616C79.7456 118.417 79.8834 118.33 79.935 118.105C79.9608 117.993 80.0729 118.019 80.0987 117.906C80.2624 117.707 80.4002 117.62 80.5639 117.421C80.5897 117.308 80.7018 117.334 80.7276 117.222C80.8913 117.022 81.167 116.849 81.3307 116.65L81.4685 116.563C81.7443 116.389 81.9079 116.19 82.1837 116.017L82.3216 115.93C82.4594 115.843 82.6231 115.644 82.761 115.557L82.8988 115.47C83.0367 115.384 83.3125 115.21 83.4503 115.123C83.4503 115.123 83.4503 115.123 83.5882 115.037C83.8639 114.863 84.1139 114.802 84.2775 114.603L84.4154 114.516C84.6912 114.343 84.9411 114.282 85.2168 114.108C85.2168 114.108 85.3289 114.134 85.3547 114.021C85.6047 113.96 85.8804 113.787 86.1304 113.726L86.2682 113.639C86.5182 113.578 86.906 113.43 87.1559 113.369C87.1559 113.369 87.268 113.395 87.2938 113.282C87.5437 113.221 87.9058 113.186 88.1557 113.125L88.2678 113.151C88.6298 113.115 88.8797 113.054 89.2418 113.019C89.2418 113.019 89.3538 113.044 89.3796 112.932C89.9916 112.836 90.6035 112.739 91.1897 112.755L91.3018 112.781C92.0258 112.71 92.7241 112.752 93.4481 112.681L93.5602 112.707C94.2584 112.749 94.8704 112.653 95.5686 112.694C96.1547 112.71 96.853 112.752 97.4392 112.768C98.0253 112.784 98.6115 112.8 99.1976 112.817C99.3097 112.842 99.5597 112.781 99.6717 112.807C100.258 112.823 100.844 112.839 101.43 112.855C101.43 112.855 101.43 112.855 101.542 112.881C102.128 112.897 102.74 112.801 103.215 112.791C103.327 112.817 103.327 112.817 103.464 112.73C103.577 112.756 103.602 112.643 103.714 112.669C104.076 112.633 104.438 112.598 104.688 112.537C104.8 112.563 104.938 112.476 105.05 112.502C105.162 112.527 105.188 112.415 105.3 112.441C105.412 112.466 105.55 112.38 105.662 112.405C106.024 112.37 106.386 112.335 106.662 112.161C106.662 112.161 106.774 112.187 106.8 112.074C107.188 111.927 107.55 111.891 107.938 111.743C108.325 111.596 108.713 111.448 108.989 111.274C109.127 111.188 109.239 111.213 109.265 111.101C109.515 111.04 109.79 110.866 109.954 110.667L110.092 110.58L110.23 110.493C110.368 110.407 110.48 110.432 110.506 110.32C110.643 110.233 110.781 110.146 110.919 110.06C111.057 109.973 111.083 109.86 111.195 109.886L111.333 109.799L111.471 109.713C111.746 109.539 111.91 109.34 112.186 109.166L112.324 109.08C112.324 109.08 112.324 109.08 112.35 108.967C112.625 108.794 112.815 108.482 113.09 108.308C113.09 108.308 113.116 108.196 113.228 108.222C113.392 108.023 113.556 107.823 113.831 107.65C113.831 107.65 113.857 107.537 113.969 107.563C113.969 107.563 113.995 107.451 114.107 107.476C114.271 107.277 114.435 107.078 114.598 106.879C114.598 106.879 114.624 106.766 114.736 106.792C114.926 106.48 115.089 106.281 115.391 105.995C115.391 105.995 115.391 105.995 115.417 105.883L115.442 105.77C115.632 105.458 115.795 105.259 115.959 105.06C115.959 105.06 115.959 105.06 115.985 104.947C116.011 104.835 116.011 104.835 116.149 104.748C116.174 104.636 116.312 104.549 116.338 104.437C116.364 104.324 116.364 104.324 116.502 104.237C116.528 104.125 116.528 104.125 116.665 104.038C116.665 104.038 116.665 104.038 116.691 103.926C116.855 103.726 116.906 103.501 117.044 103.415C117.07 103.302 117.234 103.103 117.26 102.991C117.475 102.566 117.664 102.255 117.768 101.805L117.793 101.692L117.819 101.58C118.034 101.156 118.25 100.732 118.379 100.169L118.404 100.057L118.43 99.9444C118.508 99.607 118.697 99.2953 118.774 98.9579C118.8 98.8455 118.8 98.8455 118.826 98.733C118.903 98.3956 119.119 97.9714 119.196 97.6341C119.196 97.6341 119.196 97.6341 119.222 97.5216L119.248 97.4091C119.403 96.7343 119.644 96.1977 119.798 95.5229L119.824 95.4105C119.979 94.7357 120.22 94.1991 120.375 93.5243C120.555 92.737 120.822 92.0879 121.003 91.3007C121.183 90.5134 121.476 89.7519 121.769 88.9903C121.82 88.7654 121.872 88.5405 121.898 88.428C122.216 87.554 122.535 86.68 122.741 85.7803C122.767 85.6678 122.767 85.6678 122.793 85.5553C123.111 84.6813 123.455 83.6949 123.774 82.8208C123.825 82.5959 123.989 82.3967 124.015 82.2842C124.333 81.4102 124.652 80.5362 125.082 79.6879C125.108 79.5754 125.134 79.463 125.272 79.3762C125.564 78.6147 125.995 77.7664 126.288 77.0048C126.477 76.6931 126.555 76.3557 126.744 76.0441C126.959 75.6199 127.149 75.3082 127.252 74.8584C127.441 74.5467 127.657 74.1225 127.734 73.7851C127.734 73.7851 127.734 73.7851 127.76 73.6727C127.923 73.4735 127.975 73.2485 128.165 72.9368C128.19 72.8244 128.328 72.7376 128.328 72.7376C128.354 72.6251 128.492 72.5384 128.518 72.4259C128.543 72.3135 128.681 72.2267 128.707 72.1142C128.733 72.0018 128.733 72.0018 128.871 71.915C129.034 71.7158 129.06 71.6033 129.224 71.4041C129.362 71.3174 129.526 71.1181 129.551 71.0057L129.689 70.9189C129.827 70.8322 129.991 70.6329 130.129 70.5462C130.292 70.347 130.568 70.1735 130.706 70.0867L130.844 69.9999L130.982 69.9132C131.257 69.7397 131.421 69.5404 131.671 69.4794C131.809 69.3926 131.809 69.3926 131.947 69.3059C132.222 69.1324 132.472 69.0713 132.748 68.8978C132.86 68.9235 132.886 68.8111 132.998 68.8368C133.386 68.689 133.662 68.5154 134.049 68.3676C134.162 68.3934 134.187 68.2809 134.299 68.3066C134.549 68.2455 134.825 68.072 135.187 68.0367C135.299 68.0624 135.437 67.9756 135.437 67.9756C135.825 67.8278 136.075 67.7668 136.463 67.619C137.1 67.4101 137.85 67.227 138.376 66.9924C138.902 66.7579 139.401 66.6358 139.815 66.3755L139.953 66.2887C140.367 66.0285 140.866 65.9064 141.28 65.6461L141.418 65.5593L141.556 65.4726C141.694 65.3858 141.969 65.2123 142.107 65.1256C142.245 65.0388 142.245 65.0388 142.383 64.9521C142.659 64.7785 142.797 64.6918 143.072 64.5183L143.21 64.4315C143.624 64.1712 143.925 63.8853 144.227 63.5993L144.365 63.5125C144.365 63.5125 144.391 63.4001 144.503 63.4258C144.778 63.2523 145.08 62.9663 145.244 62.7671C145.244 62.7671 145.244 62.7671 145.269 62.6546C145.545 62.4811 145.735 62.1694 146.036 61.8834C146.036 61.8834 146.036 61.8834 146.062 61.771C146.088 61.6585 146.2 61.6842 146.226 61.5717C146.389 61.3725 146.527 61.2858 146.579 61.0608L146.605 60.9484C146.63 60.8359 146.768 60.7491 146.768 60.7491C146.906 60.6624 146.958 60.4375 147.096 60.3507C147.096 60.3507 147.121 60.2382 147.233 60.2639C147.259 60.1515 147.397 60.0647 147.397 60.0647C147.423 59.9522 147.561 59.8655 147.587 59.753L147.612 59.6406C147.638 59.5281 147.776 59.4413 147.802 59.3289C147.828 59.2164 147.966 59.1297 147.991 59.0172L148.017 58.9047C148.043 58.7923 148.181 58.7055 148.207 58.593C148.232 58.4806 148.37 58.3938 148.396 58.2814C148.396 58.2814 148.396 58.2814 148.422 58.1689C148.586 57.9697 148.637 57.7447 148.689 57.5198C148.689 57.5198 148.689 57.5198 148.715 57.4074C148.74 57.2949 148.766 57.1824 148.766 57.1824L151.654 57.9633L141.672 25.3675L138.784 24.5866C140.309 24.1078 140.283 24.2203 140.145 24.3071Z" fill="#291B07"/>
<path d="M140.145 24.3071C140.094 24.532 139.93 24.7312 139.741 25.0429C139.715 25.1554 139.577 25.2421 139.551 25.3546C139.525 25.4671 139.362 25.6663 139.336 25.7787C139.31 25.8912 139.172 25.978 139.147 26.0904C139.121 26.2029 138.957 26.4021 138.931 26.5146C138.905 26.6271 138.768 26.7138 138.742 26.8263C138.716 26.9387 138.578 27.0255 138.527 27.2504C138.389 27.3372 138.337 27.5621 138.199 27.6489C138.061 27.7356 138.036 27.8481 137.898 27.9348C137.734 28.1341 137.596 28.2208 137.544 28.4458C137.519 28.5582 137.381 28.645 137.355 28.7574C137.166 29.0691 136.89 29.2426 136.588 29.5286C136.588 29.5286 136.588 29.5286 136.562 29.6411C136.261 29.9271 136.097 30.1263 135.822 30.2998C135.684 30.3866 135.684 30.3866 135.546 30.4733C135.244 30.7593 134.831 31.0195 134.529 31.3055L134.391 31.3923C134.115 31.5658 133.978 31.6526 133.702 31.8261C133.564 31.9128 133.564 31.9128 133.426 31.9996C133.288 32.0863 133.013 32.2599 132.875 32.3466C132.737 32.4334 132.737 32.4334 132.599 32.5201C132.185 32.7804 131.772 33.0407 131.272 33.1628L131.134 33.2495C130.608 33.4841 130.22 33.6319 129.695 33.8665C129.057 34.0753 128.419 34.2842 127.781 34.493C127.394 34.6408 127.144 34.7019 126.756 34.8497C126.644 34.824 126.506 34.9107 126.506 34.9107C126.256 34.9718 125.98 35.1453 125.618 35.1806C125.506 35.1549 125.48 35.2674 125.368 35.2417C124.98 35.3895 124.705 35.563 124.317 35.7108C124.205 35.6851 124.179 35.7975 124.067 35.7718C123.791 35.9453 123.541 36.0064 123.266 36.1799L123.128 36.2667C123.128 36.2667 123.102 36.3791 122.99 36.3534C122.714 36.5269 122.464 36.588 122.3 36.7872L122.163 36.874L122.025 36.9607C121.887 37.0475 121.749 37.1342 121.611 37.221C121.585 37.3335 121.473 37.3077 121.447 37.4202C121.31 37.507 121.284 37.6194 121.172 37.5937C121.146 37.7062 121.034 37.6805 121.008 37.7929L120.87 37.8797C120.87 37.8797 120.87 37.8797 120.844 37.9922C120.706 38.0789 120.681 38.1914 120.517 38.3906C120.379 38.4774 120.328 38.7023 120.19 38.7891C120.19 38.7891 120.19 38.7891 120.164 38.9015C120.138 39.014 120.026 38.9883 120 39.1007C119.974 39.2132 119.837 39.3 119.837 39.3L119.811 39.4124C119.785 39.5249 119.647 39.6116 119.621 39.7241C119.595 39.8366 119.595 39.8366 119.458 39.9233C119.458 39.9233 119.458 39.9233 119.432 40.0358C119.268 40.235 119.217 40.46 119.027 40.7716C119.027 40.7716 119.027 40.7716 119.001 40.8841C118.812 41.1958 118.597 41.6199 118.519 41.9573C118.304 42.3815 118.114 42.6932 118.011 43.143C117.96 43.3679 117.796 43.5672 117.77 43.6796C117.744 43.7921 117.719 43.9046 117.581 43.9913C117.288 44.7529 116.857 45.6012 116.565 46.3627C116.539 46.4752 116.513 46.5876 116.375 46.6744C116.057 47.5484 115.626 48.3967 115.308 49.2707C115.282 49.3832 115.256 49.4957 115.231 49.6081C115.205 49.7206 115.179 49.8331 115.153 49.9455C114.835 50.8195 114.49 51.806 114.172 52.68C114.146 52.7925 114.146 52.7925 114.12 52.9049C113.802 53.7789 113.483 54.653 113.277 55.5527C113.251 55.6651 113.225 55.7776 113.2 55.8901C113.174 56.0025 113.148 56.115 113.148 56.115C112.855 56.8765 112.675 57.6638 112.382 58.4253C112.202 59.2126 111.935 59.8617 111.754 60.6489C111.599 61.3237 111.332 61.9728 111.203 62.5351L111.178 62.6476C111.023 63.3224 110.782 63.859 110.627 64.5338C110.601 64.6463 110.601 64.6463 110.575 64.7587C110.498 65.0961 110.283 65.5203 110.205 65.8577C110.18 65.9701 110.18 65.9701 110.154 66.0826C110.076 66.42 109.887 66.7317 109.81 67.0691C109.784 67.1815 109.758 67.294 109.758 67.294C109.543 67.7181 109.439 68.168 109.198 68.7046C109.173 68.8171 109.147 68.9295 109.009 69.0163C108.768 69.5529 108.527 70.0895 108.174 70.6004C108.122 70.8254 107.984 70.9121 107.821 71.1113C107.795 71.2238 107.657 71.3106 107.631 71.423C107.605 71.5355 107.605 71.5355 107.467 71.6223C107.442 71.7347 107.304 71.8215 107.278 71.9339C107.252 72.0464 107.252 72.0464 107.114 72.1332L107.088 72.2456C106.925 72.4449 106.735 72.7565 106.572 72.9558C106.546 73.0682 106.546 73.0682 106.408 73.155C106.219 73.4667 106.055 73.6659 105.753 73.9519C105.728 74.0643 105.615 74.0386 105.59 74.1511C105.426 74.3503 105.262 74.5495 105.099 74.7488C105.073 74.8612 104.935 74.948 104.935 74.948C104.771 75.1472 104.608 75.3464 104.332 75.5199C104.306 75.6324 104.194 75.6067 104.168 75.7191C103.892 75.8927 103.703 76.2043 103.427 76.3779C103.401 76.4903 103.289 76.4646 103.264 76.5771C102.988 76.7506 102.824 76.9498 102.548 77.1233C102.411 77.2101 102.385 77.3225 102.273 77.2968C102.135 77.3836 102.109 77.4961 101.997 77.4703C101.859 77.5571 101.721 77.6439 101.583 77.7306C101.445 77.8174 101.333 77.7917 101.308 77.9041C101.17 77.9909 101.032 78.0777 100.92 78.0519C100.644 78.2255 100.506 78.3122 100.23 78.4857C100.093 78.5725 99.9805 78.5468 99.9547 78.6592C99.5669 78.807 99.2912 78.9805 98.9033 79.1284C98.5155 79.2762 98.1277 79.424 97.6278 79.5461C97.6278 79.5461 97.5157 79.5204 97.49 79.6328C97.1279 79.6682 96.8522 79.8417 96.4902 79.877C96.3781 79.8513 96.2402 79.9381 96.1282 79.9124C95.8782 79.9734 95.7661 79.9477 95.5162 80.0087C95.1542 80.0441 94.9042 80.1051 94.5422 80.1405C94.4301 80.1148 94.1802 80.1758 94.0681 80.1501C93.482 80.134 92.87 80.2304 92.3959 80.24C92.3959 80.24 92.3959 80.24 92.2838 80.2143C91.6977 80.1983 91.1115 80.1822 90.5254 80.1661C90.4133 80.1404 90.1633 80.2015 90.0513 80.1757C89.4651 80.1597 88.8789 80.1436 88.2928 80.1275C87.7066 80.1114 87.0084 80.0697 86.4222 80.0536C85.724 80.0118 85.0257 79.97 84.4138 80.0664C84.4138 80.0664 84.4138 80.0664 84.3017 80.0407C83.6035 79.9989 82.8794 80.0696 82.1554 80.1403C82.1554 80.1403 82.1554 80.1403 82.0433 80.1146C81.4314 80.2109 80.8452 80.1949 80.2332 80.2913C80.2332 80.2913 80.2332 80.2913 80.1212 80.2656L80.0091 80.2398C79.6471 80.2752 79.3971 80.3362 79.0351 80.3716L78.923 80.3459C78.6731 80.4069 78.3111 80.4422 78.0611 80.5033L77.9491 80.4776C77.6991 80.5386 77.3113 80.6864 77.0614 80.7475L76.9235 80.8342C76.6736 80.8953 76.4236 80.9563 76.1479 81.1299C76.1479 81.1299 76.0358 81.1041 76.01 81.2166C75.76 81.2777 75.4843 81.4512 75.2086 81.6247L75.0707 81.7114C74.8208 81.7725 74.545 81.946 74.3813 82.1452C74.3813 82.1452 74.3813 82.1452 74.2693 82.1195C74.0193 82.1806 73.8556 82.3798 73.7178 82.4665L73.5799 82.5533C73.442 82.6401 73.3042 82.7268 73.1405 82.926C73.1405 82.926 73.1405 82.926 73.0026 83.0128C72.7269 83.1863 72.5632 83.3855 72.2875 83.559C72.2875 83.559 72.2875 83.559 72.1496 83.6458C71.9859 83.845 71.7102 84.0185 71.5465 84.2177C71.5465 84.2177 71.5207 84.3302 71.4087 84.3045C71.245 84.5037 71.1071 84.5905 70.9434 84.7897C70.9434 84.7897 70.9176 84.9022 70.8056 84.8765C70.8056 84.8765 70.7798 84.9889 70.6677 84.9632C70.5298 85.05 70.3662 85.2492 70.3146 85.4741L70.1767 85.5609C70.1767 85.5609 70.1767 85.5609 70.1509 85.6734C69.9872 85.8726 69.7978 86.1843 69.6341 86.3835C69.4704 86.5827 69.281 86.8944 69.1173 87.0936C69.1173 87.0936 69.1173 87.0936 69.0915 87.2061C69.0915 87.2061 69.0657 87.3185 68.9536 87.2928C68.7899 87.492 68.7383 87.717 68.5747 87.9162L68.5489 88.0287L68.5231 88.1411C68.3336 88.4528 68.1441 88.7645 67.9547 89.0762C67.791 89.2754 67.7136 89.6128 67.5499 89.812C66.3615 91.9071 65.2852 94.0278 64.1831 96.261C63.7784 96.9969 63.3478 97.8452 62.9431 98.581C62.9173 98.6935 62.9173 98.6935 62.8915 98.8059C62.4868 99.5418 62.082 100.278 61.6773 101.013C61.6515 101.126 61.6257 101.238 61.5136 101.213C61.1089 101.949 60.7042 102.684 60.2994 103.42C60.2736 103.533 60.2478 103.645 60.11 103.732C59.7052 104.468 59.3005 105.204 58.8958 105.939C58.87 106.052 58.87 106.052 58.7321 106.139C58.3532 106.762 57.9742 107.385 57.5695 108.121C57.5437 108.234 57.4058 108.32 57.38 108.433C57.0011 109.056 56.6222 109.68 56.2432 110.303C56.2174 110.415 56.0796 110.502 56.0538 110.615C55.7006 111.126 55.4854 111.55 55.1322 112.061C55.1322 112.061 55.1064 112.173 54.9944 112.147C54.667 112.546 54.4518 112.97 54.1244 113.368C53.9865 113.455 53.9349 113.68 53.7971 113.767C53.6076 114.079 53.4439 114.278 53.1424 114.564C53.0045 114.651 52.9529 114.875 52.8151 114.962C52.4877 115.361 52.2983 115.672 51.9709 116.071C51.9709 116.071 51.9709 116.071 51.9451 116.183C51.6178 116.582 51.3162 116.868 51.101 117.292C50.9631 117.379 50.9373 117.491 50.7994 117.578C50.6358 117.777 50.3342 118.063 50.1706 118.262C50.0327 118.349 49.869 118.548 49.7311 118.635C49.5675 118.834 49.4038 119.033 49.2401 119.233C49.1023 119.319 48.9386 119.519 48.8007 119.605C48.6371 119.805 48.4734 120.004 48.3355 120.091C48.1976 120.177 48.034 120.377 47.8961 120.463C47.7324 120.663 47.5946 120.749 47.4309 120.948C47.293 121.035 47.1294 121.234 46.9915 121.321C46.8278 121.52 46.6899 121.607 46.4142 121.781C46.2763 121.867 46.1127 122.067 45.9748 122.153C45.8111 122.353 45.5354 122.526 45.3717 122.725C45.2338 122.812 45.0702 123.011 44.9323 123.098C44.6566 123.272 44.4929 123.471 44.2171 123.644C44.0793 123.731 43.9414 123.818 43.8035 123.905C43.3641 124.277 42.8384 124.512 42.399 124.885L42.2611 124.971C41.8475 125.232 41.4339 125.492 41.0203 125.752C40.8824 125.839 40.7446 125.926 40.6067 126.013C40.331 126.186 40.0552 126.36 39.6674 126.507C39.5295 126.594 39.3917 126.681 39.2538 126.768C38.8402 127.028 38.3145 127.262 37.9267 127.41C37.401 127.645 36.9011 127.767 36.2633 127.976C36.1255 128.063 35.8755 128.124 35.7634 128.098C35.3756 128.246 35.0136 128.281 34.6258 128.429C34.4879 128.516 34.2638 128.464 34.1259 128.551C33.7639 128.586 33.3761 128.734 33.0141 128.769C32.8762 128.856 32.652 128.805 32.5142 128.891C32.0143 129.014 31.5402 129.023 30.9282 129.12C30.8162 129.094 30.6783 129.181 30.6783 129.181C30.3163 129.216 29.9543 129.251 29.5922 129.287C29.2302 129.322 28.7561 129.332 28.3941 129.367C28.1442 129.428 27.92 129.377 27.558 129.412C27.0839 129.422 26.7219 129.457 26.2736 129.354C26.0495 129.303 25.7995 129.364 25.5754 129.312C24.9892 129.296 24.403 129.28 23.9548 129.177C23.8427 129.152 23.7306 129.126 23.6185 129.1C22.9203 129.058 22.1358 128.878 21.4376 128.837C20.9893 128.734 20.5152 128.743 20.0669 128.641C19.9548 128.615 19.9548 128.615 19.8427 128.589C19.2824 128.461 18.722 128.332 18.1358 128.316C17.9117 128.265 17.5755 128.188 17.3513 128.136C17.0151 128.059 16.6789 127.982 16.3427 127.905C16.1185 127.853 15.7823 127.776 15.5582 127.725C15.2219 127.648 14.9978 127.596 14.6616 127.519C13.8771 127.339 13.0926 127.159 12.4459 126.892C12.3338 126.867 12.2218 126.841 12.1097 126.815C11.4373 126.661 10.9027 126.42 10.2303 126.266C9.89404 126.189 9.44575 126.086 9.13533 125.896L17.8423 158.91C18.0664 158.961 18.4027 159.038 18.601 159.202C18.7131 159.228 18.8252 159.254 18.9372 159.279C19.6097 159.434 20.1442 159.675 20.8167 159.829C20.9287 159.855 21.0408 159.88 21.1529 159.906C21.9374 160.086 22.584 160.353 23.3685 160.533C23.4806 160.558 23.4806 160.558 23.5927 160.584C23.8168 160.635 24.041 160.687 24.2651 160.738C24.4893 160.79 24.8255 160.867 25.0496 160.918C25.3859 160.995 25.7221 161.072 26.0583 161.15C26.2824 161.201 26.6187 161.278 26.8428 161.33C26.9549 161.355 26.9549 161.355 27.067 161.381C27.5152 161.484 28.0756 161.612 28.5497 161.603C28.6618 161.628 28.6618 161.628 28.7738 161.654C29.2221 161.757 29.5584 161.834 30.0324 161.824C30.1445 161.85 30.1445 161.85 30.2566 161.876C31.0669 161.943 31.7393 162.098 32.4376 162.139C32.5497 162.165 32.6617 162.191 32.7738 162.217C33.36 162.233 33.9203 162.361 34.5065 162.377C34.6186 162.403 34.6186 162.403 34.7306 162.429C34.8427 162.454 35.0927 162.393 35.2047 162.419C35.6788 162.409 36.015 162.487 36.4891 162.477C36.6012 162.503 36.7133 162.528 36.8511 162.442C36.9632 162.467 37.1011 162.38 37.3252 162.432C37.6872 162.397 38.1613 162.387 38.5234 162.352C38.6354 162.377 38.8854 162.316 38.9974 162.342C39.1353 162.255 39.3595 162.307 39.6094 162.246C39.7215 162.271 39.8593 162.185 39.8593 162.185C40.3334 162.175 40.7213 162.027 41.1953 162.017C41.3074 162.043 41.3332 161.931 41.4453 161.956C41.5832 161.87 41.8073 161.921 41.9452 161.834C42.3072 161.799 42.695 161.651 43.057 161.616C43.1949 161.529 43.419 161.58 43.5569 161.494C43.6948 161.407 43.8069 161.433 43.9189 161.458C44.1689 161.397 44.4188 161.336 44.6688 161.275C44.9187 161.214 45.1686 161.153 45.3065 161.066C45.8322 160.832 46.4442 160.735 46.9699 160.501C47.4955 160.266 47.8834 160.119 48.297 159.858C48.4348 159.771 48.5727 159.685 48.7106 159.598C48.9863 159.424 49.3741 159.277 49.6499 159.103C49.762 159.129 49.7878 159.016 49.8998 159.042C50.0119 159.068 50.0377 158.955 50.1498 158.981C50.5634 158.721 50.977 158.461 51.3906 158.2L51.5285 158.113C51.9679 157.741 52.4936 157.506 52.933 157.133L53.0709 157.047C53.2087 156.96 53.2345 156.847 53.3466 156.873C53.6223 156.7 53.786 156.5 54.0618 156.327C54.1996 156.24 54.3633 156.041 54.5012 155.954C54.6648 155.755 54.9406 155.581 55.1043 155.382C55.2421 155.295 55.2679 155.183 55.38 155.209C55.4058 155.096 55.5179 155.122 55.5437 155.01C55.7073 154.81 55.8452 154.724 56.1209 154.55C56.2588 154.463 56.4225 154.264 56.5604 154.177C56.724 153.978 56.8619 153.891 57.0256 153.692C57.1634 153.605 57.1892 153.493 57.3271 153.406L57.465 153.319C57.6286 153.12 57.7923 152.921 57.9302 152.834C58.0681 152.747 58.2317 152.548 58.3696 152.461C58.5333 152.262 58.6969 152.063 58.8606 151.864C58.9985 151.777 59.0243 151.665 59.1621 151.578C59.1621 151.578 59.1879 151.465 59.3 151.491C59.4637 151.292 59.7652 151.006 59.9289 150.807C60.0668 150.72 60.0926 150.607 60.2304 150.521C60.5578 150.122 60.8593 149.836 61.0746 149.412C61.0746 149.412 61.0746 149.412 61.1004 149.3C61.4277 148.901 61.7293 148.615 61.9445 148.191C62.0824 148.104 62.134 147.879 62.2719 147.793C62.4613 147.481 62.625 147.282 62.9265 146.996C62.9523 146.883 63.0644 146.909 63.0902 146.796C63.116 146.684 63.2281 146.71 63.2539 146.597C63.5812 146.199 63.7965 145.775 64.1238 145.376C64.1238 145.376 64.1496 145.264 64.2617 145.289C64.6148 144.779 64.9422 144.38 65.1832 143.843C65.1832 143.843 65.209 143.731 65.3211 143.757C65.3469 143.644 65.3469 143.644 65.4848 143.558C65.8637 142.934 66.2426 142.311 66.6216 141.687C66.6474 141.575 66.7852 141.488 66.811 141.376C67.19 140.752 67.5689 140.129 67.9736 139.393L67.9994 139.281L68.0252 139.168C68.43 138.432 68.8347 137.697 69.2394 136.961C69.2652 136.848 69.291 136.736 69.4289 136.649C69.8336 135.913 70.2384 135.177 70.6431 134.441C70.6689 134.329 70.6947 134.217 70.8068 134.242C71.2115 133.506 71.6162 132.771 72.0468 131.922C72.0726 131.81 72.0726 131.81 72.0984 131.697C72.5289 130.849 72.9336 130.113 73.3384 129.377C74.4405 127.144 75.6289 125.049 76.7052 122.928C76.8689 122.729 76.9463 122.392 77.1099 122.193C77.2994 121.881 77.4889 121.569 77.6783 121.257C77.7041 121.145 77.842 121.058 77.842 121.058C78.0057 120.859 78.0573 120.634 78.2209 120.435C78.2467 120.322 78.3846 120.236 78.3846 120.236C78.5483 120.036 78.7378 119.725 78.9014 119.526C79.0651 119.326 79.2546 119.015 79.4182 118.815C79.444 118.703 79.5561 118.729 79.5819 118.616C79.7456 118.417 79.8834 118.33 79.935 118.105C79.9608 117.993 80.0729 118.019 80.0987 117.906C80.2624 117.707 80.4002 117.62 80.5639 117.421C80.5897 117.308 80.7018 117.334 80.7276 117.222C80.8913 117.022 81.167 116.849 81.3307 116.65L81.4685 116.563C81.7443 116.389 81.9079 116.19 82.1837 116.017L82.3216 115.93C82.4594 115.843 82.6231 115.644 82.761 115.557L82.8988 115.47C83.0367 115.384 83.3125 115.21 83.4503 115.123C83.4503 115.123 83.4503 115.123 83.5882 115.037C83.8639 114.863 84.1139 114.802 84.2775 114.603L84.4154 114.516C84.6912 114.343 84.9411 114.282 85.2168 114.108C85.2168 114.108 85.3289 114.134 85.3547 114.021C85.6047 113.96 85.8804 113.787 86.1304 113.726L86.2682 113.639C86.5182 113.578 86.906 113.43 87.1559 113.369C87.1559 113.369 87.268 113.395 87.2938 113.282C87.5437 113.221 87.9058 113.186 88.1557 113.125L88.2678 113.151C88.6298 113.115 88.8797 113.054 89.2418 113.019C89.2418 113.019 89.3538 113.044 89.3796 112.932C89.9916 112.836 90.6035 112.739 91.1897 112.755L91.3018 112.781C92.0258 112.71 92.7241 112.752 93.4481 112.681L93.5602 112.707C94.2584 112.749 94.8704 112.653 95.5686 112.694C96.1547 112.71 96.853 112.752 97.4392 112.768C98.0253 112.784 98.6115 112.8 99.1976 112.817C99.3097 112.842 99.5597 112.781 99.6717 112.807C100.258 112.823 100.844 112.839 101.43 112.855C101.43 112.855 101.43 112.855 101.542 112.881C102.128 112.897 102.74 112.801 103.215 112.791C103.327 112.817 103.327 112.817 103.464 112.73C103.577 112.756 103.602 112.643 103.714 112.669C104.076 112.633 104.438 112.598 104.688 112.537C104.8 112.563 104.938 112.476 105.05 112.502C105.162 112.527 105.188 112.415 105.3 112.441C105.412 112.466 105.55 112.38 105.662 112.405C106.024 112.37 106.386 112.335 106.662 112.161C106.662 112.161 106.774 112.187 106.8 112.074C107.188 111.927 107.55 111.891 107.938 111.743C108.325 111.596 108.713 111.448 108.989 111.274C109.127 111.188 109.239 111.213 109.265 111.101C109.515 111.04 109.79 110.866 109.954 110.667L110.092 110.58L110.23 110.493C110.368 110.407 110.48 110.432 110.506 110.32C110.643 110.233 110.781 110.146 110.919 110.06C111.057 109.973 111.083 109.86 111.195 109.886L111.333 109.799L111.471 109.713C111.746 109.539 111.91 109.34 112.186 109.166L112.324 109.08C112.324 109.08 112.324 109.08 112.35 108.967C112.625 108.794 112.815 108.482 113.09 108.308C113.09 108.308 113.116 108.196 113.228 108.222C113.392 108.023 113.556 107.823 113.831 107.65C113.831 107.65 113.857 107.537 113.969 107.563C113.969 107.563 113.995 107.451 114.107 107.476C114.271 107.277 114.435 107.078 114.598 106.879C114.598 106.879 114.624 106.766 114.736 106.792C114.926 106.48 115.089 106.281 115.391 105.995C115.391 105.995 115.391 105.995 115.417 105.883L115.442 105.77C115.632 105.458 115.795 105.259 115.959 105.06C115.959 105.06 115.959 105.06 115.985 104.947C116.011 104.835 116.011 104.835 116.149 104.748C116.174 104.636 116.312 104.549 116.338 104.437C116.364 104.324 116.364 104.324 116.502 104.237C116.528 104.125 116.528 104.125 116.665 104.038C116.665 104.038 116.665 104.038 116.691 103.926C116.855 103.726 116.906 103.501 117.044 103.415C117.07 103.302 117.234 103.103 117.26 102.991C117.475 102.566 117.664 102.255 117.768 101.805L117.793 101.692L117.819 101.58C118.034 101.156 118.25 100.732 118.379 100.169L118.404 100.057L118.43 99.9444C118.508 99.607 118.697 99.2953 118.774 98.9579C118.8 98.8455 118.8 98.8455 118.826 98.733C118.903 98.3956 119.119 97.9714 119.196 97.6341C119.196 97.6341 119.196 97.6341 119.222 97.5216L119.248 97.4091C119.403 96.7343 119.644 96.1977 119.798 95.5229L119.824 95.4105C119.979 94.7357 120.22 94.1991 120.375 93.5243C120.555 92.737 120.822 92.0879 121.003 91.3007C121.183 90.5134 121.476 89.7519 121.769 88.9903C121.82 88.7654 121.872 88.5405 121.898 88.428C122.216 87.554 122.535 86.68 122.741 85.7803C122.767 85.6678 122.767 85.6678 122.793 85.5553C123.111 84.6813 123.455 83.6949 123.774 82.8208C123.825 82.5959 123.989 82.3967 124.015 82.2842C124.333 81.4102 124.652 80.5362 125.082 79.6879C125.108 79.5754 125.134 79.463 125.272 79.3762C125.564 78.6147 125.995 77.7664 126.288 77.0048C126.477 76.6931 126.555 76.3557 126.744 76.0441C126.959 75.6199 127.149 75.3082 127.252 74.8584C127.441 74.5467 127.657 74.1225 127.734 73.7851C127.734 73.7851 127.734 73.7851 127.76 73.6727C127.923 73.4735 127.975 73.2485 128.165 72.9368C128.19 72.8244 128.328 72.7376 128.328 72.7376C128.354 72.6251 128.492 72.5384 128.518 72.4259C128.543 72.3135 128.681 72.2267 128.707 72.1142C128.733 72.0018 128.733 72.0018 128.871 71.915C129.034 71.7158 129.06 71.6033 129.224 71.4041C129.362 71.3174 129.526 71.1181 129.551 71.0057L129.689 70.9189C129.827 70.8322 129.991 70.6329 130.129 70.5462C130.292 70.347 130.568 70.1735 130.706 70.0867L130.844 69.9999L130.982 69.9132C131.257 69.7397 131.421 69.5404 131.671 69.4794C131.809 69.3926 131.809 69.3926 131.947 69.3059C132.222 69.1324 132.472 69.0713 132.748 68.8978C132.86 68.9235 132.886 68.8111 132.998 68.8368C133.386 68.689 133.662 68.5154 134.049 68.3676C134.162 68.3934 134.187 68.2809 134.299 68.3066C134.549 68.2455 134.825 68.072 135.187 68.0367C135.299 68.0624 135.437 67.9756 135.437 67.9756C135.825 67.8278 136.075 67.7668 136.463 67.619C137.1 67.4101 137.85 67.227 138.376 66.9924C138.902 66.7579 139.401 66.6358 139.815 66.3755L139.953 66.2887C140.367 66.0285 140.866 65.9064 141.28 65.6461L141.418 65.5593L141.556 65.4726C141.694 65.3858 141.969 65.2123 142.107 65.1256C142.245 65.0388 142.245 65.0388 142.383 64.9521C142.659 64.7785 142.797 64.6918 143.072 64.5183L143.21 64.4315C143.624 64.1712 143.925 63.8853 144.227 63.5993L144.365 63.5125C144.365 63.5125 144.391 63.4001 144.503 63.4258C144.778 63.2523 145.08 62.9663 145.244 62.7671C145.244 62.7671 145.244 62.7671 145.269 62.6546C145.545 62.4811 145.735 62.1694 146.036 61.8834C146.036 61.8834 146.036 61.8834 146.062 61.771C146.088 61.6585 146.2 61.6842 146.226 61.5717C146.389 61.3725 146.527 61.2858 146.579 61.0608L146.605 60.9484C146.63 60.8359 146.768 60.7491 146.768 60.7491C146.906 60.6624 146.958 60.4375 147.096 60.3507C147.096 60.3507 147.121 60.2382 147.233 60.2639C147.259 60.1515 147.397 60.0647 147.397 60.0647C147.423 59.9522 147.561 59.8655 147.587 59.753L147.612 59.6406C147.638 59.5281 147.776 59.4413 147.802 59.3289C147.828 59.2164 147.966 59.1297 147.991 59.0172L148.017 58.9047C148.043 58.7923 148.181 58.7055 148.207 58.593C148.232 58.4806 148.37 58.3938 148.396 58.2814C148.396 58.2814 148.396 58.2814 148.422 58.1689C148.586 57.9697 148.637 57.7447 148.689 57.5198C148.689 57.5198 148.689 57.5198 148.715 57.4074C148.74 57.2949 148.766 57.1824 148.766 57.1824L151.654 57.9633L141.672 25.3675L138.784 24.5866C140.309 24.1078 140.283 24.2203 140.145 24.3071Z" fill="url(#paint0_linear_157_1613)"/>
<path d="M16.6646 161.48L17.9562 158.936C27.1034 161.744 37.7504 164.186 47.0837 160.527C60.3638 154.576 67.3643 141.029 73.5296 129.066C74.6318 126.832 75.8201 124.737 76.8965 122.617C80.9172 113.832 87.4157 112.244 95.8461 112.521C96.4323 112.537 97.1305 112.579 97.7167 112.595C101.458 112.743 105.087 112.865 108.414 111.734C113.429 109.925 116.306 105.613 117.572 103.18C117.813 102.644 118.054 102.107 118.407 101.596C119.612 98.913 120.395 96.0146 121.264 93.2544C121.445 92.4671 121.712 91.818 121.892 91.0308C123.415 85.9345 125.326 80.6905 127.633 75.7742C127.849 75.35 128.038 75.0383 128.141 74.5885C128.865 72.9786 129.7 71.3945 131.156 70.1895C132.939 68.5861 135.24 67.8118 137.516 67.1499C138.154 66.941 138.903 66.7579 139.429 66.5233C144.195 64.7754 148.201 61.1958 150.104 57.0154C150.13 56.9029 150.156 56.7904 150.293 56.7037L153.181 57.4846C150.797 62.7383 146.049 66.9765 140.508 69.0201C139.732 69.3157 139.095 69.5245 138.345 69.7077C136.431 70.3342 134.544 70.8483 133.338 71.9922C132.295 72.9369 131.675 74.0969 131.116 75.5075C130.901 75.9317 130.711 76.2434 130.608 76.6932C128.412 81.6352 126.467 86.5162 125.056 91.6382C124.876 92.4254 124.609 93.0745 124.428 93.8617C123.645 96.7601 122.75 99.6328 121.494 102.541C121.227 103.19 120.986 103.726 120.607 104.35C117.963 109.189 114.069 112.794 109.579 114.369C105.588 115.821 101.511 115.596 97.52 115.509C96.9339 115.493 96.2356 115.451 95.6495 115.435C86.745 115.168 82.7378 117.209 79.7072 123.735C78.5188 125.83 77.4425 127.951 76.3403 130.184C69.9598 142.571 62.5803 156.742 48.2747 163.049C37.6916 167.014 26.3464 164.53 16.6646 161.48Z" fill="url(#paint1_linear_157_1613)"/>
<path d="M16.6649 161.48L6.68244 128.885L7.97403 126.34L17.8444 158.91L16.6649 161.48Z" fill="url(#paint2_linear_157_1613)"/>
<path d="M150.292 56.7037L140.085 24.0565L143.051 24.5L153.068 57.4589L150.292 56.7037Z" fill="#291B07"/>
</g>
<defs>
<linearGradient id="paint0_linear_157_1613" x1="11.7657" y1="130.287" x2="149.072" y2="67.0937" gradientUnits="userSpaceOnUse">
<stop offset="0.00558659" stop-color="#DC9246"/>
<stop offset="0.148" stop-color="#9E4D1D"/>
<stop offset="0.1639" stop-color="#99491B"/>
<stop offset="0.2594" stop-color="#7E3512"/>
<stop offset="0.3156" stop-color="#742D0E"/>
<stop offset="0.3427" stop-color="#7D3814"/>
<stop offset="0.3898" stop-color="#965426"/>
<stop offset="0.4509" stop-color="#BF8242"/>
<stop offset="0.486" stop-color="#D9A054"/>
<stop offset="0.5305" stop-color="#D79D51"/>
<stop offset="0.5687" stop-color="#D2924A"/>
<stop offset="0.6045" stop-color="#C9803C"/>
<stop offset="0.6388" stop-color="#BC682A"/>
<stop offset="0.6508" stop-color="#B75D22"/>
<stop offset="0.7269" stop-color="#8F4519"/>
<stop offset="0.8003" stop-color="#6F3212"/>
<stop offset="0.8408" stop-color="#632B0F"/>
</linearGradient>
<linearGradient id="paint1_linear_157_1613" x1="-103.713" y1="89.4455" x2="195.424" y2="122.422" gradientUnits="userSpaceOnUse">
<stop stop-color="#B06143"/>
<stop offset="0.2095" stop-color="#9E4D1D"/>
<stop offset="0.2227" stop-color="#99491B"/>
<stop offset="0.3023" stop-color="#7E3512"/>
<stop offset="0.3492" stop-color="#742D0E"/>
<stop offset="0.486" stop-color="#B78A47"/>
<stop offset="0.5252" stop-color="#B77E3D"/>
<stop offset="0.5951" stop-color="#B76024"/>
<stop offset="0.6006" stop-color="#B75D22"/>
<stop offset="0.6467" stop-color="#B45B21"/>
<stop offset="0.6751" stop-color="#AC561F"/>
<stop offset="0.6988" stop-color="#9D4E1C"/>
<stop offset="0.7197" stop-color="#894218"/>
<stop offset="0.7388" stop-color="#6F3212"/>
<stop offset="0.7458" stop-color="#632B0F"/>
</linearGradient>
<linearGradient id="paint2_linear_157_1613" x1="-30.8965" y1="64.5924" x2="128.63" y2="355.212" gradientUnits="userSpaceOnUse">
<stop stop-color="#B06143"/>
<stop offset="0.2095" stop-color="#9E4D1D"/>
<stop offset="0.2227" stop-color="#99491B"/>
<stop offset="0.3023" stop-color="#7E3512"/>
<stop offset="0.3492" stop-color="#742D0E"/>
<stop offset="0.486" stop-color="#B78A47"/>
<stop offset="0.5252" stop-color="#B77E3D"/>
<stop offset="0.5951" stop-color="#B76024"/>
<stop offset="0.6006" stop-color="#B75D22"/>
<stop offset="0.6467" stop-color="#B45B21"/>
<stop offset="0.6751" stop-color="#AC561F"/>
<stop offset="0.6988" stop-color="#9D4E1C"/>
<stop offset="0.7197" stop-color="#894218"/>
<stop offset="0.7388" stop-color="#6F3212"/>
<stop offset="0.7458" stop-color="#632B0F"/>
</linearGradient>
<clipPath id="clip0_157_1613">
<rect width="162.117" height="126.712" fill="white" transform="translate(0 158.013) rotate(-77.0805)"/>
</clipPath>
</defs>
</svg>
